<svg xmlns="http://www.w3.org/2000/svg" width="55.121" height="33.878" viewBox="0 0 55.121 33.878">

  <path id="Path_635" data-name="Path 635" class="cls-1" d="M22.8,20.562c-.166,0-.334,0-.5.008H11V51.452H22.246c4.383-.128,8.265.772,11.3,2.988V24.084c-2.7-2.362-5.565-3.492-10.251-3.522H22.8Zm23.915.008c-4.457-.023-8.221.813-11.268,3.515V54.337c2.983-2.329,6.558-2.99,11.3-2.887H58v-5.9A30.031,30.031,0,0,1,45.98,44.367a.864.864,0,0,1-.646-.807v-7.9l-2.8-1.493v4.068a.8.8,0,0,1-.279.6,1.035,1.035,0,0,1-1.347,0,.8.8,0,0,1-.279-.6V32.67a.768.768,0,0,1,.033-.218.818.818,0,0,1,.087-.19l.009-.018a.822.822,0,0,1,.138-.162l.008-.008a.89.89,0,0,1,.167-.119l.022-.016,13.2-7.042a1.049,1.049,0,0,1,.977,0L58,26.351V20.574H46.717ZM16.244,26.132H26.9a1.016,1.016,0,0,1,.674.249.789.789,0,0,1,.089,1.111.748.748,0,0,1-.089.089,1.017,1.017,0,0,1-.674.248H16.243a1.012,1.012,0,0,1-.674-.248.789.789,0,0,1-.089-1.111.748.748,0,0,1,.089-.089,1.011,1.011,0,0,1,.674-.249Zm38.539.48L43.44,32.663l11.343,6.054,11.341-6.054ZM16.244,32.148H26.9a1.017,1.017,0,0,1,.674.248.789.789,0,0,1,.089,1.111.748.748,0,0,1-.089.089,1.016,1.016,0,0,1-.674.249H16.243a1.011,1.011,0,0,1-.674-.249.789.789,0,0,1-.089-1.111.748.748,0,0,1,.089-.089,1.012,1.012,0,0,1,.674-.248ZM62.33,36.67l-7.058,3.766a1.049,1.049,0,0,1-.977,0L47.24,36.672v6.179a26.863,26.863,0,0,0,15.091,0ZM16.244,38.162H26.9a1.011,1.011,0,0,1,.674.249.789.789,0,0,1,.089,1.111.748.748,0,0,1-.089.089,1.017,1.017,0,0,1-.674.248H16.243a1.017,1.017,0,0,1-.674-.248A.789.789,0,0,1,15.48,38.5a.748.748,0,0,1,.089-.089,1.011,1.011,0,0,1,.674-.249Zm0,6.017H26.9a1.016,1.016,0,0,1,.674.249.789.789,0,0,1,.089,1.111.748.748,0,0,1-.089.089,1.017,1.017,0,0,1-.674.248H16.243a1.012,1.012,0,0,1-.674-.248.789.789,0,0,1-.089-1.111.748.748,0,0,1,.089-.089,1.011,1.011,0,0,1,.674-.249Z" transform="translate(-11.003 -20.562)"/>
</svg>
