<svg xmlns="http://www.w3.org/2000/svg" width="254.905" height="284.302" viewBox="0 0 254.905 284.302">
  <g id="Group_420" data-name="Group 420" transform="translate(-5205 -3543)">
    <path id="Path_85" data-name="Path 85" d="M431.313,262.064a54.281,54.281,0,0,1-5.967,1.887c-2.673.651-4.183.953-6.763-.048-.091-.035-.177-.07-.259-.1a27.409,27.409,0,0,1-16.682-24.853c-.013-.182-.013-.374-.013-.561a26.7,26.7,0,0,1,.129-2.7,27.273,27.273,0,0,1,.585-3.627l-.026,0a9.967,9.967,0,0,1-2.626-8,13.226,13.226,0,0,1,5.975-9.891,20.925,20.925,0,0,1,8.687-3.066,22.018,22.018,0,0,1,2.5-.145h7.84a33.869,33.869,0,0,1,4.922-.776h.013c15.779-1.309,28.223,9.152,27.063,21.88-.009.014-.021.028-.03.042-.335.547-.632,1.066-.894,1.561-.254.463-.468.907-.653,1.327-1.44,3.253,5.4,53.727,2.949,54.494-1.4.435-7.028-37.124-6.018-29.982C453.313,268.459,438.582,259.377,431.313,262.064Z" transform="translate(4846.402 3344.423)" fill="#2f2e41"/>
    <path id="Path_86" data-name="Path 86" d="M135.273,388.3l21.873,46.6-84.141-8.522,17.564-44.734Z" transform="translate(5166.213 3309.427)" fill="#ffb6b6"/>
    <path id="Path_87" data-name="Path 87" d="M482.2,632.5a122.56,122.56,0,0,1-45.449,6.087l-6.7-10.858s-.28,4.044-.7,10.227a118.242,118.242,0,0,1-21.608-4.581c-13.358-4.177-25.88-10.65-38.573-16.618-2.571-15.326-3.536-38.957,10.678-52.715l76.5,14.019s12.275,9.181,8.991,12.469-3.792,2.775-1.635,4.933,6.819,5.042,6.867,6.928C470.6,603.127,475.834,616.485,482.2,632.5Z" transform="translate(4863.193 3158.659)" fill="#2f2e41"/>
    <path id="Path_88" data-name="Path 88" d="M435.771,322.007,417.288,323.3l-11.946,11.544-4.184.747a15.6,15.6,0,0,0-12.833,16.274c.861,14.581,2.788,36.366,6.815,43.435,6.245,10.96,11.4,7.521,6.245,10.96s-8.621.737-6.245,6.171-3.212,12.405-3.212,12.405l-2.224,2.224,2.359.967,75.176,9.782s-6.5-29.226-2.435-36.406,13.922-28.881,5.125-37.373l-8.6-30.268-14.795-4.364Z" transform="translate(4852.355 3285.677)" fill="#40b858"/>
    <path id="Path_89" data-name="Path 89" d="M675.74,524.257a8.545,8.545,0,0,1-8.117-10.172L632.36,490.2l4.207-11.378L678.243,507.5a8.533,8.533,0,0,1-2.5,16.761Z" transform="translate(4724.272 3203.38)" fill="#ffb6b6"/>
    <path id="Path_90" data-name="Path 90" d="M508.391,342.077l-5.124,2.029L530.6,397.493l56.587,38.572,8.157-13.786-43.075-37.206L535.026,352A21.225,21.225,0,0,0,508.391,342.077Z" transform="translate(4792.02 3275.928)" fill="#40b858"/>
    <circle id="Ellipse_17" data-name="Ellipse 17" cx="18.56" cy="18.56" r="18.56" transform="translate(5259.363 3565.869)" fill="#ffb6b6"/>
    <path id="Path_91" data-name="Path 91" d="M447.643,236.514c-.309.163-.615.314-.924.464s-.645.31-.971.456c-6.211,2.815-11.27,3.129-14.339-.92a17.186,17.186,0,0,0-1.414-6.181,9.933,9.933,0,0,1-1.638,6.181h-6.181c-6.366,4.225-9.633,8.107-5.214,21.978.288.911,2.261,33.287,2.824,35.775-9.637-3.7-17.95-42.945-18.161-53.287-.013-.168-.013-.344-.013-.516a22.593,22.593,0,0,1,.129-2.48,23.213,23.213,0,0,1,.585-3.336l-.026,0a8.711,8.711,0,0,1-2.626-7.359,21.225,21.225,0,0,1,5.9-5.287,37.632,37.632,0,0,1,6.456-2.424l.159-.039c.679-.185,1.375-.352,2.072-.5a38.9,38.9,0,0,1,4.346-.658c.107,0,.211-.013.305-.013a3.256,3.256,0,0,1,1.659.456s0,0,.013,0a3.274,3.274,0,0,1,1.595,2.785h6.886c.254,0,.507.009.761.021,9.59.383,17.3,4.483,17.791,13.91C447.634,235.869,447.643,236.187,447.643,236.514Z" transform="translate(4846.419 3340.067)" fill="#2f2e41"/>
    <circle id="Ellipse_18" data-name="Ellipse 18" cx="12.227" cy="12.227" r="12.227" transform="translate(5241.124 3552.872)" fill="#2f2e41"/>
    <path id="Path_92" data-name="Path 92" d="M423.728,202.334a12.083,12.083,0,0,1-14.8,8.944,12.227,12.227,0,0,1-8.944-14.8c1.617-6.556,9.574-4.666,14.8-8.944C422.175,181.484,425.6,193.422,423.728,202.334Z" transform="translate(4846.41 3357.11)" fill="#2f2e41"/>
    <path id="Path_93" data-name="Path 93" d="M391.641,483.616c10.421-42.5,31.069-79.023,65.265-107.641a9.621,9.621,0,0,1,13.2-3.235L551.4,422.03a9.621,9.621,0,0,1,3.235,13.2c-13.052,43.606-32.6,81.444-65.265,107.641a9.621,9.621,0,0,1-13.2,3.235l-81.293-49.29A9.621,9.621,0,0,1,391.641,483.616Z" transform="translate(4851.33 3259.781)" fill="#f2f2f2"/>
    <path id="Path_94" data-name="Path 94" d="M406.09,497.938a9.621,9.621,0,0,1-3.235-13.2c10.421-42.5,31.069-79.023,65.265-107.641a9.5,9.5,0,0,1,3.586-3.387l-1.6-.97a9.621,9.621,0,0,0-13.2,3.235c-34.2,28.618-54.844,65.145-65.265,107.641a9.621,9.621,0,0,0,3.235,13.2l81.293,49.29a9.578,9.578,0,0,0,9.614.152Z" transform="translate(4851.33 3259.782)" opacity="0.2" style="isolation: isolate"/>
    <path id="Path_95" data-name="Path 95" d="M561.9,543.625l-54.568-32.879a3.823,3.823,0,0,1,3.945-6.548l54.568,32.879a3.822,3.822,0,0,1-3.945,6.548Z" transform="translate(4790.859 3190.353)" fill="#fff"/>
    <path id="Path_96" data-name="Path 96" d="M542.088,480.188l-12-7.233a3.823,3.823,0,0,1,3.925-6.561l.021.013,12,7.233a3.822,3.822,0,1,1-3.945,6.548Z" transform="translate(4778.923 3210.188)" fill="#fff"/>
    <path id="Path_97" data-name="Path 97" d="M543.641,573.911l-54.568-32.879a3.823,3.823,0,1,1,3.938-6.553l.008,0,54.567,32.879a3.822,3.822,0,1,1-3.945,6.548Z" transform="translate(4800.441 3174.459)" fill="#fff"/>
    <circle id="Ellipse_19" data-name="Ellipse 19" cx="15.938" cy="15.938" r="15.938" transform="translate(5343.747 3640.107)" fill="#3f3d56"/>
    <circle id="Ellipse_20" data-name="Ellipse 20" cx="34.065" cy="34.065" r="34.065" transform="translate(5298.146 3758.696)" fill="#64b663"/>
    <path id="Path_98" data-name="Path 98" d="M542.826,707.87a34.54,34.54,0,1,1,34.54-34.541A34.54,34.54,0,0,1,542.826,707.87Zm0-68.13a33.59,33.59,0,1,0,33.59,33.59A33.59,33.59,0,0,0,542.826,639.74Z" transform="translate(4789.386 3119.432)" fill="#3f3d56"/>
    <ellipse id="Ellipse_21" data-name="Ellipse 21" cx="2.46" cy="1.711" rx="2.46" ry="1.711" transform="translate(5439.481 3616.934) rotate(-4.887)" fill="#fff"/>
    <ellipse id="Ellipse_22" data-name="Ellipse 22" cx="2.46" cy="1.711" rx="2.46" ry="1.711" transform="translate(5454.711 3611.768) rotate(-4.887)" fill="#3f3d56"/>
    <ellipse id="Ellipse_23" data-name="Ellipse 23" cx="2.46" cy="1.711" rx="2.46" ry="1.711" transform="translate(5432.262 3605.314) rotate(-4.887)" fill="#ff6584"/>
    <ellipse id="Ellipse_24" data-name="Ellipse 24" cx="1.082" cy="1.555" rx="1.082" ry="1.555" transform="translate(5426.876 3601.977) rotate(-12.732)" fill="#e6e6e6"/>
    <ellipse id="Ellipse_25" data-name="Ellipse 25" cx="1.082" cy="1.555" rx="1.082" ry="1.555" transform="translate(5422.328 3592.887) rotate(-12.732)" fill="#3f3d56"/>
    <ellipse id="Ellipse_26" data-name="Ellipse 26" cx="1.082" cy="1.555" rx="1.082" ry="1.555" transform="translate(5444.151 3605.653) rotate(-12.732)" fill="#e6e6e6"/>
    <ellipse id="Ellipse_27" data-name="Ellipse 27" cx="1.082" cy="1.555" rx="1.082" ry="1.555" transform="translate(5437.499 3611.175) rotate(-12.732)" fill="#ff6584"/>
    <ellipse id="Ellipse_28" data-name="Ellipse 28" cx="1.082" cy="1.555" rx="1.082" ry="1.555" transform="translate(5449.609 3615.673) rotate(-12.732)" fill="#3f3d56"/>
    <ellipse id="Ellipse_29" data-name="Ellipse 29" cx="1.711" cy="2.46" rx="1.711" ry="2.46" transform="translate(5374.156 3550.171) rotate(-75.779)" fill="#fff"/>
    <ellipse id="Ellipse_30" data-name="Ellipse 30" cx="1.711" cy="2.46" rx="1.711" ry="2.46" transform="translate(5358.073 3550.067) rotate(-75.779)" fill="#3f3d56"/>
    <ellipse id="Ellipse_31" data-name="Ellipse 31" cx="1.711" cy="2.46" rx="1.711" ry="2.46" transform="translate(5377.173 3563.514) rotate(-75.779)" fill="#ff6584"/>
    <ellipse id="Ellipse_32" data-name="Ellipse 32" cx="1.555" cy="1.082" rx="1.555" ry="1.082" transform="translate(5383.79 3569.399) rotate(-83.624)" fill="#e6e6e6"/>
    <ellipse id="Ellipse_33" data-name="Ellipse 33" cx="1.555" cy="1.082" rx="1.555" ry="1.082" transform="translate(5385.113 3579.477) rotate(-83.624)" fill="#3f3d56"/>
    <ellipse id="Ellipse_34" data-name="Ellipse 34" cx="1.555" cy="1.082" rx="1.555" ry="1.082" transform="translate(5368.67 3560.272) rotate(-83.624)" fill="#e6e6e6"/>
    <ellipse id="Ellipse_35" data-name="Ellipse 35" cx="1.555" cy="1.082" rx="1.555" ry="1.082" transform="translate(5376.764 3557.231) rotate(-83.624)" fill="#ff6584"/>
    <ellipse id="Ellipse_36" data-name="Ellipse 36" cx="1.555" cy="1.082" rx="1.555" ry="1.082" transform="translate(5366.793 3549.016) rotate(-83.624)" fill="#3f3d56"/>
    <path id="Path_101" data-name="Path 101" d="M370.182,542.642a9.063,9.063,0,0,1-4.294-13.118L339.7,492.714l8.4-9.746,30.782,43.947a9.051,9.051,0,0,1-8.7,15.728Z" transform="translate(4877.857 3201.206)" fill="#ffb6b6"/>
    <path id="Path_102" data-name="Path 102" d="M356.914,362.087h0a6.463,6.463,0,0,0-8.26,1.454l-35.381,49.483,32.789,46.57,12.831-13.781-19.959-31.364,26.525-25.255a21.225,21.225,0,0,0-8.545-27.107Z" transform="translate(4891.728 3265.112)" fill="#40b858"/>
    <path id="Icon_awesome-award" data-name="Icon awesome-award" d="M8.979,33.527c-.8-.8-.385-.577-2.322-1.1A6.671,6.671,0,0,1,4.306,31.2L.111,41.485a1.479,1.479,0,0,0,1.427,2.037l4.871-.186L9.76,46.875a1.479,1.479,0,0,0,2.444-.459l4.812-11.8a6.635,6.635,0,0,1-8.036-1.09Zm26.412,7.958L31.2,31.2a6.655,6.655,0,0,1-2.351,1.231c-1.948.521-1.521.294-2.322,1.1a6.636,6.636,0,0,1-8.037,1.09l4.812,11.8a1.479,1.479,0,0,0,2.444.459l3.351-3.539,4.871.186a1.48,1.48,0,0,0,1.427-2.037ZM24.316,31.435C25.728,30,25.89,30.121,27.9,29.573a3.757,3.757,0,0,0,2.632-2.679c.692-2.626.512-2.309,2.4-4.23A3.835,3.835,0,0,0,33.9,19c-.691-2.624-.692-2.258,0-4.884a3.835,3.835,0,0,0-.963-3.659c-1.887-1.921-1.708-1.605-2.4-4.23A3.757,3.757,0,0,0,27.9,3.551c-2.578-.7-2.267-.52-4.156-2.442a3.679,3.679,0,0,0-3.6-.981c-2.577.7-2.217.7-4.8,0a3.677,3.677,0,0,0-3.6.981C9.87,3.031,10.18,2.848,7.6,3.551A3.757,3.757,0,0,0,4.969,6.231c-.691,2.625-.512,2.309-2.4,4.23a3.833,3.833,0,0,0-.963,3.659c.691,2.622.692,2.256,0,4.883a3.838,3.838,0,0,0,.963,3.66c1.887,1.921,1.708,1.6,2.4,4.23A3.757,3.757,0,0,0,7.6,29.573c2.069.564,2.224.475,3.585,1.862a3.674,3.674,0,0,0,4.6.538,3.668,3.668,0,0,1,3.932,0A3.673,3.673,0,0,0,24.316,31.435ZM9.029,16.268a8.724,8.724,0,1,1,8.722,8.877,8.8,8.8,0,0,1-8.722-8.877Z" transform="translate(5316.269 3769.093)" fill="#fff"/>
  </g>
</svg>
