<svg xmlns="http://www.w3.org/2000/svg" width="348.12" height="348.12" viewBox="0 0 348.12 348.12">
  <g id="Group_436" data-name="Group 436" transform="translate(-2760 -4115)">
    <path id="Path_28" data-name="Path 28" d="M332,82.016a16.371,16.371,0,0,0,24.63,3.79c9-8.051,23.682-3.317,26.051,8.524,1.893,9.948,12.789,15.158,22.261,11.368,11.368-4.738,23.682,4.262,22.261,16.1a16.176,16.176,0,0,0,17.524,17.524,15.666,15.666,0,0,1,16.1,22.261c-4.262,9.472,1.421,19.893,11.368,22.261,11.841,2.369,16.579,17.051,8.524,26.051a16.369,16.369,0,0,0,3.789,24.63,15.978,15.978,0,0,1,0,27.471,16.371,16.371,0,0,0-3.789,24.63c8.051,9,3.317,23.682-8.524,26.051-9.948,1.893-15.158,12.789-11.368,22.261,4.738,11.368-4.262,23.682-16.1,22.261A16.176,16.176,0,0,0,427.2,374.725a15.666,15.666,0,0,1-22.261,16.1c-9.472-4.262-19.893,1.421-22.261,11.368-2.369,11.838-17.051,16.576-26.051,8.52A16.369,16.369,0,0,0,332,414.506a15.978,15.978,0,0,1-27.471,0,16.371,16.371,0,0,0-24.63-3.789c-9,8.051-23.682,3.317-26.051-8.524-1.893-9.948-12.789-15.158-22.261-11.368-11.368,4.738-23.682-4.262-22.261-16.1A16.176,16.176,0,0,0,191.8,357.2a15.666,15.666,0,0,1-16.1-22.261c4.262-9.472-1.421-19.893-11.368-22.261-11.838-2.369-16.576-17.051-8.52-26.051a16.369,16.369,0,0,0-3.79-24.63,15.978,15.978,0,0,1,0-27.471,16.371,16.371,0,0,0,3.79-24.63c-8.052-9-3.317-23.682,8.524-26.051,9.948-1.893,15.158-12.789,11.368-22.261-4.738-11.368,4.262-23.682,16.1-22.261A16.176,16.176,0,0,0,209.328,121.8a15.666,15.666,0,0,1,22.261-16.1c9.472,4.262,19.893-1.421,22.261-11.368C256.219,82.485,270.9,77.747,279.9,85.8a16.369,16.369,0,0,0,24.63-3.789,15.977,15.977,0,0,1,27.468,0Z" transform="translate(2615.795 4040.8)" fill="#00b9ff"/>
    <path id="Icon_feather-check" data-name="Icon feather-check" d="M170.9,9,57.531,122.368,6,70.837" transform="translate(2850.192 4220.513)" fill="none" stroke="#fff" stroke-linecap="round" stroke-linejoin="round" stroke-width="8"/>
  </g>
</svg>
