<svg xmlns="http://www.w3.org/2000/svg" width="318.71" height="318.71" viewBox="0 0 318.71 318.71">
  <g id="Group_186" data-name="Group 186" transform="translate(-287 -270)">
    <path id="Path_28" data-name="Path 28" d="M316.133,81.356a14.988,14.988,0,0,0,22.549,3.469c8.24-7.371,21.681-3.037,23.85,7.8,1.733,9.108,11.709,13.877,20.38,10.408,10.408-4.337,21.681,3.9,20.38,14.743a14.81,14.81,0,0,0,16.043,16.043,14.343,14.343,0,0,1,14.742,20.38c-3.9,8.672,1.3,18.212,10.408,20.38,10.841,2.169,15.178,15.61,7.8,23.85a14.986,14.986,0,0,0,3.469,22.549,14.628,14.628,0,0,1,0,25.15,14.988,14.988,0,0,0-3.469,22.549c7.371,8.24,3.037,21.681-7.8,23.85-9.108,1.733-13.878,11.709-10.408,20.381,4.337,10.408-3.9,21.681-14.742,20.38a14.81,14.81,0,0,0-16.043,16.043,14.342,14.342,0,0,1-20.38,14.742c-8.672-3.9-18.212,1.3-20.38,10.408-2.169,10.838-15.611,15.175-23.85,7.8a14.986,14.986,0,0,0-22.549,3.469,14.628,14.628,0,0,1-25.15,0,14.988,14.988,0,0,0-22.549-3.469c-8.24,7.371-21.681,3.037-23.85-7.8-1.733-9.108-11.709-13.878-20.38-10.408-10.408,4.338-21.681-3.9-20.38-14.742a14.81,14.81,0,0,0-16.043-16.043,14.343,14.343,0,0,1-14.742-20.38c3.9-8.672-1.3-18.212-10.408-20.38-10.838-2.169-15.175-15.61-7.8-23.85a14.986,14.986,0,0,0-3.469-22.549,14.628,14.628,0,0,1,0-25.15,14.988,14.988,0,0,0,3.469-22.549c-7.371-8.24-3.037-21.681,7.8-23.85,9.108-1.733,13.877-11.709,10.408-20.38-4.338-10.408,3.9-21.681,14.742-20.38a14.81,14.81,0,0,0,16.043-16.043,14.343,14.343,0,0,1,20.38-14.742c8.672,3.9,18.212-1.3,20.38-10.408,2.169-10.841,15.61-15.178,23.85-7.8a14.986,14.986,0,0,0,22.549-3.469,14.627,14.627,0,0,1,25.148,0Z" transform="translate(142.796 195.799)" fill="#ff7e04"/>
    <path id="Icon_awesome-hourglass-half" data-name="Icon awesome-hourglass-half" d="M123.841,0H8.256A8.256,8.256,0,0,0,0,8.256v5.5a8.256,8.256,0,0,0,8.256,8.256c0,31.292,17.55,57.7,41.57,66.049-24.02,8.348-41.57,34.756-41.57,66.049A8.256,8.256,0,0,0,0,162.369v5.5a8.256,8.256,0,0,0,8.256,8.256H123.841a8.256,8.256,0,0,0,8.256-8.256v-5.5a8.256,8.256,0,0,0-8.256-8.256c0-31.292-17.55-57.7-41.57-66.049,24.02-8.348,41.57-34.756,41.57-66.049A8.256,8.256,0,0,0,132.1,13.76v-5.5A8.256,8.256,0,0,0,123.841,0ZM98.014,132.1H34.084C39.952,116,52,104.577,66.049,104.577S92.145,116,98.014,132.1Zm.007-88.065H34.083a64.539,64.539,0,0,1-3.811-22.016h71.553A64.546,64.546,0,0,1,98.02,44.032Z" transform="translate(379.259 345.484)" fill="#fff"/>
  </g>
</svg>
