<svg xmlns="http://www.w3.org/2000/svg" width="372.999" height="263.945" viewBox="0 0 372.999 263.945">
  <g id="Group_449" data-name="Group 449" transform="translate(5548.059 -2097.156) rotate(180)">
    <path id="Path_562" data-name="Path 562" d="M831.938-263.728a29.393,29.393,0,0,0,29.353,27.857c.893,0,1.776-.048,2.648-.125a39.053,39.053,0,0,0,33.745,19.428,39.053,39.053,0,0,0,33.763-19.4c.737.055,1.478.093,2.229.093a29.393,29.393,0,0,0,29.353-27.856" transform="translate(4578.408 -1905.375)" fill="#f2f2f2"/>
    <path id="Path_563" data-name="Path 563" d="M844.569-259.063a29.393,29.393,0,0,0,29.353,27.857c.893,0,1.775-.048,2.648-.125A39.053,39.053,0,0,0,910.315-211.9a39.052,39.052,0,0,0,33.763-19.4c.737.055,1.478.093,2.229.093a29.393,29.393,0,0,0,29.353-27.856" transform="translate(4571.899 -1907.779)" fill="none" stroke="#3f3d56" stroke-miterlimit="10" stroke-width="1"/>
    <path id="Path_564" data-name="Path 564" d="M155.988-525.136c2,38.55,34.121,69.2,73.46,69.2,2.236,0,4.444-.116,6.628-.31a98.106,98.106,0,0,0,84.451,48.257,98.105,98.105,0,0,0,84.5-48.178c1.842.138,3.7.23,5.578.23,39.337,0,71.46-30.647,73.459-69.2" transform="translate(5032.548 -1809.611)" fill="#f2f2f2"/>
    <path id="Path_565" data-name="Path 565" d="M197.794-509.035c2.1,38.445,35.838,69.008,77.152,69.008,2.348,0,4.667-.115,6.961-.309,18.366,29.779,52.149,48.109,88.7,48.125s70.348-18.283,88.745-48.046c1.936.137,3.885.23,5.858.23,41.314,0,75.053-30.563,77.152-69.008" transform="translate(4977.765 -1818.228)" fill="none" stroke="#3f3d56" stroke-miterlimit="10" stroke-width="1"/>
    <path id="Path_578" data-name="Path 578" d="M813.21-200.45a54.943,54.943,0,0,0,2.021,7.539c.876,2.4,1.984,4.439,3.219,4.439,2.994,0-10.481,12.726-10.481,12.726s-.846-1.572-2.246-3.691A52.186,52.186,0,0,0,802.371-184a25.038,25.038,0,0,0-5.63-5.218C790.754-192.962,813.21-200.45,813.21-200.45Z" transform="translate(4597.069 -1937.983)" fill="#a0616a"/>
    <path id="Path_579" data-name="Path 579" d="M909.556-326.631s30.02-18.967,20.77-22.083-24.573,19.166-24.573,19.166Z" transform="translate(4540.37 -1861.426)" fill="#a0616a"/>
    <path id="Path_580" data-name="Path 580" d="M814.152-269.824s14.378-10.484,18.579-18.46,26.047-25.7,26.047-25.7-4.51-8.911-6.689-8.374-47.136,33.981-51.865,36.69S802.7-266.229,814.152-269.824Z" transform="translate(4595.509 -1875.151)" fill="#40b858"/>
    <path id="Path_581" data-name="Path 581" d="M814.152-269.824s14.378-10.484,18.579-18.46,26.047-25.7,26.047-25.7-4.51-8.911-6.689-8.374-47.136,33.981-51.865,36.69S802.7-266.229,814.152-269.824Z" transform="translate(4595.509 -1875.151)" opacity="0.1"/>
    <path id="Path_582" data-name="Path 582" d="M915.116-271.493s33.685-11.229,25.453-16.469-28.447,12.726-28.447,12.726Z" transform="translate(4537.088 -1892.393)" fill="#a0616a"/>
    <path id="Path_583" data-name="Path 583" d="M861.568-608.948s14.223,5.989,12.726-2.994-8.235-17.218-8.235-21.71-12.726-14.223-14.972-11.978,3.743,11.229,2.246,16.469-2.994,17.218-2.994,17.218Z" transform="translate(4568.926 -1708.402)" fill="#55536e"/>
    <path id="Path_584" data-name="Path 584" d="M861.568-608.948s14.223,5.989,12.726-2.994-8.235-17.218-8.235-21.71-12.726-14.223-14.972-11.978,3.743,11.229,2.246,16.469-2.994,17.218-2.994,17.218Z" transform="translate(4568.926 -1708.402)" opacity="0.1"/>
    <path id="Path_585" data-name="Path 585" d="M852.3-622.849s14.223,5.989,12.726-2.994-8.235-17.218-8.235-21.71-12.726-14.223-14.972-11.978,3.743,11.229,2.246,16.469-2.994,17.218-2.994,17.218Z" transform="translate(4573.701 -1701.239)" fill="#55536e"/>
    <path id="Path_586" data-name="Path 586" d="M796.166-532.031s44.168-41.922,42.671-45.665-11.229-11.978-11.229-11.978S793.92-545.506,796.166-532.031Z" transform="translate(4596.898 -1737.408)" fill="#3f3d56"/>
    <path id="Path_587" data-name="Path 587" d="M796.166-532.031s44.168-41.922,42.671-45.665-11.229-11.978-11.229-11.978S793.92-545.506,796.166-532.031Z" transform="translate(4596.898 -1737.408)" opacity="0.1"/>
    <path id="Path_588" data-name="Path 588" d="M741.861-462.364S753.09-473.593,750.1-495.3s2.246-42.671,8.235-49.408,30.693-45.665,30.693-45.665-10.481-17.218-18.715-8.235-32.939,45.665-32.939,45.665-22.458,44.168-24.7,56.145-2.994,30.693,2.994,34.436,26.2,0,26.2,0Z" transform="translate(4640.722 -1731.466)" fill="#3f3d56"/>
    <path id="Path_589" data-name="Path 589" d="M812.961-166.679c8.744-1.812,7.876-2.164,13.25-4.05.03.09.06.165.09.239.824,1.962,1.34-.614,2.531-.614,2.994,0-10.481,12.726-10.481,12.726s-.509-.943-1.385-2.358c-.262-.412-.547-.861-.861-1.332-.262-.4-.547-.816-.846-1.25Z" transform="translate(4588.188 -1953.106)" opacity="0.1"/>
    <circle id="Ellipse_116" data-name="Ellipse 116" cx="14.223" cy="14.223" r="14.223" transform="translate(5402.795 -2130.198)" fill="#a0616a"/>
    <path id="Path_590" data-name="Path 590" d="M751.852-254.534s21.71-2.246,26.2-11.978-27.7-56.894-29.944-57.642-33.685-4.492-33.685-4.492,1.5,47.911,30.693,65.877C745.115-262.769,751.852-259.774,751.852-254.534Z" transform="translate(4638.965 -1871.921)" fill="#40b858"/>
    <path id="Path_591" data-name="Path 591" d="M803.378-231.12s16.469-6.737,22.458-13.474,31.442-18.715,31.442-18.715-2.246-9.732-4.492-9.732-53.9,21.709-59.14,23.206S791.4-230.369,803.378-231.12Z" transform="translate(4599.417 -1900.576)" fill="#40b858"/>
    <path id="Path_592" data-name="Path 592" d="M838.612-172.479s3.743,3.743-3.743,6.737c0,0,7.486,2.994,8.983,7.486s6.737,11.978,11.229,0,12.726-27.7-14.223-27.7c0,0-6.737-1.5-6.737,4.492a11.23,11.23,0,0,0,4.491,8.983Z" transform="translate(4577.283 -1945.367)" fill="#3f3d56"/>
  </g>
</svg>
