<svg xmlns="http://www.w3.org/2000/svg" width="758.426" height="756.236" viewBox="0 0 758.426 756.236">
  <g id="undraw_well_done_re_3hpo" transform="translate(0 2.968)">
    <path id="Path_251" data-name="Path 251" d="M758.426,519.528a1.715,1.715,0,0,1-1.72,1.72H1.72a1.72,1.72,0,1,1,0-3.44H756.705A1.715,1.715,0,0,1,758.426,519.528Z" transform="translate(0 232.021)" fill="rgba(63,61,86,0.29)"/>
    <path id="Path_252" data-name="Path 252" d="M369.67,461.059l8.673,36.138-26.019,7.228L346.542,465.4Z" transform="translate(154.395 206.737)" fill="#ffb6b6"/>
    <path id="Path_253" data-name="Path 253" d="M405.353,380.059l-27.465,23.128-17.346,27.465,24.574,15.9,41.92-47.7Z" transform="translate(160.632 170.65)" fill="#ffb6b6"/>
    <path id="Path_254" data-name="Path 254" d="M419.848,215.059l23.128,78.058S545.609,382.74,535.49,401.532s-78.059,70.831-78.059,70.831,5.042,16.641-9.766,9.766-30.709-25.667-30.709-25.667,0-14.455,7.228-11.564,40.475-36.138,40.475-36.138l-72.277-66.494V564.609s17.346,15.167,0,16.39-33.247,4.115-33.247,4.115-20.237-7.228-13.01-14.455L324.443,452.125l-15.9-144.553,11.564-75.168Z" transform="translate(137.464 97.137)" fill="#2f2e41"/>
    <path id="Path_255" data-name="Path 255" d="M357.643,484.841s1.445-5.782,7.228-5.782H382.53s5.469,24.574,4.024,24.574,23.129,31.8-2.891,33.247-33.247-1.446-33.247-1.446l-2.891-11.411s-4.337-7.381-2.891-13.163S357.643,484.841,357.643,484.841Z" transform="translate(153.412 214.757)" fill="#2f2e41"/>
    <path id="Path_256" data-name="Path 256" d="M391.283,434.1s16.6-.262,12.638,4.206S392.728,450,392.728,450s-17.194,34.693-25.22,28.188-21.037-78.781-16.7-87.455,10.119-8.673,10.119-8.673L387.6,398.1S371.045,438.434,391.283,434.1Z" transform="translate(155.911 171.541)" fill="#2f2e41"/>
    <path id="Path_257" data-name="Path 257" d="M362.571,146.1l5.782-36.138-39.029-15.9-5.782,54.93Z" transform="translate(144.147 43.228)" fill="#ffb6b6"/>
    <path id="Path_258" data-name="Path 258" d="M362.571,146.1l5.782-36.138-39.029-15.9-5.782,54.93Z" transform="translate(144.147 43.228)" opacity="0.1"/>
    <path id="Path_259" data-name="Path 259" d="M332.761,130.123l46.257-11.564,49.148,15.9s21.683,60.712,14.455,82.4-7.228,64.036-7.228,64.036-.723-18.5-42.643-5.492-72.277,11.564-72.277,11.564l-1.446-52.039L300.869,188.7a41.581,41.581,0,0,1,19.408-52.038l12.484-6.539Z" transform="translate(132.76 54.144)" fill="#e6e6e6"/>
    <g id="Group_365" data-name="Group 365" transform="translate(549.346 189.065)">
      <path id="uuid-1b03a630-7e31-41b5-b302-96493ff31189-135" d="M484.569,256.663c6.527,7.82,7.783,17.526,2.806,21.679s-14.3,1.18-20.83-6.643a25.492,25.492,0,0,1-5.46-10.73l-27.237-33.482,13.268-10.737,27.871,32.619A25.494,25.494,0,0,1,484.569,256.663Z" transform="translate(-356.054 -91.174)" fill="#ffb6b6"/>
      <path id="Path_260" data-name="Path 260" d="M389.511,129.878l-9.48,37.549,46.4,74.27,47.364,47.6,15.352-12.736-47.768-59.435-36.208-76.58Z" transform="translate(-380.031 -129.878)" fill="#e6e6e6"/>
    </g>
    <g id="Group_366" data-name="Group 366" transform="translate(598.264 -2.968)">
      <ellipse id="Ellipse_72" data-name="Ellipse 72" cx="59.989" cy="75.89" rx="59.989" ry="75.89" transform="translate(0 8.842) rotate(-4.227)" fill="#40b858"/>
      <rect id="Rectangle_69" data-name="Rectangle 69" width="2.891" height="288.293" transform="translate(66.865 155.79)" fill="#2f2e41"/>
      <path id="Path_261" data-name="Path 261" d="M467.033,100.594l.347,10.216L472,120.266l-19.261-.982,8.1-8.144-.915-9.282Z" transform="translate(-396.557 49.108)" fill="#40b858"/>
    </g>
    <g id="Group_367" data-name="Group 367" transform="translate(436.247 41.157)">
      <circle id="Ellipse_73" data-name="Ellipse 73" cx="39.801" cy="39.801" r="39.801" transform="translate(20.808 44.047)" fill="#ffb6b6"/>
      <path id="Path_262" data-name="Path 262" d="M359.222,57.9c1.152.672,2.694-.345,3.064-1.626a6.666,6.666,0,0,0-.487-3.905L359.651,46c-1.523-4.511-3.139-9.18-6.438-12.613-4.979-5.182-12.891-6.5-20.013-5.545-9.147,1.227-18.171,6.179-22.424,14.369s-2.442,19.618,5.242,24.728c-10.952,12.553-14.77,26.543-14.167,43.192s18.746,31.971,30.577,43.7c2.642-1.6,5.044-9.108,3.591-11.835s.629-5.886-1.171-8.4-3.3,1.488-1.486-1.01c1.148-1.576-3.332-5.2-1.626-6.145,8.253-4.562,11-14.85,16.182-22.728a38.72,38.72,0,0,1,28.278-17c6.238-.588,12.827.477,17.941,4.1s8.424,10.093,7.238,16.246a14.429,14.429,0,0,0-3-22.583,23.57,23.57,0,0,0-5-22.217c-5.333-5.88-26.965-4.878-34.751-3.331" transform="translate(-301.791 -27.557)" fill="#2f2e41"/>
      <path id="Path_263" data-name="Path 263" d="M350.776,68.641c-10.312,1.113-17.757,10.045-24.044,18.294-3.623,4.754-7.419,10-7.328,15.982.092,6.043,4.132,11.226,6.063,16.953a25.551,25.551,0,0,1-7.433,26.912c7.424,1.409,15.449-4.158,16.731-11.6,1.492-8.669-5.08-17.036-4.3-25.8.686-7.72,6.769-13.661,11.941-19.433s10.029-13.431,7.649-20.807" transform="translate(-294.554 -9.253)" fill="#2f2e41"/>
    </g>
    <path id="Path_264" data-name="Path 264" d="M424.872,234.558h-297.3A61.045,61.045,0,0,0,66.528,295.6V583.888a61.045,61.045,0,0,0,61.044,61.045h297.3a61.045,61.045,0,0,0,61.045-61.045V295.6A61.045,61.045,0,0,0,424.872,234.558Z" transform="translate(29.64 105.825)" fill="#fff"/>
    <path id="Path_265" data-name="Path 265" d="M425.318,646.823h-297.3a62.561,62.561,0,0,1-62.49-62.49V296.048a62.561,62.561,0,0,1,62.49-62.49h297.3a62.561,62.561,0,0,1,62.49,62.49V584.334A62.561,62.561,0,0,1,425.318,646.823Zm-297.3-410.374a59.666,59.666,0,0,0-59.6,59.6V584.334a59.666,59.666,0,0,0,59.6,59.6h297.3a59.666,59.666,0,0,0,59.6-59.6V296.048a59.666,59.666,0,0,0-59.6-59.6Z" transform="translate(29.194 105.379)" fill="#3f3d56"/>
    <circle id="Ellipse_74" data-name="Ellipse 74" cx="6.894" cy="6.894" r="6.894" transform="translate(416.249 354.955)" fill="#3f3d56"/>
    <circle id="Ellipse_75" data-name="Ellipse 75" cx="6.894" cy="6.894" r="6.894" transform="translate(435.207 354.955)" fill="#3f3d56"/>
    <circle id="Ellipse_76" data-name="Ellipse 76" cx="6.894" cy="6.894" r="6.894" transform="translate(454.164 354.955)" fill="#3f3d56"/>
    <path id="Path_266" data-name="Path 266" d="M103.213,448.631a3.888,3.888,0,0,0-3.884,3.884,3.92,3.92,0,0,0,3.884,3.884H414.143a3.888,3.888,0,0,0,3.884-3.884,3.92,3.92,0,0,0-3.884-3.884Z" transform="translate(44.254 201.201)" fill="#e6e6e6"/>
    <path id="Path_267" data-name="Path 267" d="M269.868,447.735v10.357H103.611a5.217,5.217,0,0,1-5.179-5.179,5.194,5.194,0,0,1,5.179-5.179Z" transform="translate(43.855 200.801)" fill="#40b858"/>
    <path id="Path_268" data-name="Path 268" d="M331.789,440.685H280a10.357,10.357,0,0,1,0-20.715h51.787a10.357,10.357,0,1,1,0,20.715Z" transform="translate(120.135 188.431)" fill="#e6e6e6"/>
    <g id="Group_368" data-name="Group 368" transform="translate(113.508 203.903)">
      <path id="Path_269" data-name="Path 269" d="M190.056,476.912l-36.2-121.638-2.771.824,36.075,121.211" transform="translate(-46.196 -44.296)" fill="#2f2e41"/>
      <ellipse id="Ellipse_77" data-name="Ellipse 77" cx="59.989" cy="75.89" rx="59.989" ry="75.89" transform="translate(74.101 8.842) rotate(-4.227)" fill="#ff6584"/>
      <rect id="Rectangle_70" data-name="Rectangle 70" width="2.891" height="288.293" transform="translate(140.966 155.79)" fill="#2f2e41"/>
      <path id="Path_270" data-name="Path 270" d="M156.707,352.836l3.246,9.692,7.122,7.748-18.741,4.551,5.438-10.114-3.524-8.636Z" transform="translate(-47.421 -45.382)" fill="#40b858"/>
      <path id="Path_271" data-name="Path 271" d="M182.946,243.7l.347,10.216,4.617,9.457-19.261-.982,8.1-8.144-.915-9.282Z" transform="translate(-38.37 -94.003)" fill="#40b858"/>
      <ellipse id="Ellipse_78" data-name="Ellipse 78" cx="59.989" cy="75.89" rx="59.989" ry="75.89" transform="matrix(0.934, -0.357, 0.357, 0.934, 0, 189.665)" fill="#c6d044"/>
    </g>
    <path id="uuid-b40723c2-846b-43d4-8d7a-d7be28bdc184-136" d="M354.511,228.252c9.751,2.944,16.136,10.362,14.262,16.567s-11.3,8.848-21.052,5.9a25.491,25.491,0,0,1-10.46-5.961l-41.158-13,5.181-16.263L342.5,227.427A25.492,25.492,0,0,1,354.511,228.252Z" transform="translate(131.923 97.334)" fill="#ffb6b6"/>
    <path id="Path_272" data-name="Path 272" d="M298.18,160.36l43.366-31.8L340.1,189.271,299.626,241.31l43.366,17.346-1.445,24.767s-54.93-13.2-63.6-14.649-15.9-21.683-15.9-21.683Z" transform="translate(116.747 58.599)" fill="#e6e6e6"/>
  </g>
</svg>
