<svg id="undraw_my_personal_files_re_3q0p" xmlns="http://www.w3.org/2000/svg" width="800.682" height="658.773" viewBox="0 0 800.682 658.773">
  <path id="Path_325" data-name="Path 325" d="M649.356,302.388H372.383A25.208,25.208,0,0,1,347.2,277.209V174.3a25.208,25.208,0,0,1,25.179-25.179H649.356A25.208,25.208,0,0,1,674.535,174.3V277.209a25.207,25.207,0,0,1-25.179,25.179Z" transform="translate(-223.613 -149.123)" fill="#fff"/>
  <path id="Path_326" data-name="Path 326" d="M649.356,302.388H372.383A25.208,25.208,0,0,1,347.2,277.209V174.3a25.208,25.208,0,0,1,25.179-25.179H649.356A25.208,25.208,0,0,1,674.535,174.3V277.209a25.207,25.207,0,0,1-25.179,25.179ZM372.383,151.312a23.016,23.016,0,0,0-22.99,22.99V277.209a23.016,23.016,0,0,0,22.99,22.99H649.356a23.016,23.016,0,0,0,22.99-22.99V174.3a23.016,23.016,0,0,0-22.99-22.99Z" transform="translate(-223.613 -149.123)" fill="#3f3d56"/>
  <path id="Path_327" data-name="Path 327" d="M732.744,308.388H585.423a12.178,12.178,0,0,1-2.758-.349,12.314,12.314,0,0,1-9.437-12.01V245.954a12.368,12.368,0,0,1,12.36-12.349H732.744a12.2,12.2,0,0,1,5.7,1.394,11.83,11.83,0,0,1,1.975,1.289,12.223,12.223,0,0,1,4.689,9.666v50.074A12.373,12.373,0,0,1,732.744,308.388Z" transform="translate(-202.196 -141.118)" fill="#fff"/>
  <path id="Path_328" data-name="Path 328" d="M709.917,305.1q10.034-24.386,21.14-48.29v27.018a131.254,131.254,0,0,1-17.428,21.271Z" transform="translate(-189.244 -138.919)" fill="#e6e6e6"/>
  <path id="Path_329" data-name="Path 329" d="M729.131,236.937q-19.853,35.618-41.546,70.152h-2.518q22.054-35.076,42.268-71.323A10.748,10.748,0,0,1,729.131,236.937Z" transform="translate(-191.599 -140.913)" fill="#e6e6e6"/>
  <path id="Path_330" data-name="Path 330" d="M640.37,260.53a446.44,446.44,0,0,1-28.584,44.228H596.777q14.747-17.965,29.515-35.93c2.824-3.449,5.89-7.061,10.126-8.462Z" transform="translate(-199.964 -138.582)" fill="#e6e6e6"/>
  <path id="Path_331" data-name="Path 331" d="M620.687,258.707c-1.565,1.631-3.065,3.328-4.478,5.091-3.109,3.744-6.174,7.521-9.25,11.287-1.916,2.343-3.832,4.686-5.726,7.028a13.99,13.99,0,0,1-1.708-1.292A15.317,15.317,0,1,1,619.1,257.259a14.143,14.143,0,0,1,1.585,1.448Z" transform="translate(-200.228 -139.211)" fill="#40b858"/>
  <path id="Path_332" data-name="Path 332" d="M706.473,270.041,677.7,259.521,663.416,254.3c-4.653-1.7-9.294-3.635-14.1-4.861a22.23,22.23,0,0,0-12.765.164,29.351,29.351,0,0,0-9.951,6.174q-1.9,1.757-3.689,3.624c-1.566,1.631-3.065,3.328-4.478,5.091-3.109,3.744-6.174,7.521-9.251,11.287-1.916,2.343-3.832,4.686-5.726,7.028q-9.491,11.61-18.873,23.274a10.965,10.965,0,0,1-2.5-.317q9.787-12.152,19.662-24.249c.755-.942,1.533-1.894,2.3-2.835q4.811-5.9,9.634-11.78c2.485-3.032,4.948-6.087,7.641-8.944.241-.263.482-.514.734-.777,5.463-5.649,12.283-10.641,20.45-10.773,4.806-.077,9.448,1.445,13.914,3.054,4.806,1.741,9.6,3.514,14.407,5.277l28.967,10.6,7.247,2.649C708.323,268.443,707.776,270.523,706.473,270.041Z" transform="translate(-201.357 -139.905)" fill="#e6e6e6"/>
  <path id="Path_333" data-name="Path 333" d="M732.744,308.388H585.423a12.178,12.178,0,0,1-2.758-.349,12.314,12.314,0,0,1-9.437-12.01V245.954a12.368,12.368,0,0,1,12.36-12.349H732.744a12.2,12.2,0,0,1,5.7,1.394,11.83,11.83,0,0,1,1.975,1.289,12.223,12.223,0,0,1,4.689,9.666v50.074A12.373,12.373,0,0,1,732.744,308.388ZM585.587,235.795a10.176,10.176,0,0,0-10.17,10.159v50.074a10.134,10.134,0,0,0,7.767,9.884,9.993,9.993,0,0,0,2.252.286H732.744a10.182,10.182,0,0,0,10.17-10.17V245.954A10.055,10.055,0,0,0,739.052,238a9.706,9.706,0,0,0-1.621-1.059,10.039,10.039,0,0,0-4.687-1.148Z" transform="translate(-202.196 -141.118)" fill="#3f3d56"/>
  <path id="Path_334" data-name="Path 334" d="M471.871,353.191H259.489a25.208,25.208,0,0,1-25.179-25.179V290.79a25.208,25.208,0,0,1,25.179-25.179H471.871a25.208,25.208,0,0,1,25.179,25.179v37.222a25.208,25.208,0,0,1-25.179,25.179Z" transform="translate(-234.31 -138.085)" fill="#fff"/>
  <path id="Path_335" data-name="Path 335" d="M471.871,353.191H259.489a25.208,25.208,0,0,1-25.179-25.179V290.79a25.208,25.208,0,0,1,25.179-25.179H471.871a25.208,25.208,0,0,1,25.179,25.179v37.222a25.208,25.208,0,0,1-25.179,25.179ZM259.489,267.8a23.016,23.016,0,0,0-22.99,22.99v37.222A23.016,23.016,0,0,0,259.489,351H471.871a23.016,23.016,0,0,0,22.99-22.99V290.79a23.016,23.016,0,0,0-22.99-22.99Z" transform="translate(-234.31 -138.085)" fill="#3f3d56"/>
  <path id="Path_336" data-name="Path 336" d="M317.824,330.443H283.68a6.891,6.891,0,0,1-6.884-6.884V291.618a6.891,6.891,0,0,1,6.884-6.884h34.143a6.892,6.892,0,0,1,6.884,6.884v31.941A6.891,6.891,0,0,1,317.824,330.443Z" transform="translate(-230.284 -136.273)" fill="#40b858"/>
  <path id="Path_337" data-name="Path 337" d="M373.455,330.443H339.311a6.891,6.891,0,0,1-6.884-6.884V291.618a6.891,6.891,0,0,1,6.884-6.884h34.144a6.891,6.891,0,0,1,6.884,6.884v31.941A6.891,6.891,0,0,1,373.455,330.443Z" transform="translate(-225.013 -136.273)" fill="#e6e6e6"/>
  <path id="Path_338" data-name="Path 338" d="M429.086,330.443H394.943a6.891,6.891,0,0,1-6.884-6.884V291.618a6.892,6.892,0,0,1,6.884-6.884h34.143a6.892,6.892,0,0,1,6.884,6.884v31.941A6.891,6.891,0,0,1,429.086,330.443Z" transform="translate(-219.741 -136.273)" fill="#e6e6e6"/>
  <path id="Path_339" data-name="Path 339" d="M513.207,205.369h-43.79a4.379,4.379,0,0,1,0-8.758h43.79a4.379,4.379,0,1,1,0,8.758Z" transform="translate(-212.447 -144.623)" fill="#ccc"/>
  <path id="Path_340" data-name="Path 340" d="M607.451,227.369H468.417a4.379,4.379,0,0,1,0-8.758H607.451a4.379,4.379,0,0,1,0,8.758Z" transform="translate(-212.542 -142.538)" fill="#ccc"/>
  <circle id="Ellipse_84" data-name="Ellipse 84" cx="29.36" cy="29.36" r="29.36" transform="translate(175.605 39.049)" fill="#40b858"/>
  <path id="Path_341" data-name="Path 341" d="M739.462,475.876H462.489A25.208,25.208,0,0,1,437.31,450.7V347.79a25.208,25.208,0,0,1,25.179-25.179H739.462a25.208,25.208,0,0,1,25.179,25.179V450.7A25.208,25.208,0,0,1,739.462,475.876Z" transform="translate(-215.075 -132.684)" fill="#fff"/>
  <path id="Path_342" data-name="Path 342" d="M739.462,475.876H462.489A25.208,25.208,0,0,1,437.31,450.7V347.79a25.208,25.208,0,0,1,25.179-25.179H739.462a25.208,25.208,0,0,1,25.179,25.179V450.7A25.208,25.208,0,0,1,739.462,475.876ZM462.489,324.8a23.016,23.016,0,0,0-22.99,22.99V450.7a23.016,23.016,0,0,0,22.99,22.99H739.462a23.016,23.016,0,0,0,22.99-22.99V347.79a23.016,23.016,0,0,0-22.99-22.99Z" transform="translate(-215.075 -132.684)" fill="#3f3d56"/>
  <path id="Path_343" data-name="Path 343" d="M563.26,360.623H516.736a4.443,4.443,0,1,1,0-8.886H563.26a4.443,4.443,0,1,1,0,8.886Z" transform="translate(-207.97 -129.924)" fill="#40b858"/>
  <path id="Path_344" data-name="Path 344" d="M667.549,377.222H516.736a4.443,4.443,0,0,1,0-8.885H667.549a4.443,4.443,0,1,1,0,8.885Z" transform="translate(-207.97 -128.351)" fill="#e6e6e6"/>
  <path id="Path_345" data-name="Path 345" d="M667.549,396.275H516.736a4.443,4.443,0,0,1,0-8.886H667.549a4.443,4.443,0,1,1,0,8.886Z" transform="translate(-207.97 -126.546)" fill="#e6e6e6"/>
  <path id="Path_346" data-name="Path 346" d="M667.55,415.327H516.736a4.443,4.443,0,1,1,0-8.885H667.55a4.443,4.443,0,1,1,0,8.885Z" transform="translate(-207.97 -124.741)" fill="#e6e6e6"/>
  <path id="Path_347" data-name="Path 347" d="M667.549,434.38H516.736a4.443,4.443,0,0,1,0-8.886H667.549a4.443,4.443,0,1,1,0,8.886Z" transform="translate(-207.97 -122.935)" fill="#e6e6e6"/>
  <path id="Path_348" data-name="Path 348" d="M600.449,589.993h-15.2l-7.233-58.639h22.438Z" transform="translate(54.769 50.348)" fill="#ffb6b6"/>
  <path id="Path_349" data-name="Path 349" d="M837.352,750.714l-46.75,0v-.591a18.2,18.2,0,0,1,18.195-18.2h0l8.54-6.479,15.932,6.48h4.081Z" transform="translate(-181.598 -94.513)" fill="#2f2e41"/>
  <path id="Path_350" data-name="Path 350" d="M700.348,563.526l-12.435,8.742-39.645-43.806,18.355-12.906Z" transform="translate(61.426 48.851)" fill="#ffb6b6"/>
  <path id="Path_351" data-name="Path 351" d="M942.509,721.4l-38.243,26.889-.34-.484a18.2,18.2,0,0,1,4.419-25.351h0l3.259-10.211,16.76-3.864,3.339-2.348Z" transform="translate(-171.175 -96.354)" fill="#2f2e41"/>
  <path id="Path_352" data-name="Path 352" d="M896.373,468.11l1.263,2.7c8.3,17.739,10.426,37.568,7.2,56.886a3.221,3.221,0,0,0,.129,2.292c2,2.347-1.139,12.544-2.938,18.239L900.4,558.294s2.689,9.351-1.4,8.664,2,9.287-1.9,11.786L887,641.5l42.176,69.511-15.621,22.65-62.482-80.446-.781-72.635-9.372,58.577-.781,92.161-28.418-3.021L801.31,638.943l9.931-123.569L826.861,461.8Z" transform="translate(-180.584 -119.495)" fill="#2f2e41"/>
  <path id="Path_353" data-name="Path 353" d="M727.567,448.816a8.478,8.478,0,0,1,11.8-.81,8.161,8.161,0,0,1,.935.966l27.849-9.961,10.026,12.353-39.626,9.521a8.455,8.455,0,0,1-10.311-.49,8.091,8.091,0,0,1-.82-11.413Q727.492,448.9,727.567,448.816Z" transform="translate(-187.773 -121.654)" fill="#ffb6b6"/>
  <path id="Path_354" data-name="Path 354" d="M876.279,320.611l-22.99,1.095L842.3,340.7l-15.62,4.686-13.277,32.8,8.143,102.258s1.632,6.185-1.374,5.282-1.781,6.848-1.781,6.848L807.31,535.183l100.717-8.758-5.592-45.142s7.775.251,2.308-5.216-8.126-3.726-2.874-10.189,6.033-11.15,6.033-11.15l2.343-32.022,3.863-45.066a43.3,43.3,0,0,0-16.359-37.723h0Z" transform="translate(-180.015 -132.873)" fill="#40b858"/>
  <path id="Path_355" data-name="Path 355" d="M921.166,528.707a8.479,8.479,0,0,0-2.1-11.637,8.154,8.154,0,0,0-1.165-.671l2.847-29.44-14.43-6.7.46,40.751a8.455,8.455,0,0,0,3,9.877,8.091,8.091,0,0,0,11.267-2C921.084,528.83,921.125,528.768,921.166,528.707Z" transform="translate(-170.642 -117.746)" fill="#ffb6b6"/>
  <path id="Path_356" data-name="Path 356" d="M901.593,349.91S934.7,428.773,933.7,459.058L922.751,514.89,907.425,513.8l1.095-50.359c5.592-5.717-17.813-38.009-25.528-60.735Z" transform="translate(-172.844 -130.097)" fill="#40b858"/>
  <path id="Path_357" data-name="Path 357" d="M832.406,342.526s-41.1,74.836-57.015,96.847L763.31,448.81v15.327l28.093.62S833.187,430,831.625,412.818,832.406,342.526,832.406,342.526Z" transform="translate(-184.185 -130.797)" fill="#40b858"/>
  <circle id="Ellipse_85" data-name="Ellipse 85" cx="29.155" cy="29.155" r="29.155" transform="translate(655.187 124.153)" fill="#ffb6b6"/>
  <path id="Path_358" data-name="Path 358" d="M873.843,319.278c-8.366-.274-9.126-2.484-17.493-2.759-2.664-.087-5.807-.453-7.1-2.786-.917-1.662-.5-3.755.312-5.473a50.014,50.014,0,0,0,2.577-5.07,8.855,8.855,0,0,0-8.774-11.675c-2.546.11-4.937,1.307-7.476,1.526-3.482.3-11.182-11.2-9.579-14.3,1.561-3.023,4.7-5.3,5.194-8.67.323-2.2-.586-4.389-.71-6.611-.184-3.294,8.166,4.133,6.637,1.21-3.751-7.171,31.6-16.062,37.418-7.079,2.175,3.357,6.051,3.128,9.506,5.144,2.264,1.321,7.982,5.88,9.282,8.722a22.121,22.121,0,0,1,1.656,9.154c.052,14.576-2.168,27.983-13.926,36.6" transform="translate(-178.235 -139.204)" fill="#2f2e41"/>
  <path id="Path_359" data-name="Path 359" d="M750.993,749.609a53.287,53.287,0,0,1-42.979-16.033c-7.215-7.607-12.166-17.4-16.955-26.867-1.394-2.755-2.835-5.6-4.3-8.336a17.005,17.005,0,0,1,1.765-18.974,16.719,16.719,0,0,1,17.847-5.7l.7.2,6.288,24.538c.938-3.66,2.952-11.906,4.223-19.986l.107-.677.626.279a85.544,85.544,0,0,1,18.377,11.074,88.16,88.16,0,0,1,32.965,66.389l.017.763Z" transform="translate(-191.637 -99.481)" fill="#40b858"/>
  <path id="Path_360" data-name="Path 360" d="M991.025,750.8l-305.163.337a1.3,1.3,0,0,1,0-2.607l305.163-.336a1.3,1.3,0,0,1,0,2.607Z" transform="translate(-191.647 -92.358)" fill="#cacaca"/>
</svg>
