<svg id="undraw_fans_re_cri3" xmlns="http://www.w3.org/2000/svg" width="897.991" height="817.031" viewBox="0 0 897.991 817.031">
  <path id="Path_400" data-name="Path 400" d="M982.308,731.36H323.578V619.528H333.74V536.289a74.055,74.055,0,0,1,73.971-73.971H899.37a74.055,74.055,0,0,1,73.972,73.971v83.239h8.966Z" transform="translate(-205.05 -39.076)" fill="#e4e4e4"/>
  <path id="Path_401" data-name="Path 401" d="M1009.944,839.77H977.152v-.6a109.514,109.514,0,0,0-109.39-109.39H457.7a109.514,109.514,0,0,0-109.39,109.39v.6H315.518a28.211,28.211,0,0,1-28.179-28.179V628.782c-9.522-5.38-17.267-34.6-12.237-57.933,3.157-14.644,12.271-32.329,37.761-33.424,24.814-1.067,43.232,22.229,44.877,44.653A48.364,48.364,0,0,1,348,615.012h.311v26.079C402.118,623.848,456,615.074,508.479,615.012a490.214,490.214,0,0,1,157.843,26.269c105.665-34.176,210.235-34.841,310.83-1.969v-24.3h.311a48.364,48.364,0,0,1-9.741-32.934c1.8-24.6,21.924-44.628,44.85-44.654h.076c27.035,0,36.6,16.276,39.859,29.937,5.772,24.176-4.825,56-14.384,61.421V811.59A28.211,28.211,0,0,1,1009.944,839.77Z" transform="translate(-214.837 -24.398)" fill="#cacaca"/>
  <path id="Path_402" data-name="Path 402" d="M511.829,651.091,527.658,662.4,578.8,606.726l-23.362-16.687Z" transform="translate(100.071 115.363)" fill="#ffb6b6"/>
  <path id="Path_403" data-name="Path 403" d="M738.371,742.665l4.455,3.183,22.447,5.353,4.27,13.732h0a24.414,24.414,0,0,1,5.673,34.056l-.461.646-51.037-36.459Z" transform="translate(-126.816 15.737)" fill="#2f2e41"/>
  <path id="Path_404" data-name="Path 404" d="M851.675,638.1H735.451a40.879,40.879,0,0,1,0-81.757H851.675a40.879,40.879,0,0,1,0,81.757Z" transform="translate(-132.514 -20.693)" fill="#2f2e41"/>
  <path id="Path_405" data-name="Path 405" d="M791.047,385.962l18.746,14.275,22.608,6.948s9.347,131.472,17.769,139.894.826,8.648,2.519,19.589,5.805,33.367,5.805,33.367c-56.847,30.092-105.855,30.9-145.221-4.313a9.805,9.805,0,0,1,5.35-11.067c7.327-3.888-6.754-22.033-.766-25.066s-2.434-29.352-2.434-29.352l5.525-54.91-4.365-8.777,10.651-53.709,18.483-6.75L753.1,388.3Z" transform="translate(-128.907 -54.005)" fill="#40b858"/>
  <path id="Path_406" data-name="Path 406" d="M788.11,285.885a16.251,16.251,0,0,0,18.528,16.664l26.42,51.353,14.72-26.153-27.346-44.756a16.339,16.339,0,0,0-32.322,2.892Z" transform="translate(-114.228 -76.674)" fill="#ffb6b6"/>
  <path id="Path_407" data-name="Path 407" d="M830.289,293.8l56.667,87.828-.187.4c-.214.463-13.046,28.177-25.48,53.562-1.915,3.909-3.82,7.763-5.668,11.454q-1.2,2.389-2.358,4.679c-5.222,10.3-9.785,18.805-12.509,22.847a47.967,47.967,0,0,1-25.417,19.282l-.262.067-.25-.1a24.342,24.342,0,0,1-14.486-26.777,172.42,172.42,0,0,1,31.993-72.334l9.187-12.109-31.925-69.408Z" transform="translate(-111.912 -72.024)" fill="#40b858"/>
  <path id="Path_408" data-name="Path 408" d="M753.191,276.885a16.251,16.251,0,0,1-18.527,16.664L708.244,344.9l-14.72-26.152,27.346-44.756a16.339,16.339,0,0,1,32.322,2.892Z" transform="translate(-132.719 -78.434)" fill="#ffb6b6"/>
  <path id="Path_409" data-name="Path 409" d="M715.484,284.8l-56.667,87.828.187.4c.214.463,13.046,28.177,25.48,53.562,1.915,3.909,3.82,7.763,5.669,11.454q1.2,2.389,2.357,4.679c5.222,10.3,9.785,18.805,12.509,22.847a47.966,47.966,0,0,0,25.418,19.282l.262.068.25-.1a24.342,24.342,0,0,0,14.486-26.777,172.417,172.417,0,0,0-31.993-72.333L704.254,373.6l31.925-69.408Z" transform="translate(-139.505 -73.784)" fill="#40b858"/>
  <circle id="Ellipse_96" data-name="Ellipse 96" cx="37.081" cy="37.081" r="37.081" transform="translate(605.866 249.85)" fill="#ffb6b6"/>
  <path id="Path_410" data-name="Path 410" d="M737.72,324.253c3.05-8.872,18.23-15.025,42.84-15.881s30.852,28.146,30.852,28.146c16.429,13.327-17.543,49.008-19.186,47.723l.739-6.7c1.224-11.1,6.424-19.768-.189-31.34l-6.35.073-12.043,2.316a3.484,3.484,0,0,1-2.96-6.036l.11-.1-.274-.424c-4.243,1.946-8.615,3.751-13.253,4.024-5.218.307-10.923-1.77-13.423-6.361a10.687,10.687,0,0,1-1.2-4.067c-7.037,2.811-10.254,11.486-10.254,11.486S734.671,333.125,737.72,324.253Z" transform="translate(-124.976 -69.178)" fill="#2f2e41"/>
  <path id="Path_411" data-name="Path 411" d="M607.817,637.276l-14.846,12.57-55.549-51.278,21.909-18.552Z" transform="translate(105.075 113.403)" fill="#ffb6b6"/>
  <path id="Path_412" data-name="Path 412" d="M842.956,748.706l-47.867,40.531-.513-.605a24.415,24.415,0,0,1,2.854-34.407h0l3.126-14.037,21.931-7.18,4.178-3.538Z" transform="translate(-114.092 13.157)" fill="#2f2e41"/>
  <path id="Path_413" data-name="Path 413" d="M754.581,628.915l12.27-26.609c-.138-24.271-20.455-43.983-44.679-42.462-13.49.847-26.123,8.392-31.342,30.818-13.421,57.666,118.263,177.669,118.263,177.669l24.2-14.953,1.115-15.8-13.551-8.352-.012-13.473-12.921-6.129Z" transform="translate(-133.433 -20.024)" fill="#2f2e41"/>
  <path id="Path_414" data-name="Path 414" d="M823.1,622.645l-15.167-22.3c-1.858-24.2,16.769-45.516,41.036-45.992,13.514-.265,26.724,6.216,33.77,28.137,18.117,56.367-103.254,186.792-103.254,186.792L754.14,756.368l-2.41-15.652,12.818-9.438-1.1-13.428,12.374-7.171Z" transform="translate(-121.339 -21.083)" fill="#2f2e41"/>
  <path id="Path_415" data-name="Path 415" d="M770.637,463.12v7.125H747.014V463.12h7.316V445.952l-6.838,3.921v-7.7l10.52-5.978h5.26V463.12Z" transform="translate(-122.261 -44.183)" fill="#fff"/>
  <path id="Path_416" data-name="Path 416" d="M771.785,466.235q-3.371-4.495-3.371-13.007,0-8.368,3.371-12.84a12.723,12.723,0,0,1,19.367,0q3.371,4.472,3.371,12.84,0,8.512-3.371,13.007a12.679,12.679,0,0,1-19.368,0Zm12.983-4.758a24.22,24.22,0,0,0,1-8.249,23.425,23.425,0,0,0-1-8.082,3.432,3.432,0,0,0-6.6,0,23.419,23.419,0,0,0-1,8.082,24.214,24.214,0,0,0,1,8.249,3.423,3.423,0,0,0,6.6,0Z" transform="translate(-118.077 -44.238)" fill="#fff"/>
  <path id="Path_417" data-name="Path 417" d="M335.99,677.638H317.852l-8.63-69.968h26.772Z" transform="translate(60.458 118.81)" fill="#a0616a"/>
  <path id="Path_418" data-name="Path 418" d="M565.7,795.248l-55.782,0v-.706a21.713,21.713,0,0,1,21.71-21.712h0l10.189-7.73,19.011,7.731H565.7Z" transform="translate(-168.617 20.123)" fill="#2f2e41"/>
  <path id="Path_419" data-name="Path 419" d="M438.973,677.638h18.138l8.629-69.968H438.968Z" transform="translate(85.826 118.81)" fill="#a0616a"/>
  <path id="Path_420" data-name="Path 420" d="M662.871,795.248l55.782,0v-.706a21.713,21.713,0,0,0-21.71-21.712h0l-10.189-7.73L667.74,772.83h-4.869Z" transform="translate(-138.713 20.123)" fill="#2f2e41"/>
  <path id="Path_421" data-name="Path 421" d="M532.993,710.508c.268-3.992,2.4-26.072,2.4-26.072l5.1-46.824,8.992-124.121.587-8.125,47.1-9.043,32.194-15.434,38.266,12.232,29.8,11.174s.051,4.783.281,10.561c.306,7.564.842,16.837,2.117,19.248,2.13,4.26,1.594,27.13,1.594,27.13s2.117,46.531,4.783,51.633,3.2,15.727,2.4,17.857,2.666,58.011,2.666,58.011,8.9,98.888,3.318,113.8-26.7,5.144-26.7,5.144,1.02-3.979-5.1-5.855S658.02,659.73,658.02,659.73s-3.469-28.75-6.658-36.99-6.122-31.391-6.122-31.391-19.694-38.317-19.949-46.837c0,0-2.577-7.972-5.013.8s-9.617,29.8-9.617,29.8l-7,25.817-8.24,38.572-5.332,32.475s-7.985,43.1-9.26,44.962,0,41.238,0,41.238-6.174,33.533-14.9,39.388-31.84.093-31.84.093S532.725,714.5,532.993,710.508Z" transform="translate(-164.113 -35.445)" fill="#2f2e41"/>
  <path id="Path_422" data-name="Path 422" d="M327.935,302.468l10.471,27.42L325.485,343.26l5.689,5.089-4.2,7.2-10.945,75.42,60,19.781,20.2-22.021,15.931,22.021L481.6,436l-17.7-96.178v-6.287l-5-12.14v-25.7l22.959-76.507-49.158-12-18.839-12.962-6.1,18.229L381.8,208.441l-.677-13.693-19.86,16.31-26.48,4.147-20.025,3.981-2.551,5.544,5.1-1.109,8.929,72.128Z" transform="translate(61.042 37.975)" fill="#2f2e41"/>
  <path id="Path_423" data-name="Path 423" d="M587.323,336.727l12.813-33.607,32.73-.6,10.861,34.207L682.764,554.8s-119.594,33.3-118.381-6.729c1.275-42.092,7.031-98,7.031-98Z" transform="translate(-157.97 -70.319)" fill="#3f3d56"/>
  <circle id="Ellipse_97" data-name="Ellipse 97" cx="38.556" cy="38.556" r="38.556" transform="translate(419.243 146.288)" fill="#a0616a"/>
  <path id="Path_424" data-name="Path 424" d="M573.618,243.7c6.277-6.832,14.128-19.338,37.909-24.59,29.385-6.489,43.271,20.056,35.86,20.492,21.669,6.562,7.749,51.4,1.537,47.643a1.817,1.817,0,0,1-.154-.12A30.523,30.523,0,0,1,636.58,266.3L635.4,255.689c-.168,8.634-8.993,9.776-18.008,6.6a11.31,11.31,0,0,1,7.99-7.868c-5.514,5.087-12.692,8.726-22.72,9.886,1.231-4.764,3.683-8.271,7.521-10.349l-.356-.35c-3.674,2.8-7.5,5.483-11.92,6.749-4.97,1.424-10.924.654-14.329-3.236a10.571,10.571,0,0,1-2.037-3.665c.736,6.838-3.85,14.643-7.413,13.3C571.167,266.178,569.44,248.249,573.618,243.7Z" transform="translate(-156.649 -86.827)" fill="#2f2e41"/>
  <path id="Path_425" data-name="Path 425" d="M649.126,265.6,684.191,324.6l25.917-12.241s-44.659-55.778-46.082-57.383a13.723,13.723,0,1,0-14.9,10.63Z" transform="translate(-143.787 -82.886)" fill="#a0616a"/>
  <path id="Path_426" data-name="Path 426" d="M662.768,405.068l54.42-39.2a31.451,31.451,0,0,0,5.324-46.186l-39.165-44.927-17.062,23.12,13.151,27.5-25.464,6.714Z" transform="translate(-140.452 -75.748)" fill="#2f2e41"/>
  <path id="Path_427" data-name="Path 427" d="M593.174,270.243l-35.065,58.993L532.191,317s44.659-55.778,46.081-57.383a13.723,13.723,0,1,1,14.9,10.63Z" transform="translate(-164.262 -81.98)" fill="#a0616a"/>
  <path id="Path_428" data-name="Path 428" d="M580.037,409.706l-54.42-39.2a31.451,31.451,0,0,1-5.324-46.186l39.165-44.927,17.062,23.12-13.151,27.5,25.464,6.715Z" transform="translate(-168.103 -74.842)" fill="#2f2e41"/>
  <path id="Path_429" data-name="Path 429" d="M619.153,382.466a7.7,7.7,0,0,1,1.817,5.213,8.205,8.205,0,0,1-1.722,5.212,10.8,10.8,0,0,1-4.758,3.371,21.245,21.245,0,0,1-13.915,0,10.8,10.8,0,0,1-4.758-3.371,8.205,8.205,0,0,1-1.722-5.212,7.851,7.851,0,0,1,1.817-5.284,9.487,9.487,0,0,1,5.117-2.942,9.534,9.534,0,0,1-4.448-2.941,7.129,7.129,0,0,1-1.626-4.662,7.753,7.753,0,0,1,1.65-4.926,10.434,10.434,0,0,1,4.5-3.228,18.969,18.969,0,0,1,12.864,0,10.436,10.436,0,0,1,4.5,3.228,7.752,7.752,0,0,1,1.65,4.926,7.322,7.322,0,0,1-1.65,4.758,8.947,8.947,0,0,1-4.376,2.893,9.8,9.8,0,0,1,5.069,2.965Zm-7.891,7.269a3.127,3.127,0,0,0,1.434-2.773,3.492,3.492,0,0,0-1.386-2.869,5.428,5.428,0,0,0-7.556,0,3.489,3.489,0,0,0-1.386,2.869,3.127,3.127,0,0,0,1.434,2.773,7.75,7.75,0,0,0,7.46,0ZM604.5,370.2a3.168,3.168,0,0,0-1.172,2.7q0,3.157,4.208,4.208,4.207-1.051,4.208-4.208a3.169,3.169,0,0,0-1.172-2.7A5.653,5.653,0,0,0,604.5,370.2Z" transform="translate(-152.16 -58.578)" fill="#fff"/>
  <path id="Path_430" data-name="Path 430" d="M254.809,286.971a10.208,10.208,0,0,0,15.571,1.6L302.8,304.857l-2.208-18.721-30.443-12.6a10.264,10.264,0,0,0-15.334,13.43Z" transform="translate(-218.847 -76.501)" fill="#9e616a"/>
  <path id="Path_431" data-name="Path 431" d="M384.93,361.593l-16.14-11.131s-18.482-1.253-21.262-7.129-3.248-3.9-6.211-4.6-4.492-9.547-9.46-8.5c-11.176,2.347-63.735-32.382-58.063-36.723l4.217-17.78A57.254,57.254,0,0,0,291.839,279c7.149.652,23.991,8.82,26.486,11.5s6.914,1.64,12.841,3.045,8,10.939,17.83,8.4c13.831-3.569,85.483,30.416,93.235,33.588,8.508,3.482,14.449,13.86,14.449,13.86l-2.343,9.878Z" transform="translate(-214.867 -75.558)" fill="#40b858"/>
  <path id="Path_432" data-name="Path 432" d="M239.681,670.51h14.066l6.694-54.256H239.68Z" transform="translate(46.862 120.488)" fill="#9e616a"/>
  <path id="Path_433" data-name="Path 433" d="M460.738,762.092l22.473-1.341v9.628l21.366,14.756A6.014,6.014,0,0,1,501.16,796.1H474.4l-4.612-9.524-1.8,9.524H457.9Z" transform="translate(-178.787 19.273)" fill="#2f2e41"/>
  <path id="Path_434" data-name="Path 434" d="M92.211,659.885l13.069,5.2,26.286-47.934-19.288-7.677Z" transform="translate(18.029 119.163)" fill="#9e616a"/>
  <path id="Path_435" data-name="Path 435" d="M318.546,751.028l21.376,7.065-3.561,8.946,14.393,21.612a6.014,6.014,0,0,1-7.23,8.922l-24.858-9.9-.762-10.554-5.2,8.183-9.372-3.731Z" transform="translate(-209.008 17.372)" fill="#2f2e41"/>
  <path id="Path_436" data-name="Path 436" d="M462.855,676.46,439.4,567,402.77,688.62l-58,115.331-.307.612-18.372-9.892c-2.593-46.829,3.565-90.712,26.088-129.085l10.665-105.323c.327-3.6,8.282-88.087,33.473-103.069l7.378-16.822,73.375-18.122.267.3a56.1,56.1,0,0,1,13.441,28.174L512.7,583.548l.012.074-5.879,92.66,8.041,136.7h-29.1Q458.782,762.18,462.855,676.46Z" transform="translate(-204.667 -46.91)" fill="#2f2e41"/>
  <path id="Path_437" data-name="Path 437" d="M496.031,251.306a10.208,10.208,0,0,1-.415,15.647l11.982,34.24-18.282-4.6-8.575-31.81a10.264,10.264,0,0,1,15.29-13.48Z" transform="translate(-174.678 -80.844)" fill="#9e616a"/>
  <path id="Path_438" data-name="Path 438" d="M374.631,502.189c-1.976,0-3.1-.387-3.533-1.218-.638-1.22.469-2.813,1.75-4.659.894-1.286,3.5-3.843,2.22-4-19.465-2.377-10.121-122.384-1.685-138.247,1.714-3.223-.1-8.168,1.831-13.638,5.272-14.938,12.469-19.529,26.806-28.673q1.746-1.114,3.635-2.326c1.63-1.047,1.539-4.52,1.443-8.2-.106-4.087-.217-8.314,1.785-10.955l.13-.172.21-.049c4.843-1.12,21.131-3.2,30.777.015l.133.045.1.1c2.291,2.291,2.5,6.73,2.7,11.022.165,3.524.322,6.851,1.618,8.3,9.911,11.047,21.152,10.832,21.266,10.83l.557-.016.055.554c6.949,13.226,1.508,62.344,6.338,92.855,4.907,31,46.813,57.384,10.93,62.069a.777.777,0,0,1,.025.805C481.556,480.678,382.079,502.189,374.631,502.189ZM482.7,476.473Z" transform="translate(-197.23 -73.089)" fill="#40b858"/>
  <path id="Path_439" data-name="Path 439" d="M525.047,354.931l-19.917,9.879c-38.378,14.742-58.435,11.151-68.512,5.547-10.752-5.98-12.616-15.148-12.689-15.535l-.006-.187,2.457-19.461a17.58,17.58,0,0,1,21.776-14.834L493.976,332l-.836-22.242,1.812-8.009-3.343-9.735,1.37-19.551,16.436-4.023,17.24,30.88-3.1,8.523,2.918,4.243-.006.2Z" transform="translate(-185.431 -76.982)" fill="#40b858"/>
  <path id="Path_440" data-name="Path 440" d="M429.071,353.838v6.7l-14.824,27.353h-9.564l14.776-26.923H403.774v-7.125Z" transform="translate(-189.37 -60.286)" fill="#fff"/>
  <path id="Path_441" data-name="Path 441" d="M1121,791.865l-895.144.367a1.423,1.423,0,1,1,0-2.847L1121,789.018a1.423,1.423,0,1,1,0,2.847Z" transform="translate(-224.434 24.8)" fill="#cacaca"/>
  <path id="Path_442" data-name="Path 442" d="M753.729,224.186c11.012-23.413,2.1-50.783-13.811-58.267s-42.677,3.106-53.689,26.52c-10.193,21.672-2.6,47.055,10.469,56.3a1.793,1.793,0,0,0-.6.313l-3.14,2.586a1.82,1.82,0,0,0,.418,3.067l7.92,3.52a1.819,1.819,0,0,0,2.556-1.745l-.185-4.064a1.791,1.791,0,0,0-.078-.417C719.057,256.253,743.514,245.9,753.729,224.186Z" transform="translate(-135.069 -97.491)" fill="#c8d05c"/>
  <path id="Path_443" data-name="Path 443" d="M737.291,186.44a29.932,29.932,0,0,1-17.1,37.51c-1.621.674-.327,3.079,1.283,2.409a32.729,32.729,0,0,0,18.479-40.516C739.4,184.19,736.737,184.775,737.291,186.44Z" transform="translate(-127.651 -93.324)" fill="#fff"/>
  <path id="Path_444" data-name="Path 444" d="M914.537,291.564c22.282-13.151,30.325-40.789,21.387-55.932s-37.021-21.458-59.3-8.307C856,239.5,847.982,264.752,853.578,279.752a1.8,1.8,0,0,0-.676-.082l-4.051.37a1.819,1.819,0,0,0-1.381,2.77l4.564,7.368a1.819,1.819,0,0,0,3.1,0l2.135-3.463a1.816,1.816,0,0,0,.17-.388C867.829,298.548,893.867,303.764,914.537,291.564Z" transform="translate(-102.673 -86.418)" fill="#ed6f85"/>
  <path id="Path_445" data-name="Path 445" d="M919.1,252.571a29.932,29.932,0,0,1-35.248,21.376c-1.719-.355-2,2.36-.3,2.713a32.729,32.729,0,0,0,38.081-23.083C922.115,251.9,919.581,250.882,919.1,252.571Z" transform="translate(-95.789 -80.255)" fill="#fff"/>
  <path id="Path_446" data-name="Path 446" d="M789.541,205.9a42.937,42.937,0,0,1,1.769-38.993c.957-1.661,1.909-3.673,4.006-3.992a3.559,3.559,0,0,1,3.907,2.1,4.663,4.663,0,0,1-7.705,4.65c-3.976-3.2-3.471-8.841-3.089-13.379.871-10.34.858-21.2-3.542-30.82-4.07-8.9-12.379-16.352-22.414-17.166-1.756-.142-1.855,2.586-.108,2.727,9.952.807,17.74,9.006,21.048,17.98a50.1,50.1,0,0,1,2.748,16.8c.031,2.934-.1,5.868-.33,8.793a48.506,48.506,0,0,0-.267,8.594c.468,4.679,3.3,9.7,8.357,10.443,4.719.7,9.329-4.24,8.052-8.931a6.406,6.406,0,0,0-10.254-3.04c-1.773,1.48-2.925,4.022-3.936,6.053a45.669,45.669,0,0,0-.652,39.466c.749,1.59,3.155.3,2.409-1.283Z" transform="translate(-119.506 -108.294)" fill="#e18a46"/>
  <path id="Path_447" data-name="Path 447" d="M479.494,306.371c-1.028-1.877-2.8-7.245-4.782-7.173a23.673,23.673,0,0,1-6.049-.514c-.215-.036-.43-.084-.634-.132a112.946,112.946,0,0,0-25.62-3.347c-6.97-.1-14.621.741-19.487,5.726S418.773,316.2,425.48,318.1a86.471,86.471,0,0,1-64.128-14.215c-11.871-8.345-21.388-19.523-31.454-29.972s-21.161-20.515-34.73-25.632-30.187-4.411-41.126,5.141c-13.342,11.644-14.37,31.681-14.382,49.387-.012,6.623,2.056,5.224,7.9,8.345,5.428,2.893,11.13,8.847,14.442,3.67s3.9-11.573,4.579-17.682,1.662-12.541,5.535-17.311c6.659-8.2,19.774-8.285,28.967-3.084s15.374,14.3,21.22,23.1,12.015,17.909,21.2,23.145c12.063,6.874,27.21,5.858,39.8,11.716,8,3.73,14.466,9.982,21.1,15.781s13.928,11.381,22.548,13.258,18.829-.956,23.061-8.691c3.814-6.994,1.949-15.948,5.344-23.169,2.618-5.571,7.962-9.265,12.78-13.115,1.985-1.59,2.5,3.885,4.184,1.949C477.186,319.748,481.753,310.5,479.494,306.371Z" transform="translate(-221.457 -81.541)" fill="#3f3d56"/>
  <circle id="Ellipse_98" data-name="Ellipse 98" cx="37.776" cy="37.776" r="37.776" transform="translate(186.739 139.386)" fill="#2f2e41"/>
  <circle id="Ellipse_99" data-name="Ellipse 99" cx="27.148" cy="27.148" r="27.148" transform="matrix(1, -0.028, 0.028, 1, 198.881, 164.552)" fill="#9e616a"/>
  <path id="Path_448" data-name="Path 448" d="M420.31,233.36l-11.005.312a26.194,26.194,0,0,0-25.422,26.895l.007.244.2.126a34.733,34.733,0,0,0,20.211,5.75l.619-.018,6.081-.275A16.8,16.8,0,0,0,412,258.11a55.879,55.879,0,0,1,2.144,8.139l27.284-1.242a6.093,6.093,0,0,0,5.79-6.234A26.194,26.194,0,0,0,420.31,233.36Z" transform="translate(-193.261 -83.843)" fill="#2f2e41"/>
  <path id="Path_449" data-name="Path 449" d="M410.829,231.529c-2.484,3.063-6.472,4.339-10.056,6a43,43,0,0,0-24.082,32.11c-.844,5.625-.549,11.414-1.979,16.915s-5.168,10.963-10.738,12.069c-3.769.754-7.607-.6-11.21-1.943q-2.972-1.1-5.945-2.205,2.847-7.778,5.685-15.556a77.98,77.98,0,0,1-10.975,13.6q-10.652-3.948-21.323-7.9c17.306-.425,13.877-17.139,17.271-34.1,1.865-9.322,19.808-16.106,23.111-25.019a26.967,26.967,0,0,1,48.825-3.841C413.007,222.977,413.266,228.5,410.829,231.529Z" transform="translate(-205.709 -88.824)" fill="#2f2e41"/>
  <circle id="Ellipse_100" data-name="Ellipse 100" cx="14.067" cy="14.067" r="14.067" transform="translate(192.783 125.806)" fill="#2f2e41"/>
</svg>
