<svg id="undraw_appreciate_it_re_yc8h" xmlns="http://www.w3.org/2000/svg" width="721.913" height="801.151" viewBox="0 0 721.913 801.151">
  <path id="Path_273" data-name="Path 273" d="M507.829,256.626v37.53c-4.676,9.045-9.263,20.8-13.753,35.52,0,0,6.879,22.969,13.753,50.721v79.38H336.136L324.21,476.694H291.52v74.353h53.3V722.187h11.072V551.048h31.3V722.187h11.072V551.048H506.768V722.187H517.84V551.048h42.074V722.187h11.072l-.443-171.139h11.639V256.626Z" transform="translate(69.437 61.125)" fill="#ccc"/>
  <g id="Group_371" data-name="Group 371" transform="translate(56.525 615.447)">
    <path id="Path_274" data-name="Path 274" d="M166.351,546.515c-1.045-1.763-5.568.125-6.4-1.475s3.373-4.023,5.774-9.571c.433-1,3.161-7.306,1.141-9.251-3.828-3.688-21.346,11.531-27.476,6.551-1.345-1.093-2.285-3.275-6.357-6.817-1.62-1.409-2.6-2.046-3.547-1.809-1.345.336-1.452,2.136-2.894,5.676-2.163,5.309-3.442,4.988-4.7,9.223-.936,3.145-.722,4.972-1.823,5.328-1.558.5-2.992-2.831-4.966-2.532-2.015.3-3.233,4.187-3.618,7.094-.722,5.456,1.281,9.056,2.392,12.841,1.207,4.114,1.923,10.37-.864,19.226L85.427,658.715c6.09-15.947,23.722-59.663,31.131-75.907,2.139-4.689,4.5-9.446,9.349-11.323,4.669-1.808,11.08-.729,19.254-2.7.955-.23,3.6-.9,3.937-2.462.276-1.288-1.283-2.007-1.043-3.214.321-1.618,3.385-1.638,7.151-3.505a22.282,22.282,0,0,0,5.732-4.229c.429-.406,6.8-6.515,5.412-8.862h0Z" transform="translate(-36.177 -490.615)" fill="#64b663"/>
    <path id="Path_275" data-name="Path 275" d="M67.3,576.428c-1.167,0-1.545,2.769-2.57,2.716s-1-2.817-3.031-5.6c-.366-.5-2.674-3.66-4.211-3.229-2.915.815-.5,13.8-4.713,15.375-.925.345-2.267.177-5.18,1.153-1.159.388-1.754.686-1.911,1.219-.223.757.63,1.329,1.951,3.058,1.981,2.593,1.455,3.129,3.17,4.969,1.273,1.366,2.232,1.789,2.089,2.432-.2.91-2.253.652-2.676,1.707-.432,1.077,1.123,2.795,2.438,3.822,2.469,1.929,4.814,1.984,6.993,2.531,2.367.595,5.644,2.048,9.187,5.971l30.185,35.962c-6.07-7.59-22.438-28.857-28.274-37.181-1.685-2.4-3.338-4.934-2.86-7.856.46-2.813,2.839-5.648,4.231-10.228.163-.535.6-2.03-.072-2.643-.553-.507-1.355.05-1.878-.415-.7-.625.173-2.135.343-4.521a12.69,12.69,0,0,0-.422-4.034c-.075-.328-1.234-5.219-2.788-5.213h0Z" transform="translate(-45.651 -479.614)" fill="#64b663"/>
    <path id="Path_276" data-name="Path 276" d="M82.074,584.716l-.7-6.276.321-.476a11.61,11.61,0,0,0,2.253-6.387c0-.324-.014-.648-.029-.979a9.815,9.815,0,0,1,.712-4.833c.476-1.057,1.812-3.506,3.821-3.2a2.276,2.276,0,0,1,1.261.615c.045-.073.092-.146.142-.224a6.908,6.908,0,0,1,1.6-1.757,8.059,8.059,0,0,0,1.339-1.354c.261-.324.464-.609.635-.848a2.946,2.946,0,0,1,2.4-1.572,3.145,3.145,0,0,1,2.392,1.818,15.127,15.127,0,0,1,1.389,2.745,4.724,4.724,0,0,0,.235.539c.412.606,3.762.039,5.024-.167,2.835-.473,5.288-.882,6.3.906.724,1.278.186,2.969-1.647,5.16a10.235,10.235,0,0,1-1.718,1.606,2.1,2.1,0,0,1,1.009,1.318h0c.382,1.521-.926,3.045-3.885,4.536a10.45,10.45,0,0,1-3.11,1.109,12.169,12.169,0,0,1-1.744.155,2.065,2.065,0,0,1-.256.93c-.52.954-1.6,1.409-3.232,1.3A25.326,25.326,0,0,1,92,578.64a11.1,11.1,0,0,0-2.888-.43c-1.427.115-2.527,1.258-3.818,2.739l-3.223,3.766h0Z" transform="translate(-37.143 -482.677)" fill="#64b663"/>
    <path id="Path_277" data-name="Path 277" d="M90.332,553.79l-5.892,2.272-.542-.19a11.614,11.614,0,0,0-6.75-.559c-.314.081-.624.178-.939.276a9.817,9.817,0,0,1-4.856.537c-1.144-.192-3.851-.864-4.067-2.884a2.275,2.275,0,0,1,.275-1.375l-.253-.081a6.908,6.908,0,0,1-2.105-1.1,8.072,8.072,0,0,0-1.65-.952c-.38-.17-.707-.294-.982-.4a2.947,2.947,0,0,1-2.129-1.918,3.145,3.145,0,0,1,1.152-2.775,15.134,15.134,0,0,1,2.3-2.04,4.786,4.786,0,0,0,.462-.364c.482-.552-.916-3.649-1.436-4.818-1.176-2.622-2.194-4.891-.721-6.322,1.053-1.025,2.825-.933,5.409.284a10.257,10.257,0,0,1,1.989,1.255,2.1,2.1,0,0,1,1.019-1.311h0c1.375-.755,3.18.123,5.373,2.607a10.449,10.449,0,0,1,1.862,2.727,12.237,12.237,0,0,1,.592,1.648,2.067,2.067,0,0,1,.965.011c1.055.261,1.769,1.192,2.077,2.8a25.338,25.338,0,0,1,.448,4.611,11.09,11.09,0,0,0,.316,2.9c.473,1.351,1.857,2.125,3.618,3l4.461,2.162h0Z" transform="translate(-42.14 -489.114)" fill="#64b663"/>
    <path id="Path_278" data-name="Path 278" d="M82.074,539.609l-.7-6.275.321-.476a11.611,11.611,0,0,0,2.253-6.387c0-.324-.014-.648-.029-.979a9.815,9.815,0,0,1,.712-4.833c.476-1.058,1.812-3.506,3.821-3.2a2.276,2.276,0,0,1,1.261.615c.045-.073.092-.146.142-.224a6.9,6.9,0,0,1,1.6-1.757,8.072,8.072,0,0,0,1.339-1.354c.261-.324.464-.609.635-.848a2.946,2.946,0,0,1,2.4-1.573,3.145,3.145,0,0,1,2.392,1.818,15.127,15.127,0,0,1,1.389,2.745,4.74,4.74,0,0,0,.235.539c.412.606,3.762.039,5.024-.167,2.835-.473,5.288-.882,6.3.906.724,1.279.186,2.969-1.647,5.16a10.259,10.259,0,0,1-1.718,1.606,2.1,2.1,0,0,1,1.009,1.318h0c.382,1.521-.926,3.045-3.885,4.536a10.447,10.447,0,0,1-3.11,1.109,12.169,12.169,0,0,1-1.744.155,2.065,2.065,0,0,1-.256.93c-.52.955-1.6,1.409-3.232,1.3A25.337,25.337,0,0,1,92,533.533a11.1,11.1,0,0,0-2.888-.43c-1.427.115-2.527,1.258-3.818,2.74l-3.223,3.766h0Z" transform="translate(-37.143 -493.421)" fill="#64b663"/>
    <path id="Path_279" data-name="Path 279" d="M90.567,661.273l-1.315-.824-.318-1.518.318,1.518-1.533.176c-.024-.142-.108-.47-.233-.982a219.43,219.43,0,0,1-4.524-24.792,252.771,252.771,0,0,1-2.05-28.689c-.142-9.666.315-16.984.682-22.865.277-4.436.614-8.66.944-12.775.879-10.994,1.707-21.378,1.091-32.874a30.46,30.46,0,0,0-3.544-13.593,28.864,28.864,0,0,0-7.413-8.7l1.933-2.43a32.023,32.023,0,0,1,8.2,9.636,33.359,33.359,0,0,1,3.922,14.92c.627,11.7-.211,22.184-1.1,33.283-.327,4.1-.664,8.306-.939,12.723-.364,5.827-.817,13.081-.676,22.623a249.7,249.7,0,0,0,2.023,28.337A216,216,0,0,0,90.5,658.9c.361,1.476.436,1.785.067,2.37Z" transform="translate(-39.216 -493.274)" fill="#64b663"/>
    <path id="Path_280" data-name="Path 280" d="M70.362,524.069c-.127,0-.256,0-.386-.012-2.642-.142-5.089-1.724-7.274-4.7-1.024-1.4-1.548-3-2.594-6.181a38.757,38.757,0,0,1-1.429-6.409c-.314-2.239-.274-3.176.17-4a4.735,4.735,0,0,1,2.186-2,1.754,1.754,0,0,1,.121-.915c.529-1.294,1.935-1.124,2.7-1.042a7.649,7.649,0,0,0,1.383.085,3.9,3.9,0,0,0,1.917-.646,8.627,8.627,0,0,1,2.6-1.021,9.253,9.253,0,0,1,4.882.388c3.356,1.118,5.01,3.727,6.925,6.748a23.683,23.683,0,0,1,2.557,5.836,6.939,6.939,0,0,1,.348,3.873c-.382,1.482-1.283,2.33-3.572,4.2a41.6,41.6,0,0,1-4.621,3.539c-2.4,1.385-3.9,2.254-5.9,2.254Z" transform="translate(-42.597 -497.055)" fill="#64b663"/>
  </g>
  <path id="Path_281" data-name="Path 281" d="M721.913,632.8h0a1.04,1.04,0,0,1-1.04,1.04H0v-2.08H720.873A1.04,1.04,0,0,1,721.913,632.8Z" transform="translate(0 150.477)" fill="rgba(0,0,0,0.29)"/>
  <g id="Group_374" data-name="Group 374" transform="translate(202.438 0)">
    <g id="Group_372" data-name="Group 372" transform="translate(96.268 216.482)">
      <path id="uuid-ab5b4137-23bf-44b0-b8fd-0caecc79ac33-89" d="M267.645,184.049c-7.328-8.562-17.686-11.721-23.134-7.057s-3.923,15.385,3.409,23.949a28.2,28.2,0,0,0,10.7,7.934l31.508,35.885,16.525-15.145-32.815-33.769A28.207,28.207,0,0,0,267.645,184.049Z" transform="translate(-241.245 -174.838)" fill="#ffb6b6"/>
      <path id="Path_282" data-name="Path 282" d="M498.93,222.312s6.891,31.544-20.461,41.6-98.234,48.678-103.481,46.909-22.412,6.87-42.672-11.562-69.2-74-69.2-74l20.133-27.343,75.8,52.364a65.652,65.652,0,0,1,8.807-1.226c7.185-.745,1.566,3.788,12.8-5.278s82.975-41.553,82.975-41.553,21.05-10.431,35.3,20.089h0Z" transform="translate(-236.037 -169.34)" fill="#2f2e41"/>
    </g>
    <path id="Path_283" data-name="Path 283" d="M317.209,573.238l11.144,35.907L297.4,630.195l-22.287-19.811s8.667-30.955,4.953-38.384Z" transform="translate(-136.91 136.244)" fill="#ffb6b6"/>
    <path id="Path_284" data-name="Path 284" d="M443.256,162l17.754,39.164-51.945,32.29-2.954-46.69Z" transform="translate(-105.708 38.586)" fill="#ffb6b6"/>
    <path id="Path_285" data-name="Path 285" d="M443.256,162l17.754,39.164-51.945,32.29-2.954-46.69Z" transform="translate(-105.708 38.586)" opacity="0.1" style="isolation: isolate"/>
    <circle id="Ellipse_79" data-name="Ellipse 79" cx="37.721" cy="37.721" r="37.721" transform="translate(279.413 160.06)" fill="#ffb6b6"/>
    <path id="Path_286" data-name="Path 286" d="M414.423,219.907,467.665,184,459,487.356s-43.956-76.149-77.387-79.863c0,0,3.715-8.667,6.191-13.62s6.191-29.717,6.191-29.717l17.335-133.724,3.1-10.525Z" transform="translate(-111.543 43.827)" fill="#40b858"/>
    <path id="Path_287" data-name="Path 287" d="M451.662,533.788,404.61,367.871S412.04,234.147,462.186,184l11.763,17.954s11.631,1.726,9.53,9.53,46.188,295.064,46.188,295.064H479.618S475.187,533.788,451.662,533.788Z" transform="translate(-106.065 43.827)" fill="#2f2e41"/>
    <path id="Path_288" data-name="Path 288" d="M417.043,213.953V209s-22.907,1.857-24.145,15.477-11.144,66.862-1.238,99.055l-12.382,19.811-8.667,47.051,27.24,7.429,14.858-114.259s9.906-60.325,4.334-69.612Z" transform="translate(-114.163 49.781)" fill="#2f2e41"/>
    <path id="Path_289" data-name="Path 289" d="M490.207,415.908s21.049,60.671-23.525,61.909-114.016,1.238-114.016,1.238L318.1,497.629,328,632.591l-69.339,1.238S236.378,467.912,256.189,448.1s76.768-40.86,76.768-40.86l65.624-33.431,18.456-22.4Z" transform="translate(-143.371 83.701)" fill="#2f2e41"/>
    <path id="Path_290" data-name="Path 290" d="M459.787,190.964c2.63-.935,27.252-29.791,6.76-48.908,0,0-7.985-23.354-39.829-20.9S386.3,141.018,386.3,150.069s8.432,19.227,8.432,19.227-5.983-24.873,7.49-23.649,9.8,6.124,19.6,3.674,19.6,1.225,19.6,1.225l9.8,3.674v14.943s4.272-3.428,4.586,0S459.787,190.964,459.787,190.964Z" transform="translate(-110.426 28.814)" fill="#2f2e41"/>
    <path id="Path_291" data-name="Path 291" d="M283.138,427.187,281.9,465.57,233.611,456.9s20.734-34.123,17.8-43.683Z" transform="translate(-146.795 98.424)" fill="#ffb6b6"/>
    <path id="Path_292" data-name="Path 292" d="M294.39,450.106s8.667,0,8.667,4.953,13.62,43.337-12.382,44.575-24.764-3.715-24.764-3.715-73.053,33.431-99.055-16.1c0,0-6.191-12.382,8.667-14.858s74.291-23.209,74.291-23.209S284.485,455.059,294.39,450.106Z" transform="translate(-163 105.221)" fill="#2f2e41"/>
    <path id="Path_293" data-name="Path 293" d="M331.044,603.854s8.667-10.5,9.905-9.584,28.478,31.871,9.906,40.539-28.478,12.382-28.478,12.382l-4.953-7.429s-37.146,35.907-94.1,11.144c0,0-4.953-11.144,6.191-13.62s58.195-40.207,58.195-40.207,19.811,14.205,29.717,11.729S331.044,603.854,331.044,603.854Z" transform="translate(-149.507 141.535)" fill="#2f2e41"/>
    <path id="Path_294" data-name="Path 294" d="M417.7,372.814S301.926,314,292.02,314s-28.839,4.075-32.992,23.087-28.917,110.637-28.917,110.637l60.671,14.858,23.526-65.624,38.384,34.669,65-38.764Z" transform="translate(-147.629 74.791)" fill="#2f2e41"/>
    <g id="Group_373" data-name="Group 373" transform="translate(197.163 247.605)">
      <path id="uuid-9122ce6e-50cf-4901-97fd-d5a56bf7c6b1-90" d="M341.122,344.827c-11.15,1.637-19.344,8.716-18.3,15.813s10.926,11.52,22.08,9.881a28.2,28.2,0,0,0,12.417-4.824l47.157-7.531-4.006-22.054L354.4,345.877A28.206,28.206,0,0,0,341.122,344.827Z" transform="translate(-322.731 -167.547)" fill="#ffb6b6"/>
      <path id="Path_295" data-name="Path 295" d="M495.38,200.482s30.363,10.983,24.293,39.487S508.5,349.032,504.205,352.528s-6.133,22.625-32.527,29.942-102.135,39.7-102.135,39.7l-9.769-52.2,84.708-36.224a65.633,65.633,0,0,1,3.657-8.1c3.2-6.477,4.039.694,2.36-13.647s9.069-92.354,9.069-92.354,2.394-23.371,35.813-19.159Z" transform="translate(-313.907 -199.974)" fill="#2f2e41"/>
    </g>
    <path id="Path_296" data-name="Path 296" d="M267.957,17.255h0c-.153.149-.294.305-.445.455A61.034,61.034,0,0,0,182,17.247h0a61.036,61.036,0,0,0-1.816,85.72l-.015.015.571.588h0l84.491,86.994L352.816,105.5l-.244-.251c.147-.14.3-.27.446-.412h0a61.046,61.046,0,0,0,1.26-86.322h0a61.045,61.045,0,0,0-86.322-1.26h0Z" transform="translate(-163.495 0)" fill="#ff6584"/>
  </g>
</svg>
