<svg xmlns="http://www.w3.org/2000/svg" width="838.761" height="726.631" viewBox="0 0 838.761 726.631">
  <g id="Group_436" data-name="Group 436" transform="translate(-3621 -3726)">
    <path id="Path_361" data-name="Path 361" d="M542.559,689.466l9.161-29.835a100.7,100.7,0,0,0-40.252-26.968c15.058,24.946.467,57.489,6.547,85.985a60.571,60.571,0,0,0,32.442,41.277l13.9,17.225a101.5,101.5,0,0,0,7.46-84.655,98.042,98.042,0,0,0-11.352-21.819C552.206,680.389,542.559,689.466,542.559,689.466Z" transform="translate(3427.34 3668.36)" fill="#64b663"/>
    <path id="Path_362" data-name="Path 362" d="M501.487,690.328l-5.106-30.789a100.7,100.7,0,0,0-48.054-6.186c24.6,15.612,26.056,51.247,44.208,74.04A60.571,60.571,0,0,0,539.98,749.87l20.125,9.217a101.5,101.5,0,0,0-31.078-79.1,98.029,98.029,0,0,0-19.891-14.466C506.073,677.9,501.487,690.328,501.487,690.328Z" transform="translate(3418.039 3671.31)" fill="#64b663"/>
    <path id="Path_363" data-name="Path 363" d="M524.211,623.722H510.1l-6.713-54.428h20.827Z" transform="translate(3695.146 3814.132)" fill="#ffb6b6"/>
    <path id="Path_364" data-name="Path 364" d="M764.976,767.006l-45.5,0v-.575a17.71,17.71,0,0,1,17.708-17.709h0l8.311-6.306L761,748.721h3.972Z" transform="translate(3457.979 3684.526)" fill="#2f2e41"/>
    <path id="Path_365" data-name="Path 365" d="M727.151,576.636l-9.621,10.322-44.393-32.2,14.2-15.234Z" transform="translate(3720.15 3809.748)" fill="#ffb6b6"/>
    <path id="Path_366" data-name="Path 366" d="M970.3,714.5l-31.023,33.284-.421-.393a17.71,17.71,0,0,1-.881-25.029h0l1.054-10.379,15.186-7.044,2.708-2.905Z" transform="translate(3489.463 3678.577)" fill="#2f2e41"/>
    <path id="Path_367" data-name="Path 367" d="M968.274,702.912l-14.915,31.194-91.588-60.64-13.324-18.154L804.76,595.787,787,623.966l-12.357,29.456h0a32.473,32.473,0,0,0-14.542,23.7l-.565,5.215,7.808,70.194-29.678,9.113-17.045-94.3,5.572-20.433,5.737-28.682,28.882-90.636H838.1l44.329,94.356,3.241,19.226L898.237,655.6Z" transform="translate(3458.148 3652.884)" fill="#2f2e41"/>
    <path id="Path_368" data-name="Path 368" d="M803.436,398.341l13.01,9.907,15.69,4.821s6.487,91.243,12.331,97.087.573,6,1.748,13.594,4.029,23.157,4.029,23.157c-39.452,20.884-73.464,21.444-100.784-2.994a6.8,6.8,0,0,1,3.713-7.681c5.085-2.7-4.688-15.291-.532-17.4s-1.689-20.37-1.689-20.37l3.834-38.108-3.029-6.092,7.392-37.274,12.827-4.685,5.124-12.345Z" transform="translate(3462.37 3633.846)" fill="#ff6584"/>
    <path id="Path_369" data-name="Path 369" d="M803.588,545.75a11.279,11.279,0,0,1,12.858-11.565l18.336-35.639L845,516.7l-18.978,31.061a11.339,11.339,0,0,1-22.431-2.007Z" transform="translate(3470.367 3648.605)" fill="#ffb6b6"/>
    <path id="Path_370" data-name="Path 370" d="M833.206,549.922l39.327-60.953-.13-.28c-.149-.321-9.054-19.555-17.683-37.172-1.329-2.713-2.651-5.388-3.934-7.949q-.83-1.658-1.636-3.247c-3.624-7.145-6.791-13.051-8.681-15.856a33.288,33.288,0,0,0-17.64-13.382l-.182-.047-.174.072a16.893,16.893,0,0,0-10.053,18.583,119.655,119.655,0,0,0,22.2,50.2l6.375,8.4-22.156,48.17Z" transform="translate(3471.629 3635.715)" fill="#ff6584"/>
    <path id="Path_371" data-name="Path 371" d="M715.188,328.952a11.278,11.278,0,0,1-2.706,17.081l8.2,39.232L701.315,377.6l-4.816-36.08a11.339,11.339,0,0,1,18.689-12.566Z" transform="translate(3454.41 3623.042)" fill="#ffb6b6"/>
    <path id="Path_372" data-name="Path 372" d="M696.505,351.3l7.831,72.115.277.136c.229.112,10.15,4.979,22.328,10.774,2.054.977,1.76,5.213,3.907,6.225,1.479.7,5.385-1.833,6.879-1.134,13.311,6.225,26.771,12.278,32.135,13.918a33.288,33.288,0,0,0,22.13-.713l.171-.078.089-.166a16.893,16.893,0,0,0-3.892-20.767A119.657,119.657,0,0,0,739.5,406.591l-10.245-2.514-13.121-51.371Z" transform="translate(3454.595 3626.916)" fill="#ff6584"/>
    <circle id="Ellipse_86" data-name="Ellipse 86" cx="25.735" cy="25.735" r="25.735" transform="translate(4226.199 3976.631)" fill="#ffb6b6"/>
    <path id="Path_373" data-name="Path 373" d="M762.532,358.735c2.116-6.157,12.652-10.427,29.731-11.021s21.411,19.533,21.411,19.533c11.4,9.249-12.175,34.012-13.316,33.12l.513-4.652c.849-7.706,4.458-13.719-.131-21.75l-4.407.051L779.259,377.3,786,371.366l-.19-.294a26.073,26.073,0,0,1-9.2,2.793c-3.621.213-7.581-1.228-9.316-4.414a7.416,7.416,0,0,1-.832-2.823c-4.883,1.951-7.117,7.972-7.117,7.972S760.415,364.892,762.532,358.735Z" transform="translate(3463.852 3626.386)" fill="#2f2e41"/>
    <path id="Path_374" data-name="Path 374" d="M324.979,358.879a13.806,13.806,0,0,0-1.126-1.261c.1-.135.2-.281.294-.416Z" transform="translate(3399.706 3627.786)" fill="#2f2e41"/>
    <path id="Path_375" data-name="Path 375" d="M338.816,462.943c-4.21,7.477-12.617,11.65-20.95,13.694a52.35,52.35,0,0,1-28.477-.551c-1.175-.379-2.35-.82-3.488-1.31a30.071,30.071,0,0,0,1.3-4.466,30.626,30.626,0,0,0,.636-6.253,19.748,19.748,0,0,1-3.561,4.907,18.012,18.012,0,0,1-3.733,3,36.651,36.651,0,0,1-10.83-10.059c.183-.453.367-.906.539-1.359a48.817,48.817,0,0,0,2.1-7.269,49.694,49.694,0,0,0,1.04-10.169,31.954,31.954,0,0,1-5.8,7.979,26.014,26.014,0,0,1-2.227,2.117,29.282,29.282,0,0,1,1.762-22.529c4.846-8.958,14.244-14.281,22.615-20.069s16.765-13.62,17.475-23.789c.477-6.865-2.7-13.743-1.432-20.5a15.837,15.837,0,0,1,26.9-8.138c-4.748,6.731-9.472,13.694-11.393,21.7-1.958,8.15-.355,17.708,6.07,23.1,2.2,1.86,4.907,3.182,6.608,5.507,2.264,3.084,2.276,7.2,2.643,10.989.734,7.379,3.145,14.477,4.442,21.783S342.438,456.469,338.816,462.943Z" transform="translate(3390.874 3627.226)" fill="#2f2e41"/>
    <path id="Path_376" data-name="Path 376" d="M19.519,583.726l11.169,8.629,38.6-38.973L52.8,540.646Z" transform="translate(3623.875 3809.913)" fill="#a0616a"/>
    <path id="Path_377" data-name="Path 377" d="M257.331,706.039,275.8,718.627l-5.845,7.564,7.828,24.562a5.971,5.971,0,0,1-9.34,6.538L247.424,741.05l2.158-10.281-7.2,6.389-7.925-6.124Z" transform="translate(3386.539 3679.167)" fill="#2f2e41"/>
    <path id="Path_378" data-name="Path 378" d="M303.369,381.29a26.659,26.659,0,1,0,45.853-18.49l-.128-.128c-.213-.224-.427-.448-.651-.661a.01.01,0,0,1-.008,0,.011.011,0,0,1,0-.008c-.277-.256-.554-.512-.842-.757-4.692-4.116-11.286-8.584-18.015-8.584C314.849,352.659,303.369,366.563,303.369,381.29Z" transform="translate(3396.688 3627.116)" fill="#2f2e41"/>
    <path id="Path_379" data-name="Path 379" d="M447.1,366.837a9.765,9.765,0,0,1-10.575,10.6l-66.014,59.6L359.154,419.1l68.461-52.946a9.818,9.818,0,0,1,19.487.684Z" transform="translate(3404.906 3627.879)" fill="#a0616a"/>
    <path id="Path_380" data-name="Path 380" d="M345.7,450.469s2.456,4.536,10.846-2.468c6.717-5.608,38.9-29.953,45.829-39.929a7.671,7.671,0,0,0,9.032-2.623l-18.995-16.635c-5.683.654-5.561,4.472-4.97,6.64l-14.328,6.492-37,23.646,7.752,21.631Z" transform="translate(3401.511 3632.442)" fill="#40b858"/>
    <path id="Path_381" data-name="Path 381" d="M79.089,345.315,77.706,351.9l-1.175,24.3,51.725,2.843-1.606-37.381-5.014-8.238Z" transform="translate(3632.273 3779.39)" fill="#a0616a"/>
    <circle id="Ellipse_87" data-name="Ellipse 87" cx="22.354" cy="22.354" r="22.354" transform="translate(3710.929 3992.219)" fill="#a0616a"/>
    <path id="Path_382" data-name="Path 382" d="M297.755,461.711l-.138-18.582a29.573,29.573,0,0,1,22.9-28.825l.084-.02,4.42-5.956,17.959,1.8,3.292,6.727,13.013,7.749,5.01,16.106a19.048,19.048,0,0,1,8.231,12.757c1.7,10.866-5.906,21.737-6.812,22.984l-2.332,13.131-50.722,8.95-.412.052Z" transform="translate(3395.842 3635.318)" fill="#40b858"/>
    <path id="Path_383" data-name="Path 383" d="M362.776,382.584a76.232,76.232,0,0,1-8.1,4.467,46.606,46.606,0,0,1-8.836,3.194,30.517,30.517,0,0,0-3.182-5.421,19.713,19.713,0,0,1,.025,6.057,31.558,31.558,0,0,1-15.064-1.236l-4.21-7.061-.318,7.881c-3.488.637-6.963,1.236-10.451,1.86-.208.024-.416.073-.612.11-2.166-9.765.906-20.522,7.734-27.032a24.6,24.6,0,0,1,25.845-5.017c.551.22,1.113.465,1.652.722a.013.013,0,0,0,0,.009.011.011,0,0,0,.009,0c.318.159.587.538.943.5C363.486,359.92,363.975,371.766,362.776,382.584Z" transform="translate(3397.862 3628.006)" fill="#2f2e41"/>
    <path id="Path_384" data-name="Path 384" d="M89.3,558.61l11.186,8.606L139,528.166l-16.51-12.7Z" transform="translate(3634.153 3806.204)" fill="#a0616a"/>
    <path id="Path_385" data-name="Path 385" d="M327.971,681.594l18.494,12.551-5.829,7.576,7.877,24.546a5.971,5.971,0,0,1-9.327,6.557l-21.052-16.2,2.138-10.286-7.183,6.4-7.937-6.108Z" transform="translate(3396.951 3675.567)" fill="#2f2e41"/>
    <path id="Path_386" data-name="Path 386" d="M295.426,668.768v-.146l5.3-9.136-5.413-11.892-.162-30.553.878-4.587a38.588,38.588,0,0,0-1-18.539h0l-.1-18.6c-.19-4.659,7.027-8.756,5.344-12.641-15.909-36.713,16.245-64.719,16.463-64.944l.657-.683,3.565,2.7,3.393,0,45.791,8.344.331.617c1.8,3.378,5.277,15.022,5.483,20.291,2.282,2.642,28.277,32.722,30.588,34.813,15.616,14.129,24.556,37.515,28.5,50.2a20.141,20.141,0,0,1-3.449,18.52l-59.116,64.752L356.565,682.6l31.987-58.288-2.307-5.914a18.177,18.177,0,0,1-10.6-6.156l-6.477-7.689a14.373,14.373,0,0,1-3.281-7.477l-3.928-.473-14.07-14.773-9.762,88.4-2.654,6.984-46.217,54.334-19.58-12.238Z" transform="translate(3391.726 3648.385)" fill="#2f2e41"/>
    <path id="Path_387" data-name="Path 387" d="M287.469,316.352a9.765,9.765,0,0,0,3.01,14.668l-14.7,43.508,12,46.107,19.35-8.748L295.192,377.11l8.934-50.62a9.818,9.818,0,0,0-16.657-10.137Z" transform="translate(3392.625 3621.214)" fill="#a0616a"/>
    <path id="Path_388" data-name="Path 388" d="M305.755,450.742s-4.545,2.44-7.706-8.022c-2.53-8.376-19.751-53.854-20.062-66a7.671,7.671,0,0,1-6.1-7.154l25.011-3.461c4.389,3.669,2.189,6.792.5,8.278l8.519,14.429,17.805,38.955-14.65,21.268Z" transform="translate(3392.051 3629.098)" fill="#40b858"/>
    <path id="Path_389" data-name="Path 389" d="M312.468,392.128a45.472,45.472,0,0,1,35.008-30.423c.032-.011.139-.053.277-.117.085-.053.192-.107.3-.16-.32-.181-.629-.341-.949-.5a.01.01,0,0,1-.008,0,.01.01,0,0,1,0-.008c-.277-.256-.554-.512-.842-.757l-.81.032S316.958,355.68,312.468,392.128Z" transform="translate(3398.029 3628.2)" fill="#fd6584"/>
    <ellipse id="Ellipse_88" data-name="Ellipse 88" cx="10.161" cy="11.696" rx="10.161" ry="11.696" transform="translate(4052.916 4264.943) rotate(-56.364)" fill="#f8f899"/>
    <ellipse id="Ellipse_89" data-name="Ellipse 89" cx="10.161" cy="11.696" rx="10.161" ry="11.696" transform="translate(3989.815 4090.552) rotate(-56.364)" fill="#f8f899"/>
    <ellipse id="Ellipse_90" data-name="Ellipse 90" cx="10.161" cy="11.696" rx="10.161" ry="11.696" transform="translate(4253.694 4359.021) rotate(-56.364)" fill="#f8f899"/>
    <ellipse id="Ellipse_91" data-name="Ellipse 91" cx="10.161" cy="11.696" rx="10.161" ry="11.696" transform="translate(3720.2 3797.989) rotate(-56.364)" fill="#f8f899"/>
    <ellipse id="Ellipse_92" data-name="Ellipse 92" cx="10.161" cy="11.696" rx="10.161" ry="11.696" transform="translate(3969.165 3742.92) rotate(-56.364)" fill="#f8f899"/>
    <ellipse id="Ellipse_93" data-name="Ellipse 93" cx="10.161" cy="11.696" rx="10.161" ry="11.696" transform="translate(3851.335 4204.954) rotate(-56.364)" fill="#e6e6e6"/>
    <path id="Path_390" data-name="Path 390" d="M1000.689,765.158H254.61a1.366,1.366,0,0,1,0-2.732h746.079a1.366,1.366,0,0,1,0,2.732Z" transform="translate(3389.306 3687.473)" fill="#ccc"/>
    <path id="Path_391" data-name="Path 391" d="M380.606,399.242a25.516,25.516,0,0,1-25.292-22.752L340.749,241.217a25.5,25.5,0,0,1,22.6-28.057l432.478-46.566a25.5,25.5,0,0,1,28.058,22.6l14.566,135.273a25.506,25.506,0,0,1-22.6,28.058l-.062-.57.062.57L383.372,399.093a25.842,25.842,0,0,1-2.766.149Z" transform="translate(3402.173 3599.689)" fill="#e6e6e6"/>
    <path id="Path_392" data-name="Path 392" d="M789.626,172.048a22.751,22.751,0,0,0-2.432.131L370.309,217.067A22.325,22.325,0,0,0,350.5,241.654l7.364,68.4a84.683,84.683,0,0,0,93.263,75.132l293.14-31.563a84.427,84.427,0,0,0,74.9-92.98l-7.392-68.652a22.33,22.33,0,0,0-22.154-19.938Z" transform="translate(3403.612 3600.513)" fill="#fff"/>
    <path id="Path_393" data-name="Path 393" d="M687.352,235.4l-233,25.088a5.1,5.1,0,0,1-1.092-10.139l233-25.088a5.1,5.1,0,1,1,1.092,10.139Z" transform="translate(3418.095 3608.347)" fill="#40b858"/>
    <path id="Path_394" data-name="Path 394" d="M690.273,262.519l-233,25.088a5.1,5.1,0,1,1-1.092-10.139l233-25.088a5.1,5.1,0,1,1,1.092,10.139Z" transform="translate(3418.526 3612.343)" fill="#40b858"/>
    <path id="Path_395" data-name="Path 395" d="M487.344,308.96l-27.153,2.924a5.1,5.1,0,1,1-1.092-10.139l27.153-2.924a5.1,5.1,0,0,1,1.092,10.139Z" transform="translate(3418.955 3619.182)" fill="#40b858"/>
    <circle id="Ellipse_94" data-name="Ellipse 94" cx="9.178" cy="9.178" r="9.178" transform="translate(3764.433 3828.257)" fill="#3f3d56"/>
    <circle id="Ellipse_95" data-name="Ellipse 95" cx="9.178" cy="9.178" r="9.178" transform="translate(4175.165 3782.365)" fill="#3f3d56"/>
    <path id="Path_396" data-name="Path 396" d="M618.545,368.765a7.558,7.558,0,0,1-2.566-5.961,100.572,100.572,0,0,0-6.459-39.1,7.558,7.558,0,0,1,.512-6.469,7.387,7.387,0,0,1,5.1-3.591c10.668-6.438,21.6-8.245,32.512-5.371a7.474,7.474,0,0,1,8.218,5.153,166.344,166.344,0,0,1,7.3,44.2,7.474,7.474,0,0,1-6.248,7.544l-32.277,5.333A7.386,7.386,0,0,1,618.545,368.765Z" transform="translate(3441.709 3620.385)" fill="#2f2e41"/>
    <path id="Path_397" data-name="Path 397" d="M620.078,327.989l27.167-4.488a1.721,1.721,0,0,0-.561-3.4l-27.167,4.488a1.721,1.721,0,1,0,.561,3.4Z" transform="translate(3443.043 3622.318)" fill="#fff"/>
    <path id="Path_398" data-name="Path 398" d="M622.034,339.828,649.2,335.34a1.721,1.721,0,1,0-.561-3.4l-27.167,4.488a1.721,1.721,0,0,0,.561,3.4Z" transform="translate(3443.331 3624.063)" fill="#fff"/>
    <path id="Path_399" data-name="Path 399" d="M623.99,351.668l27.167-4.488a1.721,1.721,0,0,0-.561-3.4l-27.167,4.488a1.721,1.721,0,0,0,.561,3.4Z" transform="translate(3443.619 3625.805)" fill="#fff"/>
  </g>
</svg>
