<svg xmlns="http://www.w3.org/2000/svg" width="825.881" height="633.658" viewBox="0 0 825.881 633.658">
  <g id="Group_424" data-name="Group 424" transform="translate(-3996 -4172)">
    <path id="Path_450" data-name="Path 450" d="M423.312,708.484A3.2,3.2,0,0,1,421,702.946l.219-.87-.087-.209c-2.942-7.015-21.713,12.54-22.525,19.132a25.384,25.384,0,0,0,.446,8.73,101.775,101.775,0,0,1-9.258-42.271A98.224,98.224,0,0,1,390.4,676.5q.5-4.474,1.4-8.885a102.954,102.954,0,0,1,20.417-43.635c5.811.324,10.9-.561,11.4-11.823.088-2,1.573-3.738,1.9-5.711-.555.073-1.119.118-1.673.155l-.527.027-.065,0a3.166,3.166,0,0,1-2.6-5.158l.719-.884c.364-.455.737-.9,1.1-1.355a1.629,1.629,0,0,0,.118-.136c.418-.518.837-1.028,1.255-1.546a9.155,9.155,0,0,0-3-2.9c-4.193-2.455-9.977-.755-13,3.038s-3.611,9.113-2.556,13.851a36.687,36.687,0,0,0,5.075,11.313c-.227.291-.464.573-.691.864a103.632,103.632,0,0,0-10.815,17.134c.859-6.711-9.647-30.947-13.71-36.081-4.88-6.166-14.888-3.475-15.748,4.342q-.013.113-.024.227.905.511,1.772,1.084a4.334,4.334,0,0,1-1.747,7.888l-.088.014c-8.078,11.534,17.818,41.554,24.3,34.813a105.77,105.77,0,0,0-5.693,26.792,100.323,100.323,0,0,0,.073,16.2l-.027-.191c-1.44-11.736-26.148-29.184-33.363-27.731-4.156.837-8.25.647-7.619,4.84q.015.1.031.2a29.138,29.138,0,0,1,3.265,1.573q.905.511,1.772,1.084a4.334,4.334,0,0,1-1.747,7.887l-.089.014-.182.027c-3.677,12.652,23.592,33.07,40.17,26.574h.009a105.739,105.739,0,0,0,7.1,20.735h25.373c.091-.282.173-.573.255-.855a28.84,28.84,0,0,1-7.021-.418c1.883-2.31,3.765-4.638,5.648-6.948a1.524,1.524,0,0,0,.118-.136c.955-1.182,1.919-2.355,2.874-3.538h0a42.23,42.23,0,0,0-1.237-10.758Zm-29.056-57.158.013-.018-.013.036Zm-5.62,50.665-.218-.491c.009-.355.009-.709,0-1.073,0-.1-.018-.2-.018-.3.082.628.155,1.255.245,1.883Z" transform="translate(3751.659 4071.303)" fill="#40b858"/>
    <path id="Path_451" data-name="Path 451" d="M806.021,727.148l-.13-.889A109.612,109.612,0,0,1,831.862,638.1a106.108,106.108,0,0,1,20.062-17.48l.665-.447.39,1.144a5.815,5.815,0,0,0,11.287-1.483l.514-6.714.794-.392a20.67,20.67,0,0,1,22.988,3.075,21.025,21.025,0,0,1,6.241,22.751c-1.21,3.669-2.362,7.478-3.477,11.161-3.811,12.6-7.751,25.62-14.926,36.462A65.424,65.424,0,0,1,827.371,715Z" transform="translate(3855.275 4075.164)" fill="#f2f2f2"/>
    <path id="Path_454" data-name="Path 454" d="M748.264,239.128a47.28,47.28,0,0,1-12.642,32.254c-.618.673-1.268,1.324-1.93,1.952a717.431,717.431,0,0,0-77.039-51.724c.331-.838.684-1.666,1.07-2.482a47.48,47.48,0,0,1,90.541,20Z" transform="translate(3821.763 3980.354)" fill="#ff6584"/>
    <path id="Path_455" data-name="Path 455" d="M820.781,329.114l-.044.5q-46.842-3.227-93.674-6.464c-22.558-1.555-45.9-3.32-65.832-14-7.567-4.048-14.936-9.453-23.518-9.828-10.645-.474-19.933,6.972-27.235,14.737-43.164,45.977-55.662,116.276-104.087,156.66a1537.826,1537.826,0,0,1,109.051-217.65c7.766-12.851,16.977-26.574,31.394-30.765,13.755-4,27.831,1.842,40.494,9.343,2.714,1.61,5.361,3.3,7.92,4.975q29.27,19.161,57.581,39.788Q787.594,301.708,820.781,329.114Z" transform="translate(3787.755 3986.998)" fill="#f2f2f2"/>
    <path id="Path_456" data-name="Path 456" d="M951.05,432.164A739.79,739.79,0,0,0,835.5,303.908q-18.714-16.447-38.531-31.681A717.513,717.513,0,0,0,719.932,220.5q-13.171-7.644-26.651-14.682c-6.983-3.629-14.417-6.949-22.47-6.431a29.9,29.9,0,0,0-15.52,5.968c-9.895,7.225-16.447,18.51-21.841,29.265-4.721,9.431-9.123,19.05-13.612,28.614-1.909,4.07-3.817,8.13-5.791,12.167q-10.325,21.212-21.135,42.193-13.932,27.037-28.669,53.665Q533.284,427.238,498.907,481.2,448.374,560.5,390.782,635c-4.71,6.078-6.652,7.49-11.428,13.524-1.1,1.412-3.067-.574-1.975-1.975,39.833-50.345,74.514-97.91,109.481-151.763q39.546-60.907,74.745-124.516,11.3-20.4,22.128-41.057,17.523-33.44,33.831-67.509,4.3-8.968,8.516-18c8.924-19.116,21.918-47.543,47.014-47.157,7.38.11,14.23,3.1,20.694,6.409,6.585,3.386,13.05,6.982,19.5,10.634q3.872,2.184,7.711,4.434,15.206,8.836,29.96,18.411,24.621,15.967,47.94,33.843,11.07,8.488,21.808,17.363A742.967,742.967,0,0,1,941.045,413.731q6.337,8.422,12.41,17.032C954.492,432.23,952.076,433.62,951.05,432.164Z" transform="translate(3758.484 3981.462)" fill="#e4e4e4"/>
    <path id="Path_457" data-name="Path 457" d="M753.351,281.134c1.458-1.625,2.907-3.251,4.375-4.876,11.573-12.8,23.991-25.45,39.884-32.788a57.865,57.865,0,0,1,24.243-5.62,69.187,69.187,0,0,1,25.171,5.489c3.79,1.514,7.5,3.232,11.146,5.062,4.171,2.1,8.267,4.338,12.344,6.595Q882,261.35,893.179,268.26q22.251,13.751,43.108,29.6,10.812,8.22,21.178,16.979,9.641,8.137,18.892,16.71c1.319,1.217,3.288-.752,1.969-1.969-1.625-1.514-3.269-3.019-4.914-4.5q-6.966-6.3-14.156-12.354-13.11-11.062-26.9-21.27Q910.915,275.57,888,261.842q-11.453-6.855-23.221-13.134c-2.369-1.263-4.765-2.5-7.189-3.669a114.615,114.615,0,0,0-17.091-6.957,60.8,60.8,0,0,0-25.813-2.536,67.2,67.2,0,0,0-23.816,8.239c-15.6,8.722-27.707,22.209-39.485,35.37C750.193,280.493,752.153,282.472,753.351,281.134Z" transform="translate(3843.119 3990.195)" fill="#e4e4e4"/>
    <path id="Path_458" data-name="Path 458" d="M544.01,386.473,506.618,372.8l-18.565-6.79a189.877,189.877,0,0,0-18.329-6.313,28.917,28.917,0,0,0-16.59.211,38.234,38.234,0,0,0-12.94,8.021,105,105,0,0,0-10.613,11.334c-4.042,4.858-8.024,9.766-12.025,14.658q-24.764,30.286-49.2,60.835T319.8,516.109q-24.172,30.883-48.012,62.025-2.92,3.815-5.836,7.634c-1.074,1.406-3.5.02-2.406-1.406q24.015-31.455,48.366-62.652,24.41-31.272,49.158-62.278T410.9,397.689q6.249-7.658,12.518-15.3c3.525-4.3,7.011-8.64,10.878-12.639,7.1-7.341,15.966-13.828,26.581-14,6.241-.1,12.281,1.877,18.08,3.975,6.251,2.261,12.487,4.565,18.731,6.849l37.654,13.772,9.413,3.443C546.421,384.4,545.7,387.091,544.01,386.473Z" transform="translate(3732.73 4017.493)" fill="#e4e4e4"/>
    <path id="Path_459" data-name="Path 459" d="M800.01,256.213c19-9.766,43.337-7.853,60.8,4.348a867.169,867.169,0,0,0-98.657,23.026C775.609,275.7,786.137,263.344,800.01,256.213Z" transform="translate(3845.639 3993.556)" fill="#f2f2f2"/>
    <path id="Path_460" data-name="Path 460" d="M842.787,258.582l3.658,2.973c-1.237-1.041-2.524-2.016-3.845-2.94Z" transform="translate(3863.847 3995.503)" fill="#f2f2f2"/>
    <path id="Path_461" data-name="Path 461" d="M433.971,382.942c3.681-4.48,7.66-9.172,13.166-10.992l5.14.2A583.038,583.038,0,0,1,296.985,549.688Z" transform="translate(3740.361 4021.161)" fill="#f2f2f2"/>
    <path id="Path_462" data-name="Path 462" d="M896.865,611.971l-34.6-15.266V583.58l12.332-.069a9.159,9.159,0,0,0,8.638-6.263l8.663-16.179a9.16,9.16,0,0,0-8.69-12.056l-20.944,7.358V544.158h26.293a9.16,9.16,0,0,0,8.927-7.107l5.966-25.953a9.16,9.16,0,0,0-8.927-11.212H862.261v-3.053a6.106,6.106,0,1,0-12.213,0v3.053H633.777v-3.053a6.107,6.107,0,1,0-12.213,0v3.053H595.921a9.16,9.16,0,0,0-8.927,11.212l5.966,25.953a9.16,9.16,0,0,0,8.927,7.108h19.677v12.213l-14.329-7.358a9.16,9.16,0,0,0-8.718,11.969l8.842,17.631a9.159,9.159,0,0,0,8.77,6.35l5.435-.03V596.7l-27.988,15.266a9.159,9.159,0,0,0-9.16,9.16h0a9.16,9.16,0,0,0,9.16,9.16h27.988V748.967a6.107,6.107,0,0,0,12.213,0V630.29H850.048v119.9a6.106,6.106,0,1,0,12.213,0V630.29h34.6a9.16,9.16,0,0,0,9.16-9.16h0A9.159,9.159,0,0,0,896.865,611.971ZM633.777,544.158H850.048v12.213H633.777Zm0,52.547V584.864l216.271-1.215V596.7Z" transform="translate(3805.414 4048.043)" fill="#ccc"/>
    <path id="Path_475" data-name="Path 475" d="M1084.8,707.128a1.455,1.455,0,0,1-1.459,1.459l-77.3.037-19.278.012-12.717.012H959.98l-7.677.012-21.313.012-335.351.172-2.551.012-150,.049h-2.477l-127.685.049h-2.477l-39.856.012a1.459,1.459,0,1,1,0-2.918l40.272-.012h2.477l127.648-.049h2.477l148.839-.049h2.539l126.827-.049h1.668l205.324-.123,21.277-.012,9.737-.012,15.39-.012H988.21l20.713-.012,74.413-.049a1.455,1.455,0,0,1,1.459,1.459Z" transform="translate(3734.057 4096.69)" fill="#cacaca"/>
    <g id="Group_423" data-name="Group 423" transform="translate(4463.324 4496.306)">
      <path id="Path_493" data-name="Path 493" d="M767.5,668.8c.7,3.126,1.95,6.168,2.017,9.371s-1.479,6.77-4.543,7.7a10.477,10.477,0,0,1-4.454.039,8.489,8.489,0,0,1-4.578-1.561c-1.729-1.512-1.929-4.089-1.945-6.386-.078-11.427,1.312-22.808,2.7-34.15.021-.175,7.441-.348,8.186-.006,2.162.993,1.968,3.431,2,5.5C766.97,655.811,766.068,662.394,767.5,668.8Z" transform="translate(-649.254 -386.621)" fill="#2f2e41"/>
      <path id="Path_500" data-name="Path 500" d="M835.366,342.262c-.7-10.651-13.71-11.578-13.841-11.586l.024-.4c.126.008,11.722.83,13.9,9.837.3-3.366,1.608-9.542,7.213-9.837l.021.4c-7.291.384-6.919,11.453-6.915,11.565Z" transform="translate(-670.745 -286.901)" opacity="0.1"/>
      <path id="Path_502" data-name="Path 502" d="M746.924,475.467s20.7,8.583,14.136,13.632-20.195-6.059-19.69-7.573-2.02-5.049-2.02-5.049Z" transform="translate(-644.594 -333.107)" fill="#9f616a"/>
      <path id="Path_503" data-name="Path 503" d="M722.621,376.233l6.563,6.058,1.515,17.671,5.049,18.68s8.583,17.671,7.068,21.2,1.515,4.544,1.515,4.544l-11.612,4.544S720.1,434.8,720.1,431.769,722.621,376.233,722.621,376.233Z" transform="translate(-638.466 -301.526)" fill="#64b663"/>
      <path id="Path_504" data-name="Path 504" d="M722.621,376.233l6.563,6.058,1.515,17.671,5.049,18.68s8.583,17.671,7.068,21.2,1.515,4.544,1.515,4.544l-11.612,4.544S720.1,434.8,720.1,431.769,722.621,376.233,722.621,376.233Z" transform="translate(-638.466 -301.526)" fill="#64b663" opacity="0.1"/>
      <path id="Path_505" data-name="Path 505" d="M813.465,662.348s-2.525,11.612-3.029,12.622,9.593,4.544,9.593,4.544l12.117-8.583S827.1,659.824,827.1,657.8Z" transform="translate(-667.21 -391.136)" fill="#64b663"/>
      <path id="Path_506" data-name="Path 506" d="M701.349,476.948l3.534,4.039s73.207,9.088,74.721,23.224,12.117,95.531,6.059,97.55-21.71,9.593-21.71,5.554-10.1-74.326-8.078-84.424c0,0-87.343-11.107-89.363-23.729s2.02-18.176,2.02-18.176Z" transform="translate(-621.232 -333.579)" fill="#2f2e41"/>
      <path id="Path_507" data-name="Path 507" d="M701.349,476.948l3.534,4.039s73.207,9.088,74.721,23.224,12.117,95.531,6.059,97.55-21.71,9.593-21.71,5.554-10.1-74.326-8.078-84.424c0,0-87.343-11.107-89.363-23.729s2.02-18.176,2.02-18.176Z" transform="translate(-621.232 -333.579)" opacity="0.1"/>
      <path id="Path_508" data-name="Path 508" d="M810.8,678.289s-2.019-4.544-3.029-3.029-4.544,19.185-1.01,19.185,35.846,8.078,40.39,7.068,13.127.5,12.117-4.544a7.086,7.086,0,0,0-6.058-5.554s-18.681-11.107-19.69-16.661-6.563-2.524-6.563-2.524v3.534S816.358,683.842,810.8,678.289Z" transform="translate(-665.559 -395.464)" fill="#2f2e41"/>
      <path id="Path_509" data-name="Path 509" d="M669.915,318.4s3.534,17.166-4.039,18.68,9.593,11.612,9.593,11.612l11.107,6.058,8.078-8.078s-7.321-14.894-1.767-26S669.915,318.4,669.915,318.4Z" transform="translate(-620.596 -282.059)" fill="#9f616a"/>
      <path id="Path_510" data-name="Path 510" d="M694.654,346.669l-8.078,8.078-11.107-6.058s-17.166-10.1-9.593-11.612c4.872-.974,5.145-8.426,4.726-13.617a46.957,46.957,0,0,0-.687-5.064s28.525-8.835,22.972,2.272a19.37,19.37,0,0,0-1.737,5.432C689.449,336.081,694.654,346.669,694.654,346.669Z" transform="translate(-620.596 -282.059)" fill="#9f616a"/>
      <path id="Path_511" data-name="Path 511" d="M678.9,477.646v11.612h19.185l1.515-4.544L697.58,472.6Z" transform="translate(-576.569 -206.544)" fill="#64b663"/>
      <path id="Path_512" data-name="Path 512" d="M634.193,488.931s0,29.788,12.117,30.8,55.536,6.563,55.536,6.563,2.524,49.478,7.068,65.633.5,17.166,4.544,18.176,21.2-2.524,20.7-6.058-2.524-92.9-2.524-92.9,4.544-19.185-56.041-28.273Z" transform="translate(-611.127 -335.464)" fill="#2f2e41"/>
      <path id="Path_513" data-name="Path 513" d="M749.547,672.339s-3.029-6.563-3.534-4.544-6.564,19.69-.5,21.2,25.244,9.593,37.865,9.088,14.136-1.01,14.136-1.01,3.534-5.048-1.01-8.078-23.224-20.7-24.234-22.719-8.583-3.534-8.583,0S753.081,676.883,749.547,672.339Z" transform="translate(-645.702 -393.159)" fill="#2f2e41"/>
      <path id="Path_514" data-name="Path 514" d="M695.673,326.668a19.374,19.374,0,0,0-1.737,5.433c-2.514,1.52-4.2,1.131-7.351,1.131-4.68,0-6.568-5.983-9.592-9.088-.238-2.883-4.292.252-4.292.252S701.227,315.56,695.673,326.668Z" transform="translate(-623.382 -283.969)" opacity="0.1"/>
      <circle id="Ellipse_106" data-name="Ellipse 106" cx="19.335" cy="19.335" r="19.335" transform="translate(43.195 9.586)" fill="#9f616a"/>
      <path id="Path_515" data-name="Path 515" d="M698.928,372.578s-2.524,18.175-4.039,24.739-3.534,36.856-4.544,40.895-7.068,5.049-19.185,3.534a22.764,22.764,0,0,0-2.292-.172c-7.462-.237-16,2.555-23.9,4.746a60.087,60.087,0,0,1-12.682,2.494c-5.755.263-7.442-6.119-7.245-13.026.187-6.427,2.009-13.319,3.711-15.752,3.065-4.382.051-43.727,1.182-56.7v-.005a9.393,9.393,0,0,1,.838-3.877c3.029-4.039,22.719-14.136,24.926-13.728s21.018,12.213,21.018,12.213c4.544,0,4.4-4.928,4.4-4.928s3.176,5.937,9.234,7.452S698.928,372.578,698.928,372.578Z" transform="translate(-608.208 -291.813)" fill="#64b663"/>
      <path id="Path_516" data-name="Path 516" d="M681.749,481.127s32.522,1.036,26.825,4.9-30.941,7.4-31.446,2.349S681.749,481.127,681.749,481.127Z" transform="translate(-624.78 -334.908)" fill="#9f616a"/>
      <path id="Path_517" data-name="Path 517" d="M668.875,449.638c.106,1.939-5.109,6.306-6.8,9.259-.934,1.636-8.164-.52-17.105-4.514a175.373,175.373,0,0,1-19.927-10.532c.187-6.427,2.009-13.319,3.711-15.752,3.064-4.382.05-43.727,1.181-56.7v-.005a5.615,5.615,0,0,1,.838-.343h6.058c20.7,9.593-3.029,50.992-3.029,50.992s31.3,25.749,34.331,26.758A.907.907,0,0,1,668.875,449.638Z" transform="translate(-608.216 -299.876)" opacity="0.1"/>
      <path id="Path_518" data-name="Path 518" d="M628.979,366.606H622.92s-5.553,1.515-10.1,11.612-21.2,41.4-6.563,53.517,45.943,26.253,47.963,22.719,9.088-9.088,6.058-10.1S625.95,417.6,625.95,417.6,649.679,376.2,628.979,366.606Z" transform="translate(-600.359 -298.462)" fill="#64b663"/>
      <path id="Path_519" data-name="Path 519" d="M676.1,286.577s.849-11.746,11.316-6.957,9.785-8.412,6.621-10.744-3.063-2.91-14.632-1.349-34.03,4.205-26.768,27.467,13.84,17.278,13.84,17.278-5.773-20.933.076-16.945l5.849,3.988,3.087-.654Z" transform="translate(-616.547 -266.652)" fill="#2f2e41"/>
    </g>
  </g>
</svg>
