<?xml version="1.0" encoding="utf-8"?>
<svg version="1.1" id="Layer_1" xmlns="http://www.w3.org/2000/svg" x="0px" y="0px"
	 viewBox="0 0 700 700" style="enable-background:new 0 0 700 700;" xml:space="preserve">
<path class="st0" d="M601.2,222.1c-0.7-2.2-1.9-4.2-3.5-5.9c-2.2-2.2-5.1-3.9-8.5-4.4l-145.7-20.8c-3.4-0.5-6.5-1.7-9-3.5
	c-2.5-1.9-4.7-4.4-6.1-7.4l-64.7-132h0c-1.6-3.2-4-5.5-6.9-6.9c-2.1-1-4.4-1.6-6.7-1.5c-2.3,0-4.6,0.5-6.7,1.5
	c-2.8,1.4-5.3,3.7-6.9,6.9l-64.7,132c-1.5,3.1-3.6,5.6-6.1,7.4c-2.5,1.8-5.6,3-9,3.5l-145.5,20.7c-3.6,0.5-6.5,2.2-8.7,4.4
	c-1.5,1.6-2.7,3.5-3.5,5.7c-0.8,2.3-1,4.7-0.7,7c0.4,3.2,1.9,6.2,4.5,8.7L208.2,340c2.5,2.4,4.2,5.2,5.2,8.2c1,3,1.2,6.2,0.6,9.6
	l-25.2,144.8c-0.6,3.5,0,6.9,1.5,9.6c1,1.9,2.4,3.6,4.3,5.1c2,1.5,4.1,2.4,6.5,2.8c3.2,0.6,6.6,0.1,9.8-1.5l129.9-68.8
	c3-1.6,6.2-2.4,9.4-2.4c3.1,0,6.3,0.8,9.3,2.4l129.9,68.8c3.2,1.7,6.6,2.1,9.7,1.5c2.3-0.4,4.5-1.3,6.3-2.7c1.9-1.4,3.4-3.2,4.5-5.2
	c1.5-2.8,2.1-6.1,1.5-9.6L486,357.8c-0.6-3.4-0.4-6.7,0.6-9.6c1-3,2.7-5.8,5.2-8.1l105.5-102.3c2.6-2.5,4-5.6,4.5-8.7
	C602.2,226.7,602,224.3,601.2,222.1z M546.2,242L546.2,242L457,307.8c-11.2,8.5-15.8,23.2-11.4,36.6l33.6,101
	c0.9,2.3-0.3,4.9-2.6,5.8c-1.4,0.5-3,0.3-4.2-0.5l-86.5-63.6c-11.3-8.1-18-21.2-18-35.1V110.8c-0.1-1.2,0.7-2.3,1.9-2.4
	c1.1-0.1,2.1,0.6,2.3,1.7l32.9,101.6c4.1,13,16,21.9,29.6,22h108.7c2.5,0.1,4.6,2.2,4.5,4.7C547.9,239.8,547.3,241.1,546.2,242z"/>
</svg>
