<?xml version="1.0" encoding="UTF-8"?>
<svg width="700pt" height="700pt" version="1.1" viewBox="0 0 700 700" xmlns="http://www.w3.org/2000/svg">
 <path d="m245.09 387.15-46.273 101.39 65.48-27.469c2.9023-1.2109 6.25 0.16016 7.4688 3.0547l22.316 67.875 47.617-104.54c-13.738-1.6914-27.07-7.6133-37.938-17.754-10.086-9.3984-16.766-14.781-24.016-17.785-7.2812-3.0078-15.809-3.9297-29.656-4.418-1.7266-0.066406-3.3672-0.17969-4.9922-0.35156zm109.91-244.79 25.438 46.195 51.781 9.9141c3.0898 0.58984 5.1133 3.5859 4.5234 6.6719-0.22656 1.1562-0.78125 2.168-1.5664 2.9492l-35.961 38.348 6.5859 52.312c0.37891 3.1172-1.8398 5.9609-4.9531 6.3359-1.0977 0.14062-2.1641-0.054688-3.1016-0.48828l-47.75-22.43-47.75 22.43c-2.8438 1.3281-6.2305 0.09375-7.5586-2.7461-0.47656-1.0039-0.62109-2.0781-0.49609-3.1016l6.5859-52.332-36.082-38.449c-2.1484-2.2891-2.043-5.8984 0.24609-8.0547 0.8125-0.76562 1.8047-1.2422 2.832-1.4414l51.801-9.9219 25.418-46.195c1.5156-2.7578 4.9883-3.7617 7.7461-2.2539 0.98438 0.54297 1.7461 1.3359 2.2539 2.2539zm3.3008 285.09 47.617 104.54 22.156-67.434c0.96484-2.9883 4.1875-4.6289 7.1836-3.6562l65.926 27.629-46.273-101.4c-1.6719 0.18359-3.3594 0.30469-5.0664 0.37109-13.77 0.48438-22.297 1.4023-29.578 4.4062-7.2539 3.0039-13.938 8.3867-24.023 17.785-10.875 10.141-24.207 16.066-37.938 17.758zm57.602-364.3c-8.8164-3.6523-16.336-9.6484-27.422-19.977-10.836-10.105-24.656-15.172-38.477-15.172-13.797-0.027343-27.633 5.0547-38.488 15.18-11.078 10.316-18.594 16.316-27.449 19.977-8.8164 3.6367-18.375 4.7305-33.508 5.2656-14.824 0.50781-28.172 6.7148-37.938 16.484-9.7578 9.7578-15.961 23.09-16.484 37.875-0.52734 15.211-1.6055 24.77-5.2656 33.586-3.6719 8.8281-9.6562 16.352-19.977 27.422-10.113 10.848-15.168 24.672-15.168 38.488 0 13.809 5.0664 27.633 15.18 38.477 10.324 11.078 16.305 18.605 19.969 27.449 3.6445 8.8242 4.7305 18.383 5.2578 33.508 0.52344 14.824 6.7148 28.172 16.484 37.938 9.7617 9.7617 23.098 15.965 37.879 16.484 15.191 0.53516 24.742 1.6133 33.574 5.2734 8.8438 3.6523 16.363 9.6484 27.441 19.969 10.836 10.105 24.656 15.172 38.48 15.172 13.809 0 27.648-5.0742 38.48-15.18 11.078-10.316 18.594-16.316 27.449-19.969 8.8242-3.6445 18.375-4.7305 33.508-5.2656 14.824-0.50781 28.172-6.7148 37.938-16.484 9.7617-9.7617 15.953-23.098 16.484-37.887 0.52734-15.188 1.6133-24.738 5.2656-33.562 3.6641-8.8516 9.6562-16.375 19.977-27.449 10.105-10.84 15.168-24.656 15.168-38.477 0-13.824-5.0586-27.633-15.18-38.488-10.324-11.078-16.316-18.605-19.969-27.422-3.6445-8.8359-4.7305-18.387-5.2578-33.52-0.51562-14.828-6.7188-28.176-16.484-37.938-9.7617-9.7578-23.098-15.965-37.879-16.484-15.039-0.52734-24.547-1.6055-33.594-5.2734zm-65.902 11.441c40.762 0 77.676 16.527 104.4 43.25 26.746 26.754 43.285 63.668 43.285 104.43 0 40.785-16.543 77.703-43.449 104.6-26.879 26.695-63.668 43.086-104.23 43.086-40.75 0-77.676-16.535-104.41-43.27-26.734-26.707-43.277-63.629-43.277-104.41 0-40.762 16.535-77.676 43.25-104.41 26.754-26.746 63.668-43.277 104.43-43.277zm96.363 51.32c-24.656-24.645-58.727-39.898-96.363-39.898s-71.703 15.254-96.363 39.898c-24.645 24.652-39.891 58.727-39.891 96.363 0 37.613 15.254 71.691 39.91 96.348 24.637 24.672 58.707 39.91 96.344 39.91 37.484 0 71.426-15.121 96.199-39.75 24.805-24.816 40.055-58.895 40.055-96.508 0-37.637-15.246-71.711-39.891-96.363z"/>
</svg>
