<svg xmlns="http://www.w3.org/2000/svg" width="407.535" height="351.436" viewBox="0 0 407.535 351.436">
  <path id="Icon_awesome-wallet" data-name="Icon awesome-wallet" d="M367.1,77.558H63.677a12.553,12.553,0,1,1,0-25.1H369.329A12.641,12.641,0,0,0,382.064,39.9c0-20.8-17.105-37.654-38.206-37.654H50.942C22.8,2.25,0,24.725,0,52.455V303.481c0,27.731,22.8,50.205,50.942,50.205H367.1c22.3,0,40.435-16.889,40.435-37.654V115.212C407.535,94.447,389.4,77.558,367.1,77.558ZM331.122,240.725a25.105,25.105,0,1,1,25.471-25.1A25.292,25.292,0,0,1,331.122,240.725Z" transform="translate(0 -2.25)" fill="#666"/>
</svg>
