<svg xmlns="http://www.w3.org/2000/svg" width="510.136" height="510.136" viewBox="0 0 510.136 510.136">
  <path id="Icon_material-rate-review" data-name="Icon material-rate-review" d="M462.122,3H54.014A50.946,50.946,0,0,0,3.255,54.014L3,513.136,105.027,411.109H462.122A51.163,51.163,0,0,0,513.136,360.1V54.014A51.164,51.164,0,0,0,462.122,3ZM105.027,309.082v-63L280.514,70.593a12.628,12.628,0,0,1,18.11,0l45.147,45.147a12.628,12.628,0,0,1,0,18.11L168.029,309.082Zm306.081,0h-191.3l51.014-51.014H411.109Z" transform="translate(-3 -3)" fill="#666"/>
</svg>
