<svg xmlns="http://www.w3.org/2000/svg" width="290" height="290" viewBox="0 0 290 290">
  <path id="Icon_material-help" data-name="Icon material-help" d="M148,3A145,145,0,1,0,293,148,145.053,145.053,0,0,0,148,3Zm14.5,246.5h-29v-29h29Zm30.015-112.375-13.05,13.34C169.025,161.05,162.5,169.75,162.5,191.5h-29v-7.25a58.363,58.363,0,0,1,16.965-41.035l17.98-18.27A28.352,28.352,0,0,0,177,104.5a29,29,0,1,0-58,0H90a58,58,0,1,1,116,0A46.14,46.14,0,0,1,192.515,137.125Z" transform="translate(-3 -3)"/>
</svg>
