<svg xmlns="http://www.w3.org/2000/svg" width="593.333" height="445" viewBox="0 0 593.333 445">
  <path id="Icon_metro-profile" data-name="Icon metro-profile" d="M555.451,71.284H513.96V9.026L428.308,7.712l.445,63.571H171.374l1.759-63.571L89.261,9.026V72.6L46.88,71.284A42.4,42.4,0,0,0,4.5,113.665V410.331A42.4,42.4,0,0,0,46.88,452.712H555.451a42.4,42.4,0,0,0,42.381-42.381V113.664A42.4,42.4,0,0,0,555.451,71.284ZM449.5,28.9H491.88v84.762H449.5ZM174.023,173.252c25.6,0,46.365,27.272,46.365,60.923S199.621,295.1,174.023,295.1s-46.365-27.272-46.365-60.923S148.424,173.252,174.023,173.252ZM110.451,28.9h42.381v84.762H110.451ZM82.2,366.848s5.022-40.3,16.444-47.912c11.4-7.607,44.288-12.672,44.288-12.672s21.318,22.78,30.387,22.78c9.048,0,30.366-22.78,30.366-22.78s32.888,5.043,44.309,12.672c13.414,8.942,16.762,47.912,16.762,47.912H82.2ZM513.07,346.76H322.356v-21.19H513.07Zm0-42.381H322.356v-21.19H513.07Zm0-42.381H322.356v-21.19H513.07Zm0-42.381H322.356v-21.19H513.07Z" transform="translate(-4.499 -7.712)" fill="#666"/>
</svg>
