<svg xmlns="http://www.w3.org/2000/svg" width="390" height="310.911" viewBox="0 0 390 310.911">
  <g id="Group_454" data-name="Group 454" transform="translate(-4132 -1881)">
    <path id="Path_562" data-name="Path 562" d="M441.741,379.064a1.687,1.687,0,0,0,1.222-2.924l-.116-.46.046-.11a4.319,4.319,0,0,1,5.628-2.315c6.923,2.862-.386,9.44.163,13.891.193,1.536,6.21,1.621,5.87,3.128a53.729,53.729,0,0,0,4.88-22.317,51.856,51.856,0,0,0-.324-5.785q-.267-2.362-.741-4.69a54.352,54.352,0,0,0-10.786-23.032c-2.574-1.406-1-3.605-2.3-6.241-.466-.951-4.622-.972-4.8-2.014.186.024,2.872-2.766,1.985-4.145a2.287,2.287,0,0,1,.348-2.84,2.386,2.386,0,0,0,.207-.243c2.216-3.006,5.27-2.483,6.866,1.6,3.407,1.718,3.441,4.569,1.352,7.311-1.329,1.745-1.511,4.105-2.677,5.973.12.154.245.3.365.456a54.708,54.708,0,0,1,5.713,9.043A22.741,22.741,0,0,1,456,332.791c1.308-3.158,3.768-5.814,5.923-8.546a4.644,4.644,0,0,1,8.268,2.349q.007.06.013.119-.478.27-.936.573a2.288,2.288,0,0,0,.925,4.163l.047.007c-.115,1.147-4.187,4.762-4.474,5.881,2.754,10.636.693,12.04-7.78,12.218l-.445.633a55.88,55.88,0,0,1,2.887,13.793,52.952,52.952,0,0,1-.035,8.551l.014-.1a13.993,13.993,0,0,1,4.774-8.082c3.675-3.021,8.869-4.135,12.834-6.564a2.626,2.626,0,0,1,4.023,2.553l-.016.106a15.371,15.371,0,0,0-1.723.831q-.479.27-.937.574a2.287,2.287,0,0,0,.925,4.163l.047.007.1.014c-1.012,2.406-10.656,5.8-12.422,7.725-1.717,9.29-.874,9.014-8.779,6.311h0a55.816,55.816,0,0,1-3.746,10.948l-13.395,0c-.048-.149-.091-.3-.135-.451a15.22,15.22,0,0,0,3.706-.222c-.994-1.219-1.989-2.448-2.983-3.667a.832.832,0,0,1-.062-.072l-.015-.019-1.379-4.54a22.883,22.883,0,0,1,.527-2.989h0Z" transform="translate(4018.938 1799.621)" fill="#64b663"/>
    <path id="Path_563" data-name="Path 563" d="M205.117,367.828l-118.528.041a16.436,16.436,0,0,1-14.273-24.7l59.227-107.819a16.472,16.472,0,0,1,28.53-.01l59.309,107.791a16.472,16.472,0,0,1-14.264,24.7h0ZM71.575,351.4c0,2.575,13.079-2.973,14.434-.628,2.71,4.691-4.839,15.612.579,15.61,0,0,128.8-2.845,131.5-7.538a14.832,14.832,0,0,0-.006-14.985L158.777,236.068a14.826,14.826,0,0,0-12.972-7.475c-5.415,0-74.229,120.232-74.229,122.807h0Z" transform="translate(4114.011 1822.707)" fill="#3f3d56"/>
    <path id="Path_564" data-name="Path 564" d="M253.507,407.905c-1.486,2.974,68.1,2.06,68.921,2.06,0,0,19.558-.432,19.969-1.145a2.252,2.252,0,0,0,0-2.276l-9.006-16.369a2.251,2.251,0,0,0-1.97-1.135.284.284,0,0,0-.15.089c-12.015,10.736-26.821,17.834-42.932,18.074-17.131.255-34.737.513-34.832.7Z" transform="translate(4066.937 1781.143)" fill="#3f3d56"/>
    <path id="Path_565" data-name="Path 565" d="M0,416.729a.882.882,0,0,0,.885.884l388.231-.134a.885.885,0,0,0,0-1.769L.884,415.845a.882.882,0,0,0-.884.885Z" transform="translate(4132 1774.297)" fill="#ccc"/>
    <g id="Group_450" data-name="Group 450" transform="translate(4408.858 2160.801)">
      <path id="Path_566" data-name="Path 566" d="M400.449,402.351l-6.723,0-3.207-25.931,9.923,0Z" transform="translate(-377.095 -376.418)" fill="#a0616a"/>
      <path id="Path_567" data-name="Path 567" d="M372.779,408.49h0a5.771,5.771,0,0,0-.319,1.9h0a2.282,2.282,0,0,0,2.283,2.281l20.821-.007a1.557,1.557,0,0,0,1.556-1.557v-.867a6.655,6.655,0,0,0-1.093-5.816s-2.635,2.515-6.574-1.422l-1.162-2.1-8.4,6.151-4.659.575c-1.019.126-1.923-.019-2.447.865Z" transform="translate(-372.46 -382.702)" fill="#2f2e41"/>
    </g>
    <g id="Group_451" data-name="Group 451" transform="translate(4384.549 2139.99)">
      <path id="Path_568" data-name="Path 568" d="M363.081,372.985l-6.368,2.155L345.369,351.6l9.4-3.181Z" transform="translate(-341.197 -348.421)" fill="#a0616a"/>
      <path id="Path_569" data-name="Path 569" d="M339.773,387.01h0a5.773,5.773,0,0,0,.306,1.9h0a2.282,2.282,0,0,0,2.893,1.43l19.722-6.675a1.557,1.557,0,0,0,.975-1.974l-.278-.821a6.655,6.655,0,0,0-2.9-5.16s-1.69,3.227-6.683.759l-1.775-1.621-5.992,8.519-4.23,2.037c-.925.446-1.828.6-2.042,1.6h0Z" transform="translate(-339.756 -355.205)" fill="#2f2e41"/>
    </g>
    <path id="Path_570" data-name="Path 570" d="M345.407,177.957l-13.04,43.188-15.395,38.847,24.373,55.477,9.037-4.02-10.813-50.962L362.245,225.9l10.582,107.954,9.038-.505,12.257-130.307,1.748-28.371Z" transform="translate(4050.641 1836.165)" fill="#2f2e41"/>
    <path id="Path_571" data-name="Path 571" d="M393.274,50.385l-19.08,3.522-1.5,8.537-11.547,5.527-6,62.768s-10.038,13.059-2,17.073l51.216-5.039s2.507-9.284,0-10.165-2.519-23.058-2.519-23.058l11.533-45.615-17.075-6.02-3.015-7.531Z" transform="translate(4042.158 1868.067)" fill="#64b663"/>
    <circle id="Ellipse_111" data-name="Ellipse 111" cx="15.407" cy="15.407" r="15.407" transform="translate(4408.771 1887.473)" fill="#a0616a"/>
    <path id="Path_572" data-name="Path 572" d="M396.675,24.167c-1.229.673-.063,3.887-.831,4.164-.888.321-4.127-3.365-4.167-7.494a14.007,14.007,0,0,0,0-3.331c-.362-1.938-1.472-4.224-2.5-4.163-.609.036-1.2.9-1.249,1.666-.062,1.077.984,1.5.834,2.082-.287,1.105-4.682,1.869-6.246,0-1.227-1.463-.286-4.032-.834-4.164-.4-.1-.838,1.317-2.5,2.916-.625.6-1.555,1.5-2.082,1.25-.761-.358-.208-2.881-.417-2.915-.173-.028-.282,1.746-1.248,3.332-1.241,2.037-3.8,3.608-5,2.917-.732-.424-.79-1.6-.834-2.5-.093-1.887-2.834-6.226-2.125-8.245,1.444-4.108,3.917-1.212,5.036-2.583,1.515-1.856,2.874-.858,5.412-2.917,2.48-2.011,2.5-4.033,4.163-4.166,1.5-.12,2.028,1.476,3.748,1.248,1.457-.193,1.775-1.43,2.914-1.25,1.044.165,1.112,1.255,2.5,1.665.885.262,1.08-.117,2.082,0a5.991,5.991,0,0,1,3.749,2.5c1.012,1.372.619,1.95,1.667,3.331.9,1.191,2.906.685,3.659,1.28,2.46,1.943,3.517,5.527,3.538,9.611.015,2.857-.358,4.3-1.189,7.906-.631,2.738-3.554,6.276-5.166,7.854-.433.424-1.645,1.611-2.5,1.25-.808-.342-.832-1.879-.834-2.082,0-.7.182-1.562,1.664-3.748,1.557-2.3,2.175-2.559,2.081-3.332-.167-1.366-2.352-2.617-3.332-2.081h0Z" transform="translate(4037.707 1881)" fill="#2f2e41"/>
    <g id="Group_452" data-name="Group 452" transform="translate(4380.297 1935.633)">
      <path id="Path_573" data-name="Path 573" d="M334.466,218.379c-.48,4.016,1.2,7.519,3.759,7.824s5.016-2.7,5.5-6.719a10.123,10.123,0,0,0-.505-4.754l1.818-17.042-8.016-.683-.942,16.873a10.123,10.123,0,0,0-1.61,4.5h0Z" transform="translate(-334.125 -105.199)" fill="#64b663"/>
      <path id="Path_574" data-name="Path 574" d="M357.417,73.5s-4.153.059-6.9,5.429c-1.461,2.854-9.278,56.216-9.278,56.216l-7.2,43.714,12.266.062,9.558-41.4,8.041-24.01L357.417,73.5Z" transform="translate(-334.036 -73.498)" fill="#64b663"/>
    </g>
    <path id="Path_575" data-name="Path 575" d="M411.763,210.018c-1.175,3.87-.13,7.613,2.332,8.361s5.412-1.784,6.586-5.654a10.123,10.123,0,0,0,.334-4.769l4.771-16.461-7.773-2.075-3.879,16.448a10.123,10.123,0,0,0-2.373,4.15h0Z" transform="translate(4026.434 1832.381)" fill="#a0616a"/>
    <path id="Path_576" data-name="Path 576" d="M418.563,69.138s6.024-4.521,11.048,2.507,7.052,64.772,7.052,64.772l-14.047,35.656-10.546-3.511L422.1,124.873,404.512,91.739l14.052-22.6Z" transform="translate(4028.172 1863.621)" fill="#64b663"/>
    <circle id="Ellipse_112" data-name="Ellipse 112" cx="54.263" cy="54.263" r="54.263" transform="translate(4240.139 2058.232)" fill="#ed6f85"/>
    <g id="Group_453" data-name="Group 453" transform="translate(4276.358 2075.795)">
      <circle id="Ellipse_113" data-name="Ellipse 113" cx="4.982" cy="4.982" r="4.982" transform="translate(13.071 59.999)" fill="#fff"/>
      <path id="Path_577" data-name="Path 577" d="M212.237,265.5c-.458,3.041.362,3.677.367,16.788s2.725,30.689-.35,30.69-4.2-36.276-14.879-39.487C184.82,269.711,213.719,255.651,212.237,265.5Z" transform="translate(-194.205 -262.06)" fill="#fff"/>
    </g>
    <path id="Path_578" data-name="Path 578" d="M100.539,326.574l-4.9,10.358c5.927-4.25,15.184-7.913,22.551-9.876-6.864-3.315-15.263-8.661-20.281-13.954l2.82,10.945c-33.059-6.733-56.8-32.094-56.809-61.145l-1.194-.411C42.734,292.837,66.146,319.7,100.539,326.574Z" transform="translate(4121.034 1813.625)" fill="#3f3d56"/>
  </g>
</svg>
