<svg xmlns="http://www.w3.org/2000/svg" width="560" height="455.001" viewBox="0 0 560 455.001">
  <g id="Group_220" data-name="Group 220" transform="translate(-1065 -3350)">
    <path id="Path_174" data-name="Path 174" d="M542.5,393.75h-140a8.75,8.75,0,0,0,0,17.5h140a8.75,8.75,0,0,0,0-17.5Z" transform="translate(995 3297.501)"/>
    <path id="Path_175" data-name="Path 175" d="M262.5,323.75h-70a43.8,43.8,0,0,0-43.75,43.75v26.25a17.516,17.516,0,0,0,17.5,17.5h122.5a17.516,17.516,0,0,0,17.5-17.5V367.5A43.8,43.8,0,0,0,262.5,323.75Z" transform="translate(995 3297.501)"/>
    <path id="Path_176" data-name="Path 176" d="M542.5,315h-140a8.75,8.75,0,0,0,0,17.5h140a8.75,8.75,0,0,0,0-17.5Z" transform="translate(995 3297.501)"/>
    <path id="Path_177" data-name="Path 177" d="M227.5,306.25a43.75,43.75,0,1,0-43.75-43.75A43.8,43.8,0,0,0,227.5,306.25Z" transform="translate(995 3297.501)"/>
    <path id="Path_178" data-name="Path 178" d="M542.5,236.25h-140a8.75,8.75,0,0,0,0,17.5h140a8.75,8.75,0,0,0,0-17.5Z" transform="translate(995 3297.501)"/>
    <path id="Path_179" data-name="Path 179" d="M586.25,105H420v17.5a34.755,34.755,0,0,1-10.254,24.746l-35,35a34.982,34.982,0,0,1-49.5-.012l-34.992-34.992A34.74,34.74,0,0,1,280,122.5V105H113.75A43.8,43.8,0,0,0,70,148.75v315a43.8,43.8,0,0,0,43.75,43.75h472.5A43.8,43.8,0,0,0,630,463.75v-315A43.8,43.8,0,0,0,586.25,105ZM323.75,393.75a35.037,35.037,0,0,1-35,35H166.25a35.037,35.037,0,0,1-35-35V367.5a61.3,61.3,0,0,1,53.98-60.777,61.25,61.25,0,1,1,84.54,0A61.3,61.3,0,0,1,323.75,367.5Zm218.75,35h-140a26.25,26.25,0,0,1,0-52.5h140a26.25,26.25,0,0,1,0,52.5Zm0-78.75h-140a26.25,26.25,0,0,1,0-52.5h140a26.25,26.25,0,0,1,0,52.5Zm0-78.75h-140a26.25,26.25,0,0,1,0-52.5h140a26.25,26.25,0,0,1,0,52.5Z" transform="translate(995 3297.501)"/>
    <path id="Path_180" data-name="Path 180" d="M337.63,169.87a17.484,17.484,0,0,0,24.742,0l35-35A17.505,17.505,0,0,0,402.5,122.5V70A17.506,17.506,0,0,0,385,52.5H315A17.506,17.506,0,0,0,297.5,70v52.5a17.5,17.5,0,0,0,5.129,12.371Z" transform="translate(995 3297.501)"/>
  </g>
</svg>
