<svg xmlns="http://www.w3.org/2000/svg" width="556.938" height="573.386" viewBox="0 0 556.938 573.386">
  <g id="Group_343" data-name="Group 343" transform="translate(-175 -3761)">
    <path id="Path_237" data-name="Path 237" d="M869.165,714.186l-29.622,19.262-.243-.374a13.753,13.753,0,0,1,4.032-19.027h0l2.741-7.623,12.765-2.459,2.586-1.681Z" transform="translate(-144.293 3599.304)" fill="#2f2e41"/>
    <path id="Path_239" data-name="Path 239" d="M681.325,733.817H645.991v-.447a13.753,13.753,0,0,1,13.752-13.753h0l6.454-4.9,12.042,4.9h3.085Z" transform="translate(-129.475 3598.391)" fill="#2f2e41"/>
    <path id="Path_247" data-name="Path 247" d="M624.209,736.846a1.085,1.085,0,0,0,1.088,1.089H857a1.089,1.089,0,0,0,0-2.177H625.3a1.085,1.085,0,0,0-1.088,1.089Z" transform="translate(-126.151 3596.451)" fill="#ccc"/>
    <path id="Path_233" data-name="Path 233" d="M734.627,713.694a2.076,2.076,0,0,0,1.5-3.6l-.143-.566.057-.136a5.575,5.575,0,0,1,10.283.038c1.682,4.051,3.823,8.109,4.351,12.392a16.494,16.494,0,0,1-.29,5.672,66.121,66.121,0,0,0,6.015-27.462,63.773,63.773,0,0,0-.4-7.12q-.328-2.907-.91-5.773a66.882,66.882,0,0,0-13.264-28.348,17.8,17.8,0,0,1-7.4-7.681,13.586,13.586,0,0,1-1.235-3.71c.36.047,1.359-5.442,1.087-5.779.5-.762,1.4-1.141,1.95-1.885,2.728-3.7,6.487-3.053,8.449,1.974,4.192,2.115,4.232,5.624,1.66,9-1.636,2.147-1.861,5.052-3.3,7.35.148.189.3.372.449.561a67.345,67.345,0,0,1,7.026,11.131,27.982,27.982,0,0,1,1.671-13c1.6-3.858,4.6-7.107,7.236-10.442a5.744,5.744,0,0,1,10.231,2.821c.005.049.011.1.016.147q-.588.332-1.151.7a2.816,2.816,0,0,0,1.135,5.124l.057.009a28.01,28.01,0,0,1-.739,4.189c3.386,13.1-3.924,17.866-14.363,18.08-.231.118-.455.236-.685.349a68.718,68.718,0,0,1,3.7,17.406,65.23,65.23,0,0,1-.047,10.523l.018-.124a17.219,17.219,0,0,1,5.879-9.944c4.524-3.717,10.916-5.085,15.8-8.072a3.232,3.232,0,0,1,4.95,3.144l-.02.13a18.977,18.977,0,0,0-2.121,1.022q-.588.332-1.151.7a2.816,2.816,0,0,0,1.135,5.124l.057.009.118.018a28.046,28.046,0,0,1-5.158,8.077c-2.117,11.432-11.211,12.517-20.939,9.188h-.006a68.71,68.71,0,0,1-4.614,13.471H735.041c-.059-.183-.112-.372-.166-.555a18.718,18.718,0,0,0,4.561-.272c-1.223-1.5-2.446-3.013-3.669-4.514a1.019,1.019,0,0,1-.077-.089c-.62-.768-1.247-1.53-1.867-2.3h0a27.443,27.443,0,0,1,.8-6.989Z" transform="translate(-143.536 3604.836)" fill="#40b858" stroke="#40b858" stroke-width="1"/>
    <path id="Path_234" data-name="Path 234" d="M81.912,239.681h98.242a10.977,10.977,0,0,1,10.977,10.977V351.542a10.977,10.977,0,0,1-10.977,10.977h0A109.219,109.219,0,0,1,70.935,253.3v-2.642a10.977,10.977,0,0,1,10.977-10.977Z" transform="translate(168.94 3765.64)" fill="#3f3d56"/>
    <path id="Path_235" data-name="Path 235" d="M504.266,393.336H396.982a14.271,14.271,0,0,0-14.261,14.252v110.23a14.279,14.279,0,0,0,14.261,14.261H504.266a14.279,14.279,0,0,0,14.261-14.261V407.588A14.271,14.271,0,0,0,504.266,393.336Zm12.066,124.482a12.083,12.083,0,0,1-12.066,12.066H396.982a12.077,12.077,0,0,1-12.066-12.066V407.588a12.077,12.077,0,0,1,12.066-12.066H504.266a12.083,12.083,0,0,1,12.066,12.066Z" transform="translate(-150.47 3604.609)" fill="#ccc"/>
    <path id="Path_236" data-name="Path 236" d="M540.944,539.227l-9.632,6.263-28.744-34.175,14.217-9.245Z" transform="translate(177.054 3764.436)" fill="#a0616a"/>
    <path id="Path_238" data-name="Path 238" d="M362.474,556.5h-11.49l-5.466-44.32h16.959Z" transform="translate(188.279 3761.797)" fill="#a0616a"/>
    <path id="Path_240" data-name="Path 240" d="M800.927,423.235,697.89,425.5l-10.213,12.766s.883-4.5.1.443S667.11,542.223,670.867,545.529s-7.125,26.131-7.924,27.523-9.414,70.1,0,75.746l3.536,23.981h16.455S699.418,653.7,696.1,650.245s6.17-14.957,6.533-21.123,3.827-34.133,1.143-38.617-6.312-21.312.5-27.836,38.564-86.694,38.564-86.694,9.228,93.987,9.206,101.367c-.028,9.6,6.274,4.847,6.274,13.273,0,1.7,20.522,45.453,34.314,59.128l28.522,21.94,13.163-9.873V647.548s-12.2-26.46-16.454-30.716-19.968-17.282-19.968-23.24-7.4-8.033-2.422-15.932,3.273-11.3,1.571-14.708,1.526-142.893,1.526-142.893Z" transform="translate(-129.079 3623.358)" fill="#2f2e41"/>
    <path id="Path_241" data-name="Path 241" d="M614.128,234.463a7.963,7.963,0,0,1,9.243,6.159,7.626,7.626,0,0,1,.142,1.255l50.723,19.464-10.465,15.174-48.388-26.777a7.941,7.941,0,0,1-7.391-6.274,7.6,7.6,0,0,1,5.931-8.963Q614.026,234.481,614.128,234.463Z" transform="translate(-143.139 3592.96)" fill="#a0616a"/>
    <path id="Path_242" data-name="Path 242" d="M646.044,268.6s12.31,6.721,26.985,14.058c1.017.5,2.037,1.015,3.083,1.525,8.892,4.387,18.375,8.848,26.361,12.077,8.522,3.461,15.354,5.537,17.972,4.676a2,2,0,0,0,.613-.305c6.859-5.2,1.523-.065,6.58,3.423,5.075,3.49,2.361-2.555,8.426-9s3.462-1.313,8.587,3.4c1.6,1.481,9.524-1.89,19.647-7.21-2.57-10.585-4.076-19.983-4.076-19.983a92.059,92.059,0,0,0-8.582-17.408c-18.646,6.553-34.035,12.059-34.727,12.593-1.791,1.366-6.714,1.425-12.522.5-.827-.133-2.452-.549-4.629-1.174-1.924-.547-4.26-1.251-6.864-2.046-2.934-.915-7.173-.436-9.574-3.036-6.953-7.494-3.243-1.353-4.376-1.4-1.291-.056-3.334.5-4.739.25a1.628,1.628,0,0,1-1.513-1.348,3.292,3.292,0,0,1-.019-.935c.266-2.493-1.405-2.105-2.991-1.766a4.165,4.165,0,0,1-1.964.134c-7.827-2.57-13.774-4.568-13.774-4.568l-1.019,2.281,0,.01-6.051,13.436Z" transform="translate(-138.918 3599.507)" fill="#40b858"/>
    <path id="Path_243" data-name="Path 243" d="M802.008,426.283c8.453,16.365-.787,35.191-.787,35.191l-110.55-38.2,1.1-17.545,10.374-8.553-4.034-2.616.064-.256,7.382-26.931,4.94-18.012,1.738-6.33L714.977,333l4.455-16.246,3.147-11.462,4.107-14.993,3.7-13.52.677-2.452,1.646-6.01.723-2.653,1.455-5.269,3.814-13.932a46.9,46.9,0,0,0,5.077-.32c1.7-.174,2.086-9.1,3.943-9.358,9.212-1.281,19.128-4.034,25.229-1.1,1.848.887,3.989,3.851,6.074,7.153,2.571,4.062,5.05,8.617,6.8,10.392a48.676,48.676,0,0,1,6.019,7.547.7.7,0,0,1,.092.138,65.83,65.83,0,0,1,6.669,13.758,90.163,90.163,0,0,1,3.247,11.462q.906,4.171,1.473,8.416a129.854,129.854,0,0,1,1.2,17.728s-2.525,12.633-4.254,27.278c-1.281,10.8-2.132,22.7-1.207,31.432.549,5.305,1.756,9.44,3.915,11.462,9.413,8.8,1.628,18.268-.119,20.171.7-.457,2.571-.466,5.2,8.581C808.622,413.174,800.782,423.923,802.008,426.283Z" transform="translate(-131.815 3592.956)" fill="#40b858"/>
    <circle id="Ellipse_68" data-name="Ellipse 68" cx="28.366" cy="28.366" r="28.366" transform="translate(600.898 3768.288)" fill="#a0616a"/>
    <path id="Path_244" data-name="Path 244" d="M783.332,218.664c-.476-1.107-.064-3.513,1.738-7.647,2.14-2.1,1.5-7.346-2.159-6.211l.009.421c-5.69-17.207-41.028-9.391-38.759-23.1-.43,3.1-3.138.156-5.928-.887-1.1-.4-3.073,6.467-3.622,3.568-.275-1.473-4.419-.5-4.611-1.78,2.772-2.2,8.773-7.623,9.752-11.026a31.775,31.775,0,0,1-6.4,3.5c6.744-16.483,16.661-14.982,25.431-11.105,5.442,2.406,14.133-5.242,21.534-1.454,12.258,6.257,22.467,23.958,17.673,31.349C804.71,203.122,785.408,223.567,783.332,218.664Z" transform="translate(-135.167 3599.137)" fill="#2f2e41"/>
    <path id="Path_245" data-name="Path 245" d="M433.1,521.812c19.593,26.339-11.7,56.2-44.523,56.2a59.438,59.438,0,0,1-59.438-59.438c0-32.826,34.725-65.52,61.881-47.078C410.038,484.413,418.7,502.451,433.1,521.812Z" transform="translate(-145.903 3604.187)" fill="#3f3d56"/>
    <path id="Path_246" data-name="Path 246" d="M389.763,451.162c-.814-.027-1.637-.046-2.47-.046a65.145,65.145,0,0,0-7.712.448c-.741.073-1.473.174-2.2.283A67.169,67.169,0,1,0,451.812,537c.21-.732.412-1.464.595-2.2a66.288,66.288,0,0,0,1.994-13.767c.046-.915.064-1.83.064-2.753A67.255,67.255,0,0,0,389.763,451.162Zm60.375,83.646c-.192.741-.4,1.473-.622,2.2a64.978,64.978,0,1,1-72.13-82.942c.732-.11,1.464-.21,2.2-.293a65,65,0,0,1,7.712-.458c1.07,0,2.131.028,3.183.073a65.064,65.064,0,0,1,61.793,64.9c0,.631-.009,1.253-.027,1.875A64.879,64.879,0,0,1,450.138,534.808Z" transform="translate(-145.136 3605.622)" fill="#ccc"/>
    <circle id="Ellipse_69" data-name="Ellipse 69" cx="37.558" cy="37.558" r="37.558" transform="translate(421.299 3869.302)" fill="#ff6584"/>
    <path id="Path_248" data-name="Path 248" d="M608.558,234.8c-4.949-3.1-8.462-3.6-8.123.229h.128a37.309,37.309,0,0,1,6.6.576,36.7,36.7,0,0,1,3.906.9C610.2,235.884,609.363,235.308,608.558,234.8Zm28.9,29.108a38,38,0,0,0-12.916-20.335,36.727,36.727,0,0,0-5.132-3.531,37.454,37.454,0,0,0-8.342-3.54c7.364,5.37,16.7,15.139,21.735,24.836a28.258,28.258,0,0,1,3.613,12.1,35.477,35.477,0,0,1-1.793,12.13c-4.638,13.758-17.765,22.631-33.883,22.631-15.332,0-27.718-8.023-32.959-20.655a36.607,36.607,0,0,1-2.717-14.106c0-20.473,38.384-23.281,35.5-37.524a6.9,6.9,0,0,1-.128-.887,37.982,37.982,0,1,0,37.021,28.879Z" transform="translate(-142.963 3593.132)" fill="#3f3d56"/>
    <path id="Path_249" data-name="Path 249" d="M603.4,337.642a8.7,8.7,0,0,1,12.095.968,8.331,8.331,0,0,1,.8,1.122l58.759-8.372L673.124,351.4l-60.415.151a8.675,8.675,0,0,1-10.389-2.061,8.3,8.3,0,0,1,.9-11.706Q603.306,337.714,603.4,337.642Z" transform="translate(-142.699 3598.854)" fill="#a0616a"/>
    <path id="Path_250" data-name="Path 250" d="M795.185,275.409c-12.734,22.119-28.55,47.824-32.795,46.8-7.391-1.775-7.639-8.05-9.989,1.317s3.43,13.694-3.248,13.072c-6.687-.649-4.327-8.379-8.114.22-.585,1.336-3.1,2.479-6.943,3.449-5.983,1.528-15.176,2.653-25.275,3.494-6.312.512-12.971.924-19.421,1.244-19.457.951-36.966,1.1-36.966,1.1l-.183-2.168L650.89,327.88l-.238-2.717s14.069-2.625,28.239-5.434c12.706-2.516,25.5-5.168,28.349-6.22,6.037-2.2,10.7-4.866,11.682-7.117a2.489,2.489,0,0,1,.247-.366c.841-1.134,3.787-4.583,8.077-9.5,11.2-12.843,31.523-35.713,47.44-53.56.311.2.613.4.924.613,2.57,4.062,5.049,8.617,6.8,10.392a48.665,48.665,0,0,1,6.019,7.547.723.723,0,0,1,.092.138,65.865,65.865,0,0,1,6.669,13.758Z" transform="translate(-128.404 3592.225)" fill="#40b858"/>
  </g>
</svg>
