<svg xmlns="http://www.w3.org/2000/svg" width="679.401" height="530.792" viewBox="0 0 679.401 530.792">
  <g id="Group_250" data-name="Group 250" transform="translate(-1697 -3312)">
    <path id="Path_51" data-name="Path 51" d="M151.159,98.116a15.464,15.464,0,0,0,15.43,15.4h80.994a15.37,15.37,0,0,0,13.341-23.107l-40.5-70.143a15.4,15.4,0,0,0-26.682,0l-40.5,70.143A15.372,15.372,0,0,0,151.159,98.116Z" transform="translate(1722.472 3314.118)" fill="#f2f2f2"/>
    <path id="Path_52" data-name="Path 52" d="M276.882,141.945a8.723,8.723,0,0,0,8.7,8.69h45.691A8.671,8.671,0,0,0,338.8,137.6L315.958,98.03a8.69,8.69,0,0,0-15.052,0L278.06,137.6A8.671,8.671,0,0,0,276.882,141.945Z" transform="translate(1743.657 3327.787)" fill="#f2f2f2"/>
    <path id="Path_53" data-name="Path 53" d="M23.882,140.945a8.723,8.723,0,0,0,8.7,8.69H78.277A8.671,8.671,0,0,0,85.8,136.6L62.958,97.03a8.69,8.69,0,0,0-15.052,0L25.06,136.6A8.672,8.672,0,0,0,23.882,140.945Z" transform="translate(1701.024 3327.618)" fill="#3f3d56"/>
    <path id="Path_54" data-name="Path 54" d="M489.882,103.091a8.666,8.666,0,0,0,1.144,4.285,9.022,9.022,0,0,0,7.894,4.405h19.317a9.022,9.022,0,0,0,7.894-4.405,8.6,8.6,0,0,0-.035-8.63l-9.8-26.378a9.076,9.076,0,0,0-7.814-4.682,8.6,8.6,0,0,0-7.433,4.345L491.06,98.746A8.672,8.672,0,0,0,489.882,103.091Z" transform="translate(1779.549 3323.406)" fill="#3f3d56"/>
    <path id="Path_55" data-name="Path 55" d="M330.445,147.983H284.755c-3.466,0-6.6-1.176-8.391-3.147a4.992,4.992,0,0,1,0-7.1l22.846-25.169c1.789-1.971,4.926-3.147,8.391-3.147s6.6,1.176,8.391,3.147l22.845,25.169a4.991,4.991,0,0,1,0,7.1C337.049,146.806,333.911,147.983,330.445,147.983ZM307.6,111.759c-2.817,0-5.307.89-6.661,2.381-3.556,10.694-11.027,19.165-22.846,25.168a2.676,2.676,0,0,0,0,3.957c1.353,1.49,3.843,2.38,6.661,2.38h45.691c2.818,0,5.308-.89,6.661-2.38a2.675,2.675,0,0,0,0-3.957l-22.845-25.169C312.908,112.649,310.418,111.759,307.6,111.759Z" transform="translate(1743.32 3330.438)" fill="#3f3d56"/>
    <path id="Path_56" data-name="Path 56" d="M221.219,115.786a17.372,17.372,0,0,1-9.787-3.044L144.421,67.248a17.3,17.3,0,0,1-7.615-15.729,17.323,17.323,0,0,1,9.816-14.459l72.9-35.286a17.476,17.476,0,0,1,25.043,17l-5.892,80.78a17.553,17.553,0,0,1-17.458,16.231ZM227.161,4.151A13.358,13.358,0,0,0,221.33,5.5c-17.705,17.788-36.07,34.972-72.9,35.285a13.173,13.173,0,0,0-7.488,11.032,13.2,13.2,0,0,0,5.809,12l67.011,45.493a13.2,13.2,0,0,0,13.3.97,13.174,13.174,0,0,0,7.487-11.031l5.892-80.78A13.372,13.372,0,0,0,227.161,4.151Z" transform="translate(1720.045 3312)" fill="#3f3d56"/>
    <rect id="Rectangle_58" data-name="Rectangle 58" width="620.34" height="2.337" transform="translate(1697 3476.084)" fill="#3f3d56"/>
    <path id="Path_57" data-name="Path 57" d="M118.363,66.538c-28.257,8.107-40.8,33.418-40.926,33.679l2.1,1.018c.121-.251,12.134-24.438,39.114-32.355l-2.075,10.273C120.972,74,128.5,68.633,134.7,65.221c-6.926-1.457-15.69-4.4-21.393-8.052l5.056,9.369Z" transform="translate(1710.049 3321.634)" fill="#40b858"/>
    <path id="Path_58" data-name="Path 58" d="M245.3,44.806l-.605,2.257c.269.072,26.28,7.334,39.118,32.349l-10.48-.112c5.886,3.349,12.57,9.735,17.085,15.187.132-7.077,1.38-16.237,3.9-22.524l-8.254,6.723C272.8,52.454,245.581,44.881,245.3,44.806Z" transform="translate(1738.233 3319.55)" fill="#40b858"/>
    <path id="Path_59" data-name="Path 59" d="M386.211,72.783c-6.2-3.421-13.713-8.8-18.1-13.963l2.09,10.439c-29.384-.527-48.8,20.006-48.995,20.217l1.713,1.59c.189-.2,18.748-19.8,46.873-19.481L364.8,80.8C370.513,77.158,379.282,74.23,386.211,72.783Z" transform="translate(1751.127 3321.912)" fill="#40b858"/>
    <path id="Path_71" data-name="Path 71" d="M527.431,449.974a2.652,2.652,0,0,0,1.922-4.6l-.182-.722.072-.173a7.121,7.121,0,0,1,13.136.049c2.148,5.174,4.884,10.358,5.557,15.828a21.062,21.062,0,0,1-.37,7.245,84.462,84.462,0,0,0,7.683-35.08,81.562,81.562,0,0,0-.505-9.094q-.419-3.713-1.162-7.374a85.441,85.441,0,0,0-16.943-36.212,22.736,22.736,0,0,1-9.457-9.811,17.342,17.342,0,0,1-1.578-4.74c.46.06,1.736-6.951,1.389-7.381.642-.974,1.79-1.458,2.491-2.408,3.485-4.725,8.286-3.9,10.793,2.521,5.354,2.7,5.406,7.184,2.121,11.494-2.09,2.742-2.378,6.453-4.212,9.389.189.242.385.475.574.717a86,86,0,0,1,8.975,14.219,35.747,35.747,0,0,1,2.134-16.6c2.043-4.928,5.872-9.078,9.243-13.339,4.05-5.117,12.355-2.884,13.069,3.6.007.063.014.125.02.188q-.751.424-1.47.9a3.6,3.6,0,0,0,1.45,6.546l.073.011a35.8,35.8,0,0,1-.944,5.351c4.326,16.728-5.013,22.821-18.347,23.094-.294.151-.581.3-.875.445a87.774,87.774,0,0,1,4.725,22.234,83.242,83.242,0,0,1-.06,13.442l.023-.159a22,22,0,0,1,7.51-12.7c5.779-4.747,13.944-6.5,20.178-10.311a4.128,4.128,0,0,1,6.323,4.016l-.025.167a24.147,24.147,0,0,0-2.71,1.306q-.751.424-1.471.9a3.6,3.6,0,0,0,1.45,6.546l.073.011.151.023a35.825,35.825,0,0,1-6.589,10.317c-2.7,14.6-14.321,15.988-26.747,11.736h-.008a87.755,87.755,0,0,1-5.894,17.208H527.958c-.076-.234-.143-.476-.211-.71a23.927,23.927,0,0,0,5.827-.347c-1.562-1.917-3.125-3.849-4.687-5.766a1.275,1.275,0,0,1-.1-.113c-.793-.981-1.593-1.955-2.385-2.936h0a35.036,35.036,0,0,1,1.027-8.927h0Z" transform="translate(1785.569 3371.398)" fill="#f2f2f2"/>
    <path id="Path_72" data-name="Path 72" d="M325.616,452.26a1.386,1.386,0,0,0,1.391,1.391H622.978a1.391,1.391,0,1,0,0-2.781H327.006A1.386,1.386,0,0,0,325.616,452.26Z" transform="translate(1751.869 3387.975)" fill="#ccc"/>
    <circle id="Ellipse_13" data-name="Ellipse 13" cx="14.022" cy="14.022" r="14.022" transform="translate(1914.205 3463.231)" fill="#ccc"/>
    <circle id="Ellipse_14" data-name="Ellipse 14" cx="14.022" cy="14.022" r="14.022" transform="translate(2036.898 3465.568)" fill="#ccc"/>
    <circle id="Ellipse_15" data-name="Ellipse 15" cx="14.022" cy="14.022" r="14.022" transform="translate(2275.274 3471.41)" fill="#ccc"/>
    <circle id="Ellipse_16" data-name="Ellipse 16" cx="14.022" cy="14.022" r="14.022" transform="translate(1742.434 3463.231)" fill="#ccc"/>
    <path id="Path_73" data-name="Path 73" d="M56.77,146.343c-.563,0-1.125-.008-1.688-.015.019-.107.039-.215.055-.321a33.416,33.416,0,0,0,.365-5.2,15.968,15.968,0,0,0-.637-5.031,1.789,1.789,0,0,0-2.575-1.048c-1.892.837-3.522,2.506-5.017,3.574a1.8,1.8,0,0,0-.629,2.4,1.767,1.767,0,0,0,2.4.629c1.049-.749,1.935-1.546,2.882-2.261.032.432.056.865.065,1.3a32.743,32.743,0,0,1-.2,4.47c-.008.072-.052.375-.047.349-.013.088-.026.175-.041.263a8.528,8.528,0,0,1-.183.845l-.008.025c-.826.012-1.653.037-2.478.1a1.756,1.756,0,0,0-.466,3.443c1.447.379,3.1.693,4.483-.048,1.241.007,2.483.035,3.724.037a1.753,1.753,0,0,0,0-3.506Z" transform="translate(1704.82 3334.669)" fill="#fff"/>
    <g id="Group_204" data-name="Group 204" transform="translate(1922.998 3467.966)">
      <path id="Path_74" data-name="Path 74" d="M199.237,136.7l-.009-.006a.723.723,0,0,0,.056.048Z" transform="translate(-192.427 -132.932)" fill="#fff"/>
      <path id="Path_75" data-name="Path 75" d="M204.083,146.851c-1.485.005-2.966.115-4.45.139-.205,0-.392,0-.587,0,.731-.581,1.466-1.157,2.169-1.772,1.853-1.62,3.852-3.865,3.568-6.518s-2.715-5.49-5.6-5.209a5.873,5.873,0,0,0-4.862,4.2,3.95,3.95,0,0,0,.548,3.573,4.44,4.44,0,0,0,3.847,1.47c-.11.1-.213.2-.324.294-.885.75-1.814,1.446-2.709,2.185a8.413,8.413,0,0,0-2.05,2.193,1.773,1.773,0,0,0,1.048,2.575c3.055.875,6.275.381,9.4.37a1.753,1.753,0,1,0,0-3.505Zm-3.553-5.924v0C200.571,140.866,200.568,140.875,200.53,140.927Zm-.649-3.881c-.088-.046-.168-.1,0,0Zm.106.041c0,.008-.039-.007-.08-.027A.459.459,0,0,1,199.987,137.087Zm-2.371,1.987,0,.012-.007-.015Zm-.024-.015.011.031c-.036-.036-.067-.068-.069-.068C197.56,139.023,197.573,139.044,197.592,139.058Zm.016.047,0,0C197.453,139.033,197.522,139.058,197.608,139.106Zm.008.025v0Zm.443.108-.044,0c-.08-.023-.165-.041-.246-.058a.175.175,0,0,1,.064.05.262.262,0,0,0-.092-.057h0a.485.485,0,0,1-.053-.016c.034.025.057.049.05.066,0,0-.036-.033-.075-.073.03.09.018.164-.008.016,0-.007,0-.012,0-.019l-.009,0v-.013h0v0l-.005,0,0,0h0l.008.005,0-.038a.21.21,0,0,1,.014.037c0-.075-.006-.171-.009-.237.01-.049.02-.1.033-.145.018-.069.1-.275.121-.35.049-.093.1-.186.151-.276.037-.062.162-.235.21-.307.078-.087.182-.2.223-.245.071-.071.146-.137.219-.205s.251-.273.055-.051c-.18.2-.026.021.066-.034s.167-.1.254-.151l.032-.013c-.054.01-.064,0,.085-.043l.028-.008a.22.22,0,0,0,.08-.048.157.157,0,0,1-.052.04l.178-.05c-.018,0-.04,0-.054-.009a.373.373,0,0,0,.064.006l.035-.01c.23-.065.161-.01.056.013.073,0,.15,0,.219,0-.117-.021-.225-.083,0-.016l.052.015a.357.357,0,0,0,.075-.007.138.138,0,0,1-.068.009l.2.057.01.005c.086.049.171.1.256.149.02.012.027.018.042.028-.019-.017-.034-.03-.058-.054.02.022.045.04.067.061.08.054.089.072.047.042.061.053.123.106.18.162.1.1.192.207.289.311l.033.033.019.031c.141.219.259.448.393.669.005.014.011.029.015.043.029.1.057.213.089.317.006.018.008.023.013.036,0,.109.012.218.009.328l0,.083c-.008.058-.019.129-.026.16-.023.1-.051.2-.082.3-.012.038-.027.077-.039.116-.2.353-.4.7-.626,1.036a1.762,1.762,0,0,0-1.745-1.679C198.541,139.247,198.3,139.244,198.06,139.238Z" transform="translate(-193.408 -133.475)" fill="#fff"/>
      <path id="Path_76" data-name="Path 76" d="M197.04,138.309v.005h0v0l-.006,0h0v0l.01.01v.005l.007,0h0l.025.008-.03-.02v0l.089.04.027.007a.375.375,0,0,0-.117-.047Z" transform="translate(-192.797 -132.66)" fill="#fff"/>
      <path id="Path_77" data-name="Path 77" d="M198.571,136.492l-.091,0-.01,0A.254.254,0,0,0,198.571,136.492Z" transform="translate(-192.554 -132.967)" fill="#fff"/>
      <path id="Path_78" data-name="Path 78" d="M198.8,136.492l-.007,0-.054,0A.254.254,0,0,0,198.8,136.492Z" transform="translate(-192.508 -132.966)" fill="#fff"/>
      <path id="Path_79" data-name="Path 79" d="M197.034,138.312l.006,0-.009,0Z" transform="translate(-192.797 -132.66)" fill="#fff"/>
      <path id="Path_80" data-name="Path 80" d="M197.03,138.31Z" transform="translate(-192.797 -132.66)" fill="#fff"/>
      <path id="Path_81" data-name="Path 81" d="M198.339,136.534l-.028.008-.113.051A.43.43,0,0,0,198.339,136.534Z" transform="translate(-192.601 -132.959)" fill="#fff"/>
    </g>
    <path id="Path_82" data-name="Path 82" d="M309.855,144.843c-.063-.078-.144-.14-.211-.215a2.906,2.906,0,0,0,.6-.836c.866-1.873-.14-3.9-1.412-5.31a8.247,8.247,0,0,0-9.936-1.406,1.753,1.753,0,1,0,1.769,3.027c.129-.08.262-.151.394-.226.039-.022.059-.035.079-.048l.058-.019a7.884,7.884,0,0,1,.886-.244c.039-.009.061-.015.08-.02l.069,0c.156-.008.312-.022.469-.024.28,0,.557.018.835.039.064.011.127.022.19.035q.233.046.462.108a6.85,6.85,0,0,1,.729.243c.067.032.2.093.237.112.136.071.271.146.4.226s.25.173.38.252c-.331-.2-.04-.028.04.045a5.984,5.984,0,0,1,.531.565c.021.027.045.06.068.094q.128.186.24.382c.014.025.083.156.128.24.025.067.073.187.081.213.013.044.021.083.029.12a1.211,1.211,0,0,1-.125.045c-.094.024-.189.04-.284.057-.044.006-.124.016-.207.021-.27.019-.54.022-.811.023a1.753,1.753,0,0,0-1.721,1.52,1.774,1.774,0,0,0,1.255,1.923l.166.063.206.092c.225.109.445.227.659.355.129.078.253.162.38.244l.052.034a4.824,4.824,0,0,1,.484.44c.086.091.252.389.071.065a2.513,2.513,0,0,0,.14.219c.011.016.017.021.025.032v0c0,.008.012.039.023.075a1.72,1.72,0,0,1-.092.156c.126-.218.011-.014-.085.085a2.344,2.344,0,0,1-.562.448c-.116.07-.236.136-.359.195-.033.009-.167.06-.219.075-.108.032-.218.055-.328.079-.042,0-.134.016-.2.019-.138,0-.275,0-.413-.005h-.082l-.028-.008c-.274-.068-.547-.121-.817-.208-.136-.044-.27-.094-.4-.143l-.1-.035c.009,0,.009,0-.044-.024-.563-.259-1.106-.554-1.646-.858a1.753,1.753,0,1,0-1.769,3.027,11.489,11.489,0,0,0,4.89,1.756,5.989,5.989,0,0,0,4.968-2.329A3.747,3.747,0,0,0,309.855,144.843Zm-2.746-2.593a.544.544,0,0,0,.038-.064C307.174,142.151,307.181,142.145,307.109,142.25Zm.06-.1.012-.02c.014,0,.05-.01.147-.071C307.274,142.092,307.221,142.12,307.168,142.15Zm.23,5.359c.007.029.011.052.007.055Z" transform="translate(1747.22 3334.919)" fill="#fff"/>
    <path id="Path_83" data-name="Path 83" d="M514.867,148.635a1.874,1.874,0,0,0-1.6-1.291c-.09-.845-.156-1.693-.163-2.549a1.753,1.753,0,0,0-3.506,0,26.948,26.948,0,0,0,.182,2.789c-.667-.04-1.335-.089-2-.065-.8.029-1.6.158-2.4.212-.114.008-.228,0-.342,0,.111-.332.223-.663.355-.988.022-.049.053-.118.079-.173q.075-.159.156-.315a7.385,7.385,0,0,1,.38-.653c.047-.071.318-.4.036-.073.084-.1.163-.2.252-.287.064-.067.133-.127.2-.189.026-.02.06-.043.1-.071a1.753,1.753,0,1,0-1.77-3.027c-2.272,1.427-3.042,4.258-3.748,6.682a1.785,1.785,0,0,0,.805,1.979c1.768,1.049,3.838.511,5.755.413a26.008,26.008,0,0,1,2.62.071,35.341,35.341,0,0,1,.489,5.121,1.753,1.753,0,0,0,3.506,0,37.383,37.383,0,0,0-.533-5.471A1.768,1.768,0,0,0,514.867,148.635Zm-8.371-3.574c-.058.051-.06.045,0,0Z" transform="translate(1781.428 3335.88)" fill="#fff"/>
    <g id="Group_249" data-name="Group 249" transform="translate(2262.462 3842.792) rotate(180)">
      <path id="Path_265" data-name="Path 265" d="M103.082,0H6.93a6.93,6.93,0,0,0,0,13.859h96.152a6.93,6.93,0,1,0,0-13.859Z" transform="translate(55.466 392.423)" fill="#e6e6e6"/>
      <path id="Path_274" data-name="Path 274" d="M0,0h15.36L22.67,59.246H0Z" transform="translate(88.559 14.896)" fill="#ffb8b8"/>
      <path id="Path_275" data-name="Path 275" d="M0,19.9H30.251A19.277,19.277,0,0,0,49.528.626V0H0Z" transform="translate(84.644 0)" fill="#2f2e41"/>
      <path id="Path_276" data-name="Path 276" d="M0,0h15.36L22.67,59.246H0Z" transform="translate(27.168 14.896)" fill="#ffb8b8"/>
      <path id="Path_277" data-name="Path 277" d="M0,19.9H30.251A19.277,19.277,0,0,0,49.528.626V0H0Z" transform="translate(23.253 0)" fill="#2f2e41"/>
      <circle id="Ellipse_74" data-name="Ellipse 74" cx="30.772" cy="30.772" r="30.772" transform="translate(60.856 425.06)" fill="#ffb8b8"/>
      <path id="Path_278" data-name="Path 278" d="M92.83,0h-28.5A5.638,5.638,0,0,0,58.69,5.707l1.656,135.35a1.879,1.879,0,0,1-3.745.25L40.012,4.961A5.638,5.638,0,0,0,34.415,0H5.638A5.638,5.638,0,0,0,.017,6.083l19,243.153.516.056,91,9.828L98.462,5.375A5.638,5.638,0,0,0,92.824,0Z" transform="translate(19.49 27.672)" fill="#2f2e41"/>
      <path id="Path_279" data-name="Path 279" d="M5.885,0A5.638,5.638,0,0,0,.268,5.46c-.5,15.374-1.348,68.573,8.547,107.629a51.273,51.273,0,0,0,47.35,38.638h0a51.592,51.592,0,0,0,50.815-32.6c16.632-42.222,32.347-94.274,12.755-102.438C94.058,5.993,26.368,1.223,6.233.016Q6.058,0,5.885,0Z" transform="translate(33.731 261.981)" fill="#40b858"/>
      <path id="Path_280" data-name="Path 280" d="M15.1,91.934a13.186,13.186,0,0,1,1.561-1.369l-3.23-62.05L0,21.635,7.732,0,32.7,9.866A10.023,10.023,0,0,1,39,20.116L32.457,90.5a13.155,13.155,0,1,1-17.351,1.432Z" transform="translate(142.122 394.999)" fill="#ffb8b8"/>
      <path id="Path_281" data-name="Path 281" d="M43.139,40.426l9.452-26.86a5.638,5.638,0,0,0-4.246-7.407L20.475.761A15.661,15.661,0,0,0,10.166,30.329L35.191,43.538a5.638,5.638,0,0,0,7.948-3.115Z" transform="translate(112.673 380.776)" fill="#40b858"/>
      <path id="Path_282" data-name="Path 282" d="M23.937,91.934a13.177,13.177,0,0,0-1.561-1.369l3.23-62.05,13.436-6.88L31.31,0,6.34,9.866a10.023,10.023,0,0,0-6.3,10.25L6.585,90.5a13.155,13.155,0,1,0,17.351,1.432Z" transform="translate(0 394.999)" fill="#ffb8b8"/>
      <path id="Path_283" data-name="Path 283" d="M13.034,43.8a5.638,5.638,0,0,0,4.687-.263L42.746,30.328A15.661,15.661,0,0,0,32.437.76L4.566,6.153A5.638,5.638,0,0,0,.32,13.56L9.771,40.42a5.638,5.638,0,0,0,3.263,3.38Z" transform="translate(15.579 380.784)" fill="#40b858"/>
      <path id="Path_284" data-name="Path 284" d="M53.122,27.518a20.226,20.226,0,0,0,11.327,19C73.8,51.35,79.679,61.65,77.1,71.055c-3.3,12.039-19.681,19.847-32.957,15.7a60.851,60.851,0,0,1-10.35-4.81L25.123,77.3a89.86,89.86,0,0,1-10.692-6.312A35.476,35.476,0,0,1,.311,37.75C2.018,25.511,10.034,14.288,21.006,6.6A35,35,0,0,1,35.187.3C40.449-.568,46.3.417,50.145,3.682c6.014,5.111,5.387,13.67,3.445,20.818a15.154,15.154,0,0,0-.468,3.018Z" transform="translate(50.457 423.069)" fill="#2f2e41"/>
    </g>
  </g>
</svg>
