<svg xmlns="http://www.w3.org/2000/svg" width="37.38" height="22.437" viewBox="0 0 37.38 22.437">
  <path id="Icon_awesome-signature" data-name="Icon awesome-signature" d="M36.412,11.978c-3.027.2-7.344,3.2-9.529,4.178a12.093,12.093,0,0,1-4.446,1.426c-1.32,0-1.519-.947-1.244-3.032.064-.467.684-4.627-2.495-4.446-1.467.088-3.757,1.449-9.9,7.362l2.425-6.059A5.048,5.048,0,0,0,3.64,5.4L.433,7.556A.94.94,0,0,0,.146,8.847l1,1.578a.929.929,0,0,0,1.291.286L5.831,8.438a1.3,1.3,0,0,1,1.911,1.583L2,24.371A1.867,1.867,0,0,0,3.74,26.936a1.848,1.848,0,0,0,1.32-.549c2.466-2.466,9.039-8.8,12.34-11.44-.129,1.665-.123,3.441,1.2,4.9a4.931,4.931,0,0,0,3.827,1.478,14.776,14.776,0,0,0,5.977-1.753c1.928-.865,5.784-3.658,8.086-3.844a.938.938,0,0,0,.888-.923V12.925a.927.927,0,0,0-.97-.947Z" transform="translate(-0.002 -4.499)" fill="#fff"/>
</svg>
