<?xml version="1.0" encoding="UTF-8"?>
<svg width="700pt" height="700pt" version="1.1" viewBox="0 0 700 700" xmlns="http://www.w3.org/2000/svg">
 <path d="m363.6 48.105 64.695 132c1.4961 3.0547 3.5977 5.5703 6.1445 7.4219 2.5273 1.832 5.5742 3.0508 8.9766 3.5391l145.74 20.773c3.4727 0.52734 6.375 2.1562 8.5391 4.3867 1.6328 1.6797 2.8516 3.7305 3.5508 5.8984 0.69922 2.168 0.91797 4.5234 0.60156 6.832-0.4375 3.1406-1.8906 6.2227-4.4766 8.7305l-105.54 102.31c-2.4688 2.3867-4.2188 5.1602-5.1914 8.1484-0.96484 2.9766-1.1758 6.25-0.58984 9.6445l25.246 144.82c0.60938 3.5234-0.019531 6.8398-1.4961 9.6289-1.0781 2.0508-2.6602 3.8438-4.5156 5.1992-1.8633 1.3633-4.0469 2.3164-6.3359 2.707-3.1094 0.55078-6.4688 0.125-9.6641-1.5547l-129.92-68.754c-3.0352-1.5938-6.2031-2.4023-9.3398-2.4023-3.1602 0-6.3359 0.80859-9.3594 2.4023l-129.94 68.754c-3.1953 1.6797-6.5547 2.1016-9.7695 1.543-2.3398-0.44141-4.4453-1.375-6.4414-2.8438-1.8789-1.4766-3.3008-3.1367-4.3008-5.0547-1.4805-2.7852-2.125-6.1133-1.5-9.6445l25.246-144.8c0.58984-3.3867 0.37891-6.668-0.58984-9.6445-0.96484-2.9844-2.7109-5.7539-5.1797-8.1484l-105.55-102.32c-2.5859-2.5078-4.0352-5.582-4.4766-8.7383-0.31641-2.2969-0.10547-4.6484 0.65625-6.9766 0.77344-2.2227 1.9531-4.1484 3.5-5.7461 2.1953-2.2695 5.1719-3.9141 8.7422-4.418l145.53-20.742c3.3984-0.48828 6.4492-1.707 8.9766-3.5391 2.5469-1.8516 4.6484-4.3672 6.1445-7.4219l64.695-132c1.582-3.2227 4.0547-5.5352 6.8867-6.9258 2.0977-1.0312 4.4102-1.5547 6.7148-1.5469 2.2617-0.027343 4.5703 0.50391 6.7148 1.5469 2.832 1.3906 5.3047 3.7031 6.8867 6.9258z"/>
</svg>
