<svg xmlns="http://www.w3.org/2000/svg" width="477.633" height="532.716" viewBox="0 0 477.633 532.716">
  <g id="Group_307" data-name="Group 307" transform="translate(-813 -2743.018)">
    <path id="Path_85" data-name="Path 85" d="M458.987,307.5a101.706,101.706,0,0,1-11.182,3.536c-5.009,1.221-7.837,1.787-12.672-.09-.17-.066-.332-.131-.485-.2a51.359,51.359,0,0,1-31.258-46.568c-.024-.342-.024-.7-.024-1.051a50.024,50.024,0,0,1,.242-5.054,51.1,51.1,0,0,1,1.1-6.8l-.048-.009a18.676,18.676,0,0,1-4.921-14.994,24.782,24.782,0,0,1,11.2-18.533A39.208,39.208,0,0,1,427.206,212a41.252,41.252,0,0,1,4.679-.271h14.691a63.459,63.459,0,0,1,9.222-1.454h.024c29.567-2.452,52.884,17.149,50.709,41-.016.026-.04.053-.056.079-.628,1.025-1.184,2-1.675,2.925-.475.867-.878,1.7-1.224,2.487-2.7,6.1,10.124,100.673,5.525,102.109-2.617.815-13.168-69.563-11.276-56.18C500.209,319.482,472.608,302.463,458.987,307.5Z" transform="translate(490.264 2554.479)" fill="#2f2e41"/>
    <path id="Path_86" data-name="Path 86" d="M189.681,394.119l40.985,87.315L73.005,465.466l32.911-83.821Z" transform="translate(804.11 2638.826)" fill="#ffb6b6"/>
    <path id="Path_87" data-name="Path 87" d="M582.3,692.316a229.648,229.648,0,0,1-85.16,11.407L484.59,683.376s-.525,7.577-1.309,19.162a221.554,221.554,0,0,1-40.488-8.584c-25.03-7.827-48.493-19.955-72.276-31.138-4.817-28.717-6.625-73,20.008-98.775l143.35,26.268s23,17.2,16.847,23.365-7.105,5.2-3.063,9.243,12.778,9.448,12.867,12.982C560.561,637.279,570.365,662.308,582.3,692.316Z" transform="translate(493.77 2515.693)" fill="#2f2e41"/>
    <path id="Path_88" data-name="Path 88" d="M477.252,322.007l-34.633,2.416-22.385,21.63-7.84,1.4a29.228,29.228,0,0,0-24.047,30.493c1.613,27.32,5.223,68.142,12.77,81.386,11.7,20.536,21.366,14.093,11.7,20.536s-16.154,1.38-11.7,11.563-6.018,23.244-6.018,23.244l-4.168,4.168,4.421,1.812,140.862,18.329s-12.18-54.763-4.563-68.216,26.086-54.117,9.6-70.029l-16.117-56.715-27.722-8.176Z" transform="translate(491.507 2542.214)" fill="#40b858"/>
    <path id="Path_89" data-name="Path 89" d="M713.644,563.954a16.011,16.011,0,0,1-15.209-19.06L632.36,500.145l7.884-21.32,78.09,53.723a15.988,15.988,0,0,1-4.69,31.406Z" transform="translate(464.764 2525.031)" fill="#ffb6b6"/>
    <path id="Path_90" data-name="Path 90" d="M512.868,343.383l-9.6,3.8,51.219,100.034,106.031,72.275L675.8,493.661l-80.712-69.716-32.314-61.972A39.771,39.771,0,0,0,512.868,343.383Z" transform="translate(478.909 2540.178)" fill="#40b858"/>
    <circle id="Ellipse_17" data-name="Ellipse 17" cx="34.776" cy="34.776" r="34.776" transform="translate(914.864 2785.87)" fill="#ffb6b6"/>
    <path id="Path_91" data-name="Path 91" d="M489.614,252.371c-.58.306-1.152.588-1.732.87-.6.29-1.208.58-1.82.854-11.638,5.275-21.118,5.863-26.869-1.724a32.2,32.2,0,0,0-2.65-11.582,18.611,18.611,0,0,1-3.069,11.582H441.894c-11.928,7.917-18.049,15.19-9.77,41.181.54,1.707,4.236,62.371,5.292,67.035-18.057-6.927-33.634-80.469-34.029-99.848-.024-.314-.024-.644-.024-.966a42.349,42.349,0,0,1,.242-4.647,43.5,43.5,0,0,1,1.1-6.25l-.048-.008a16.322,16.322,0,0,1-4.921-13.789,39.769,39.769,0,0,1,11.05-9.907,70.516,70.516,0,0,1,12.1-4.542c.1-.024.193-.048.3-.072,1.273-.346,2.577-.66,3.882-.934a72.893,72.893,0,0,1,8.143-1.232c.2-.008.394-.024.572-.024a6.1,6.1,0,0,1,3.109.854c.008,0,.008.008.024.008a6.135,6.135,0,0,1,2.988,5.219h12.9c.475,0,.951.016,1.426.04,17.969.717,32.41,8.4,33.336,26.063C489.6,251.163,489.614,251.759,489.614,252.371Z" transform="translate(490.268 2553.569)" fill="#2f2e41"/>
    <circle id="Ellipse_18" data-name="Ellipse 18" cx="22.911" cy="22.911" r="22.911" transform="translate(880.688 2761.517)" fill="#2f2e41"/>
    <path id="Path_92" data-name="Path 92" d="M444.787,216.7c-2.6,12.383-15.445,19.789-27.73,16.759a22.911,22.911,0,0,1-16.759-27.73c3.029-12.285,17.939-8.744,27.73-16.759C441.878,177.634,448.3,200,444.787,216.7Z" transform="translate(490.266 2557.128)" fill="#2f2e41"/>
    <path id="Path_93" data-name="Path 93" d="M392.855,581.711c19.527-79.629,58.216-148.071,122.292-201.694a18.027,18.027,0,0,1,24.734-6.062L692.2,466.312a18.028,18.028,0,0,1,6.062,24.734C673.81,572.753,637.179,643.654,575.974,692.74a18.027,18.027,0,0,1-24.733,6.062L398.917,606.444a18.027,18.027,0,0,1-6.062-24.734Z" transform="translate(491.293 2536.806)" fill="#f2f2f2"/>
    <path id="Path_94" data-name="Path 94" d="M419.93,608.547a18.027,18.027,0,0,1-6.062-24.733c19.526-79.629,58.216-148.071,122.292-201.695a17.794,17.794,0,0,1,6.719-6.346l-3-1.817a18.028,18.028,0,0,0-24.734,6.061C451.072,433.64,412.382,502.082,392.856,581.711a18.027,18.027,0,0,0,6.062,24.733L551.241,698.8a17.947,17.947,0,0,0,18.015.285Z" transform="translate(491.293 2536.807)" opacity="0.2" style="isolation: isolate"/>
    <path id="Path_95" data-name="Path 95" d="M611.192,578.554,508.945,516.947a7.162,7.162,0,0,1,7.393-12.27l102.247,61.608a7.162,7.162,0,0,1-7.393,12.27Z" transform="translate(478.667 2522.31)" fill="#fff"/>
    <path id="Path_96" data-name="Path 96" d="M554.2,492.715l-22.494-13.554a7.163,7.163,0,0,1,7.355-12.293l.038.023L561.6,480.446a7.162,7.162,0,1,1-7.393,12.27Z" transform="translate(476.175 2526.451)" fill="#fff"/>
    <path id="Path_97" data-name="Path 97" d="M592.941,608.843,490.694,547.235a7.162,7.162,0,1,1,7.378-12.279l.015.009,102.247,61.608a7.162,7.162,0,1,1-7.393,12.27Z" transform="translate(480.668 2518.992)" fill="#fff"/>
    <circle id="Ellipse_19" data-name="Ellipse 19" cx="29.864" cy="29.864" r="29.864" transform="translate(1072.98 2924.974)" fill="#3f3d56"/>
    <circle id="Ellipse_20" data-name="Ellipse 20" cx="63.83" cy="63.83" r="63.83" transform="translate(987.535 3147.182)" fill="#fff"/>
    <path id="Path_98" data-name="Path 98" d="M573.006,768.231a64.721,64.721,0,1,1,64.72-64.721A64.72,64.72,0,0,1,573.006,768.231Zm0-127.661a62.94,62.94,0,1,0,62.94,62.94A62.94,62.94,0,0,0,573.006,640.57Z" transform="translate(478.36 2507.503)" fill="#3f3d56"/>
    <path id="Path_99" data-name="Path 99" d="M568.175,740.606a7.1,7.1,0,0,1-5.68-2.84l-17.414-23.219a7.1,7.1,0,0,1,11.36-8.52l11.393,15.189,29.261-43.89a7.1,7.1,0,0,1,11.816,7.877l-34.828,52.242a7.1,7.1,0,0,1-5.711,3.16Z" transform="translate(474.483 2503.626)" fill="#40b858"/>
    <ellipse id="Ellipse_21" data-name="Ellipse 21" cx="4.609" cy="3.207" rx="4.609" ry="3.207" transform="translate(1252.363 2881.554) rotate(-4.887)" fill="#fff"/>
    <ellipse id="Ellipse_22" data-name="Ellipse 22" cx="4.609" cy="3.207" rx="4.609" ry="3.207" transform="translate(1280.902 2871.874) rotate(-4.887)" fill="#3f3d56"/>
    <ellipse id="Ellipse_23" data-name="Ellipse 23" cx="4.609" cy="3.207" rx="4.609" ry="3.207" transform="translate(1238.836 2859.781) rotate(-4.887)" fill="#ff6584"/>
    <ellipse id="Ellipse_24" data-name="Ellipse 24" cx="2.027" cy="2.913" rx="2.027" ry="2.913" transform="translate(1228.745 2853.527) rotate(-12.732)" fill="#e6e6e6"/>
    <ellipse id="Ellipse_25" data-name="Ellipse 25" cx="2.027" cy="2.913" rx="2.027" ry="2.913" transform="translate(1220.222 2836.494) rotate(-12.732)" fill="#3f3d56"/>
    <ellipse id="Ellipse_26" data-name="Ellipse 26" cx="2.027" cy="2.913" rx="2.027" ry="2.913" transform="translate(1261.114 2860.414) rotate(-12.732)" fill="#e6e6e6"/>
    <ellipse id="Ellipse_27" data-name="Ellipse 27" cx="2.027" cy="2.913" rx="2.027" ry="2.913" transform="translate(1248.649 2870.762) rotate(-12.732)" fill="#ff6584"/>
    <ellipse id="Ellipse_28" data-name="Ellipse 28" cx="2.027" cy="2.913" rx="2.027" ry="2.913" transform="translate(1271.342 2879.19) rotate(-12.732)" fill="#3f3d56"/>
    <ellipse id="Ellipse_29" data-name="Ellipse 29" cx="3.207" cy="4.609" rx="3.207" ry="4.609" transform="translate(1129.958 2756.454) rotate(-75.779)" fill="#fff"/>
    <ellipse id="Ellipse_30" data-name="Ellipse 30" cx="3.207" cy="4.609" rx="3.207" ry="4.609" transform="translate(1099.823 2756.26) rotate(-75.779)" fill="#3f3d56"/>
    <ellipse id="Ellipse_31" data-name="Ellipse 31" cx="3.207" cy="4.609" rx="3.207" ry="4.609" transform="translate(1135.613 2781.456) rotate(-75.779)" fill="#ff6584"/>
    <ellipse id="Ellipse_32" data-name="Ellipse 32" cx="2.913" cy="2.027" rx="2.913" ry="2.027" transform="translate(1148.011 2792.484) rotate(-83.624)" fill="#e6e6e6"/>
    <ellipse id="Ellipse_33" data-name="Ellipse 33" cx="2.913" cy="2.027" rx="2.913" ry="2.027" transform="translate(1150.49 2811.368) rotate(-83.624)" fill="#3f3d56"/>
    <ellipse id="Ellipse_34" data-name="Ellipse 34" cx="2.913" cy="2.027" rx="2.913" ry="2.027" transform="translate(1119.68 2775.382) rotate(-83.624)" fill="#e6e6e6"/>
    <ellipse id="Ellipse_35" data-name="Ellipse 35" cx="2.913" cy="2.027" rx="2.913" ry="2.027" transform="translate(1134.846 2769.683) rotate(-83.624)" fill="#ff6584"/>
    <ellipse id="Ellipse_36" data-name="Ellipse 36" cx="2.913" cy="2.027" rx="2.913" ry="2.027" transform="translate(1116.163 2754.292) rotate(-83.624)" fill="#3f3d56"/>
    <path id="Path_101" data-name="Path 101" d="M396.814,594.784a16.983,16.983,0,0,1-8.045-24.581L339.7,501.23l15.741-18.263,57.679,82.347a16.959,16.959,0,0,1-16.308,29.47Z" transform="translate(496.832 2524.577)" fill="#ffb6b6"/>
    <path id="Path_102" data-name="Path 102" d="M395.046,362.867h0a12.11,12.11,0,0,0-15.477,2.725l-66.3,92.719,61.439,87.262,24.042-25.822-37.4-58.768,49.7-47.322a39.771,39.771,0,0,0-16.012-50.793Z" transform="translate(499.728 2537.92)" fill="#40b858"/>
  </g>
</svg>
