<svg xmlns="http://www.w3.org/2000/svg" width="437.391" height="487.832" viewBox="0 0 437.391 487.832">
  <g id="Group_217" data-name="Group 217" transform="translate(-2887 -390)">
    <path id="Path_156" data-name="Path 156" d="M453.987,299.289a93.122,93.122,0,0,1-10.24,3.238c-4.587,1.118-7.177,1.636-11.6-.082-.156-.06-.3-.12-.444-.179a47.032,47.032,0,0,1-28.625-42.645c-.022-.313-.022-.642-.022-.962a45.789,45.789,0,0,1,.221-4.628,46.768,46.768,0,0,1,1-6.224l-.044-.008a17.1,17.1,0,0,1-4.506-13.731A22.7,22.7,0,0,1,409.978,217.1a35.9,35.9,0,0,1,14.906-5.261,37.773,37.773,0,0,1,4.285-.249h13.453a58.142,58.142,0,0,1,8.445-1.331h.022c27.076-2.246,48.428,15.7,46.437,37.544-.015.024-.037.048-.052.072-.575.938-1.084,1.829-1.534,2.679-.435.794-.8,1.556-1.121,2.278-2.471,5.582,9.271,92.191,5.06,93.506-2.4.746-12.059-63.7-10.326-51.447C491.736,310.263,466.46,294.678,453.987,299.289Z" transform="translate(2557.784 199.647)" fill="#2f2e41"/>
    <path id="Path_157" data-name="Path 157" d="M179.851,393.068l37.532,79.959L73,458.4l30.138-76.759Z" transform="translate(2872.708 262.432)" fill="#ffb6b6"/>
    <path id="Path_158" data-name="Path 158" d="M564.212,681.508a210.3,210.3,0,0,1-77.985,10.445l-11.489-18.632s-.481,6.939-1.2,17.547a202.884,202.884,0,0,1-37.077-7.861c-22.921-7.167-44.407-18.273-66.186-28.515-4.411-26.3-6.067-66.847,18.322-90.453L519.87,588.1s21.062,15.754,15.427,21.4-6.507,4.762-2.805,8.464,11.7,8.651,11.783,11.889C544.308,631.108,553.285,654.029,564.212,681.508Z" transform="translate(2563.69 134.305)" fill="#2f2e41"/>
    <path id="Path_159" data-name="Path 159" d="M469.757,322.007l-31.715,2.213-20.5,19.808-7.179,1.281a26.765,26.765,0,0,0-22.021,27.924c1.477,25.019,4.783,62.4,11.694,74.529,10.715,18.806,19.566,12.905,10.715,18.806s-14.793,1.264-10.715,10.589-5.511,21.286-5.511,21.286l-3.817,3.817,4.048,1.659L523.752,520.7s-11.154-50.149-4.178-62.468,23.888-49.558,8.794-64.129l-14.759-51.937-25.387-7.487Z" transform="translate(2559.879 178.983)" fill="#d9f9d9"/>
    <path id="Path_160" data-name="Path 160" d="M706.8,556.781a14.662,14.662,0,0,1-13.927-17.454L632.36,498.349l7.22-19.523,71.511,49.2a14.641,14.641,0,0,1-4.3,28.76Z" transform="translate(2514.826 150.036)" fill="#ffb6b6"/>
    <path id="Path_161" data-name="Path 161" d="M512.059,343.147l-8.792,3.482,46.9,91.606,97.1,66.185,14-23.656-73.912-63.842-29.591-56.751a36.42,36.42,0,0,0-45.7-17.024Z" transform="translate(2538.655 175.554)" fill="#d9f9d9"/>
    <circle id="Ellipse_47" data-name="Ellipse 47" cx="31.846" cy="31.846" r="31.846" transform="translate(2980.282 429.242)" fill="#ffb6b6"/>
    <path id="Path_162" data-name="Path 162" d="M482.031,249.506c-.531.28-1.055.538-1.586.8-.553.265-1.106.531-1.667.782-10.658,4.831-19.339,5.369-24.605-1.578a29.493,29.493,0,0,0-2.426-10.606,17.043,17.043,0,0,1-2.81,10.606H438.331c-10.923,7.25-16.529,13.91-8.947,37.711.494,1.564,3.88,57.116,4.846,61.387-16.536-6.343-30.8-73.689-31.162-91.435-.022-.288-.022-.59-.022-.885a38.777,38.777,0,0,1,.221-4.256,39.849,39.849,0,0,1,1-5.723l-.044-.007a14.947,14.947,0,0,1-4.506-12.627,36.419,36.419,0,0,1,10.119-9.072,64.575,64.575,0,0,1,11.078-4.16c.1-.022.177-.044.273-.066,1.165-.317,2.36-.6,3.555-.856a66.759,66.759,0,0,1,7.457-1.128c.184-.007.361-.022.524-.022a5.588,5.588,0,0,1,2.847.782c.007,0,.007.007.022.007a5.618,5.618,0,0,1,2.736,4.779h11.816c.435,0,.87.015,1.305.037,16.455.656,29.679,7.693,30.528,23.867C482.016,248.4,482.031,248.945,482.031,249.506Z" transform="translate(2557.79 198.115)" fill="#2f2e41"/>
    <circle id="Ellipse_48" data-name="Ellipse 48" cx="20.981" cy="20.981" r="20.981" transform="translate(2948.985 406.94)" fill="#2f2e41"/>
    <path id="Path_163" data-name="Path 163" d="M440.982,214.107c-2.384,11.34-14.143,18.121-25.394,15.347a20.98,20.98,0,0,1-15.347-25.394c2.774-11.25,16.428-8.007,25.394-15.347C438.318,178.329,444.2,198.815,440.982,214.107Z" transform="translate(2557.787 204.11)" fill="#2f2e41"/>
    <path id="Path_164" data-name="Path 164" d="M392.636,563.987c17.881-72.919,53.311-135.6,111.988-184.7a16.509,16.509,0,0,1,22.65-5.551l139.49,84.576a16.509,16.509,0,0,1,5.551,22.65c-22.4,74.824-55.941,139.75-111.989,184.7a16.508,16.508,0,0,1-22.649,5.551l-139.49-84.576A16.509,16.509,0,0,1,392.636,563.987Z" transform="translate(2559.517 169.875)" fill="#f2f2f2"/>
    <path id="Path_165" data-name="Path 165" d="M417.429,588.562a16.508,16.508,0,0,1-5.551-22.65c17.881-72.92,53.312-135.6,111.988-184.7a16.3,16.3,0,0,1,6.153-5.812l-2.745-1.664a16.509,16.509,0,0,0-22.65,5.551c-58.677,49.106-94.107,111.781-111.988,184.7a16.508,16.508,0,0,0,5.551,22.649l139.49,84.576a16.435,16.435,0,0,0,16.5.261Z" transform="translate(2559.518 169.875)" opacity="0.2" style="isolation: isolate"/>
    <path id="Path_166" data-name="Path 166" d="M602.286,572.243l-93.632-56.417a6.559,6.559,0,0,1,6.77-11.236l93.632,56.417a6.559,6.559,0,1,1-6.77,11.236Z" transform="translate(2538.248 145.453)" fill="#fff"/>
    <path id="Path_167" data-name="Path 167" d="M552.015,490.452l-20.6-12.412a6.559,6.559,0,1,1,6.735-11.257l.035.021,20.6,12.412a6.559,6.559,0,1,1-6.77,11.236Z" transform="translate(2534.049 152.431)" fill="#fff"/>
    <path id="Path_168" data-name="Path 168" d="M584.034,602.531,490.4,546.114a6.559,6.559,0,1,1,6.757-11.244l.013.008L590.8,591.3a6.559,6.559,0,1,1-6.77,11.236Z" transform="translate(2541.618 139.863)" fill="#fff"/>
    <circle id="Ellipse_49" data-name="Ellipse 49" cx="27.348" cy="27.348" r="27.348" transform="translate(3125.075 556.625)" fill="#3f3d56"/>
    <circle id="Ellipse_50" data-name="Ellipse 50" cx="58.452" cy="58.452" r="58.452" transform="translate(3046.83 760.112)" fill="#fff"/>
    <path id="Path_169" data-name="Path 169" d="M567.553,757.325a59.268,59.268,0,1,1,59.268-59.268A59.268,59.268,0,0,1,567.553,757.325Zm0-116.9a57.637,57.637,0,1,0,57.637,57.637,57.637,57.637,0,0,0-57.637-57.637Z" transform="translate(2537.729 120.507)" fill="#3f3d56"/>
    <path id="Path_170" data-name="Path 170" d="M566.109,735.008a6.5,6.5,0,0,1-5.2-2.6l-15.947-21.262a6.5,6.5,0,0,1,10.4-7.8l10.433,13.91,26.8-40.193a6.5,6.5,0,0,1,10.82,7.214l-31.893,47.84a6.5,6.5,0,0,1-5.23,2.894Z" transform="translate(2531.199 113.977)" fill="#40b858"/>
    <ellipse id="Ellipse_51" data-name="Ellipse 51" cx="4.221" cy="2.936" rx="4.221" ry="2.936" transform="translate(3289.345 516.864) rotate(-4.887)" fill="#fff"/>
    <ellipse id="Ellipse_52" data-name="Ellipse 52" cx="4.221" cy="2.936" rx="4.221" ry="2.936" transform="translate(3315.479 507.998) rotate(-4.887)" fill="#3f3d56"/>
    <ellipse id="Ellipse_53" data-name="Ellipse 53" cx="4.221" cy="2.936" rx="4.221" ry="2.936" transform="translate(3276.958 496.925) rotate(-4.887)" fill="#ff6584"/>
    <ellipse id="Ellipse_54" data-name="Ellipse 54" cx="1.856" cy="2.668" rx="1.856" ry="2.668" transform="translate(3267.717 491.198) rotate(-12.732)" fill="#e6e6e6"/>
    <ellipse id="Ellipse_55" data-name="Ellipse 55" cx="1.856" cy="2.668" rx="1.856" ry="2.668" transform="translate(3259.912 475.6) rotate(-12.732)" fill="#3f3d56"/>
    <ellipse id="Ellipse_56" data-name="Ellipse 56" cx="1.856" cy="2.668" rx="1.856" ry="2.668" transform="translate(3297.359 497.505) rotate(-12.732)" fill="#e6e6e6"/>
    <ellipse id="Ellipse_57" data-name="Ellipse 57" cx="1.856" cy="2.668" rx="1.856" ry="2.668" transform="translate(3285.945 506.981) rotate(-12.732)" fill="#ff6584"/>
    <ellipse id="Ellipse_58" data-name="Ellipse 58" cx="1.856" cy="2.668" rx="1.856" ry="2.668" transform="translate(3306.725 514.699) rotate(-12.732)" fill="#3f3d56"/>
    <ellipse id="Ellipse_59" data-name="Ellipse 59" cx="2.936" cy="4.221" rx="2.936" ry="4.221" transform="translate(3177.254 402.304) rotate(-75.779)" fill="#fff"/>
    <ellipse id="Ellipse_60" data-name="Ellipse 60" cx="2.936" cy="4.221" rx="2.936" ry="4.221" transform="translate(3149.657 402.126) rotate(-75.779)" fill="#3f3d56"/>
    <ellipse id="Ellipse_61" data-name="Ellipse 61" cx="2.936" cy="4.221" rx="2.936" ry="4.221" transform="translate(3182.432 425.199) rotate(-75.779)" fill="#ff6584"/>
    <ellipse id="Ellipse_62" data-name="Ellipse 62" cx="2.668" cy="1.856" rx="2.668" ry="1.856" transform="translate(3193.785 435.298) rotate(-83.624)" fill="#e6e6e6"/>
    <ellipse id="Ellipse_63" data-name="Ellipse 63" cx="2.668" cy="1.856" rx="2.668" ry="1.856" transform="translate(3196.055 452.591) rotate(-83.624)" fill="#3f3d56"/>
    <ellipse id="Ellipse_64" data-name="Ellipse 64" cx="2.668" cy="1.856" rx="2.668" ry="1.856" transform="translate(3167.842 419.636) rotate(-83.624)" fill="#e6e6e6"/>
    <ellipse id="Ellipse_65" data-name="Ellipse 65" cx="2.668" cy="1.856" rx="2.668" ry="1.856" transform="translate(3181.729 414.418) rotate(-83.624)" fill="#ff6584"/>
    <ellipse id="Ellipse_66" data-name="Ellipse 66" cx="2.668" cy="1.856" rx="2.668" ry="1.856" transform="translate(3164.62 400.323) rotate(-83.624)" fill="#3f3d56"/>
    <path id="Path_172" data-name="Path 172" d="M392,585.363a15.552,15.552,0,0,1-7.367-22.51L339.7,499.692l14.415-16.724,52.819,75.409A15.53,15.53,0,0,1,392,585.363Z" transform="translate(2568.849 149.271)" fill="#ffb6b6"/>
    <path id="Path_173" data-name="Path 173" d="M388.156,362.726h0a11.089,11.089,0,0,0-14.173,2.5l-60.711,84.907,56.263,79.91,22.016-23.647L357.3,452.574l45.515-43.335a36.42,36.42,0,0,0-14.663-46.514Z" transform="translate(2573.727 171.75)" fill="#d9f9d9"/>
  </g>
</svg>
