<svg xmlns="http://www.w3.org/2000/svg" width="390.457" height="227.457" viewBox="0 0 390.457 227.457">
  <rect id="Rectangle_155" data-name="Rectangle 155" width="368" height="205" rx="8" transform="translate(11.229 11.229)" fill="#707070"/>
  <rect id="Rectangle_156" data-name="Rectangle 156" width="368" height="205" rx="8" transform="translate(11.729 10.088)" fill="#c6d044"/>
  <g id="Certificate-file" transform="translate(276.487 34.911)" opacity="0.108">
    <path id="Path_628" data-name="Path 628" d="M79.584,23.219a1.555,1.555,0,0,0-.088-.438c-.016-.045-.027-.09-.047-.133a1.55,1.55,0,0,0-.3-.455s-5.4-5.421-10.8-10.837c-2.7-2.709-5.405-5.415-7.437-7.443-1.5-1.5-2.492-2.487-3.189-3.1L57.685.768l0-.008L57.668.77C56.688-.084,56.3-.177,55.858.091H14.763A4.889,4.889,0,0,0,9.881,4.977V84.671a5.086,5.086,0,0,0,1.5,3.62A5.161,5.161,0,0,0,15,89.785H35.723a1.576,1.576,0,0,0,0-3.152H15a1.96,1.96,0,0,1-1.962-1.962V4.977a1.733,1.733,0,0,1,1.73-1.733h40.13c.059,3.6-.008,13.566-.077,20.045a1.576,1.576,0,0,0,1.576,1.593H76.449V84.928a1.716,1.716,0,0,1-.5,1.207,1.693,1.693,0,0,1-1.205.5h-.717a1.576,1.576,0,0,0,0,3.152h.717a4.823,4.823,0,0,0,3.435-1.424A4.89,4.89,0,0,0,79.6,84.928V23.305C79.6,23.275,79.586,23.249,79.584,23.219Zm-21.6-1.49c.085-8.3.111-13.226.086-16.19C61.76,9.218,68.521,16,74.233,21.729Z" transform="translate(0 0)" fill="#fff"/>
    <path id="Path_629" data-name="Path 629" d="M57.2,59.07a1.577,1.577,0,0,0-.278-.533,15.769,15.769,0,1,0-23.815.443l-5.32,18.236a1.576,1.576,0,0,0,2.189,1.865l5.361-2.547,3.369,4.885a1.576,1.576,0,0,0,2.82-.486L45.146,67.44l3.616,13.493a1.577,1.577,0,0,0,1.251,1.145,1.62,1.62,0,0,0,.271.023,1.575,1.575,0,0,0,1.294-.677l3.378-4.861,5.358,2.521A1.577,1.577,0,0,0,62.5,77.216ZM44.817,35.695A12.758,12.758,0,1,1,32.058,48.453,12.773,12.773,0,0,1,44.817,35.695ZM39.368,76.822l-2.195-3.181a1.573,1.573,0,0,0-1.973-.53l-3.4,1.615,3.915-13.42a15.652,15.652,0,0,0,7.07,2.763Zm15.725-3.678a1.576,1.576,0,0,0-1.965.528l-2.2,3.166L47.479,63.972A15.665,15.665,0,0,0,54.455,60.9l4.038,13.84Z" transform="translate(10.28 18.857)" fill="#fff"/>
    <path id="Path_630" data-name="Path 630" d="M41.451,53.453a7.88,7.88,0,1,0-7.88-7.88A7.88,7.88,0,0,0,41.451,53.453Zm0-12.608a4.728,4.728,0,1,1-4.728,4.728A4.734,4.734,0,0,1,41.451,40.845Z" transform="translate(13.646 21.737)" fill="#fff"/>
  </g>
</svg>
